<svg xmlns="http://www.w3.org/2000/svg" viewBox="0 0 511.999 511.999"><path d="M455.617 10.846H56.367c-12.437 0-22.517 10.094-22.517 22.531v74.912h444.296V33.377c.001-12.438-10.093-22.531-22.529-22.531zM148.16 55.922c-5.953 0-10.784-4.831-10.784-10.784s4.831-10.784 10.784-10.784 10.784 4.831 10.784 10.784-4.832 10.784-10.784 10.784zm218.496 0c-5.953 0-10.784-4.831-10.784-10.784s4.831-10.784 10.784-10.784 10.784 4.831 10.784 10.784-4.832 10.784-10.784 10.784z" fill="#e6e6e6"/><path d="M511.505 113.523l-34.077 177.704 13.918 184.793c1.021 13.559-9.706 25.134-23.322 25.134H43.96c-13.602 0-24.343-11.575-23.322-25.134l13.933-184.793L.494 113.523C-2.712 96.815 10.099 81.3 27.123 81.3h457.74c17.038 0 29.848 15.515 26.642 32.223z" fill="#3a5bbc"/><path d="M468.024 501.153H43.96c-13.602 0-24.343-11.575-23.322-25.134l13.933-184.793h442.858l13.918 184.793c1.021 13.559-9.706 25.134-23.323 25.134z" fill="#518ef8"/><path d="M247.371 244.856c0-34.687-29.026-62.906-64.703-62.906s-64.703 28.219-64.703 62.906h21.568c0-22.794 19.351-41.338 43.136-41.338s43.136 18.544 43.136 41.338-19.351 41.338-43.136 41.338h-20.13v21.568h20.13c23.785 0 43.136 18.544 43.136 41.338s-19.351 41.338-43.136 41.338-43.136-18.544-43.136-41.338h-21.568c0 34.687 29.026 62.906 64.703 62.906s64.703-28.219 64.703-62.906c0-21.663-11.322-40.802-28.513-52.122 17.192-11.319 28.513-30.459 28.513-52.122zm41.918-26.152l11.064 18.514 42.636-25.477v189.481h21.567V173.728z" fill="#fff"/></svg>