<svg xmlns="http://www.w3.org/2000/svg" viewBox="0 0 469.847 469.847"><path d="M270.336 234.965L34.39 462.165a40.146 40.146 0 0 1-17.493-33.493V41.258A40.146 40.146 0 0 1 34.39 7.765l235.946 227.2z" fill="#2196f3"/><path d="M352.896 155.605l-82.56 79.36L34.39 7.765a31.446 31.446 0 0 1 2.773-1.92 40.363 40.363 0 0 1 40.747-.64l274.986 150.4z" fill="#4caf50"/><path d="M452.95 234.965a40.79 40.79 0 0 1-21.333 36.267l-78.72 43.093-82.56-79.36 82.56-79.36 78.72 43.093a40.79 40.79 0 0 1 21.333 36.267z" fill="#ffc107"/><path d="M352.896 314.325L77.91 464.725a40.897 40.897 0 0 1-40.747-.64 31.446 31.446 0 0 1-2.773-1.92l235.947-227.2 82.559 79.36z" fill="#f44336"/></svg>