<svg xmlns="http://www.w3.org/2000/svg" width="48" height="48"><path d="M41 42H7c-2.207 0-4-1.793-4-4V10c0-2.207 1.793-4 4-4h34c2.207 0 4 1.793 4 4v28c0 2.207-1.793 4-4 4z" fill="#ffc107"/><path d="M7 10h34v28H7z" fill="#388e3c"/><path d="M28 36h8v2h-8zm-1-16a3 3 0 1 1-6.002-.002A3 3 0 0 1 27 20z" fill="#fff"/><path d="M18 23a1.999 1.999 0 1 1-4 0 1.999 1.999 0 1 1 4 0z" fill="#a5d6a7"/><path d="M7 10h34v2H7z" fill="#2e7d32"/><path d="M36 38h-8l4 4h8z" fill="#ffab00"/><path d="M34 23a1.999 1.999 0 1 1-4 0 1.999 1.999 0 1 1 4 0zm3 5.688c0-.446-.164-.875-.469-1.2C35.84 26.75 34.363 26 32 26c-2.363 0-3.84.75-4.531 1.488a1.747 1.747 0 0 0-.469 1.2V30h10zm-16 0c0-.446-.164-.875-.469-1.2C19.84 26.75 18.363 26 16 26c-2.363 0-3.84.75-4.531 1.488a1.747 1.747 0 0 0-.469 1.2V30h10z" fill="#a5d6a7"/><path d="M30 27.742c0-.535-.195-1.047-.563-1.437C28.605 25.418 26.837 24 24 24c-2.836 0-4.605 1.418-5.438 2.305A2.08 2.08 0 0 0 18 27.742V30h12z" fill="#fff"/></svg>