<svg width="106" height="41" xmlns="http://www.w3.org/2000/svg">
  <g fill="none" fill-rule="evenodd">
    <path d="M5.25 17.86l-.02 2.56 6.02-1.17-.03 3.82-6 1.16-.03 4.8-4.86.95.08-15 11.73-2.27-.03 3.81-6.86 1.34zm12.65-1.8c.75-1.09 1.98-1.8 3.7-2.13l-.03 4.28c-.35.01-.7.05-1.02.11-.8.16-1.4.46-1.79.9a2.8 2.8 0 0 0-.6 1.88l-.04 5.42-4.66.9.05-11.7 4.4-.86v1.2zm5.01-2.17l4.64-.9-.05 11.7-4.64.9.05-11.7zm2.65-1.46c-.8.15-1.47.07-2.04-.26-.56-.32-.9-.8-1.03-1.43-.14-.73.02-1.39.48-1.98a3.2 3.2 0 0 1 2-1.14 3 3 0 0 1 2.03.22c.56.3.9.76 1.02 1.4.15.78 0 1.46-.44 2.05-.45.59-1.12.97-2.02 1.14zm15.97 2.78c.12.62.16 1.29.13 2l-7.9 1.54c.2.45.48.74.88.88s.91.14 1.55.02c.93-.18 1.7-.6 2.3-1.26l2.48 2.45a8.71 8.71 0 0 1-4.65 2.36 7.95 7.95 0 0 1-3.37-.01 5.1 5.1 0 0 1-2.54-1.4 5 5 0 0 1-1.31-2.6 6.22 6.22 0 0 1 2.24-6.29 7.87 7.87 0 0 1 3.49-1.54 7.11 7.11 0 0 1 3.2.03 4.66 4.66 0 0 1 3.5 3.82zm-6.29-.64a2 2 0 0 0-1.19.65c-.28.33-.46.75-.54 1.25l3.7-.72c-.1-.47-.32-.8-.67-1.01a1.8 1.8 0 0 0-1.3-.17zm15.24-6.26a4.31 4.31 0 0 1 3.13.42c.86.52 1.41 1.4 1.65 2.63.1.47.14.95.13 1.45l-.02 6.47-4.66.9.03-5.88c0-.34-.02-.58-.05-.7-.16-.81-.63-1.14-1.41-.99-1.1.22-1.65 1.06-1.67 2.55l-.03 5.63-4.66.91.05-11.71 4.4-.86-.01 1.18a4.85 4.85 0 0 1 3.12-2zM69.94.57l-.08 15.9-4.4.85.01-1.07c-.69.99-1.62 1.6-2.79 1.82-.77.15-1.55.09-2.34-.18-.8-.28-1.5-.77-2.1-1.47-.6-.7-1-1.6-1.2-2.66a6.87 6.87 0 0 1 .17-3.46c.35-1.1.93-2.01 1.74-2.76a5.73 5.73 0 0 1 2.82-1.42c1.5-.3 2.66-.04 3.49.75l.02-5.4 4.66-.9zM61.7 12.61c.1.54.33.94.7 1.2.35.27.8.35 1.31.25.6-.12 1.05-.45 1.34-.99.29-.54.36-1.2.2-1.98-.1-.54-.33-.94-.69-1.2a1.6 1.6 0 0 0-1.32-.25c-.6.12-1.05.45-1.34.99-.29.54-.35 1.2-.2 1.98zm14.95 2.74c-.97.2-1.93.28-2.88.26a7.25 7.25 0 0 1-2.27-.32l1-3.5c.6.23 1.27.37 2 .4.75.05 1.45 0 2.11-.12.92-.18 1.35-.45 1.28-.8-.03-.16-.17-.25-.43-.28a7.55 7.55 0 0 0-1.18 0c-.84.04-1.56.03-2.15-.03a3.55 3.55 0 0 1-1.66-.62 2.5 2.5 0 0 1-1-1.68 3.58 3.58 0 0 1 1.16-3.52 8.77 8.77 0 0 1 4.37-1.98c.82-.16 1.63-.25 2.42-.25.8 0 1.5.07 2.15.23l-.99 3.5a6.72 6.72 0 0 0-3.52-.2c-.5.1-.85.22-1.05.38-.2.15-.3.3-.27.45.03.15.17.24.42.28.25.03.66.03 1.25.02.82-.03 1.52-.01 2.11.05.6.06 1.14.27 1.64.62s.83.9.98 1.66c.17.9.05 1.74-.39 2.48a5.11 5.11 0 0 1-1.99 1.88c-.89.5-1.93.86-3.1 1.1zm-5.15 16.52L66 32.94l-.96 2.8-5.13 1 6.38-16.22 4.79-.93 6.22 13.76-4.84.94-.96-2.42zm-1.36-3.37l-1.42-3.56-1.4 4.1 2.82-.54zm15.05-8.6a4.48 4.48 0 0 1 2.35.19c.8.27 1.5.76 2.1 1.46.6.7 1 1.6 1.2 2.66.24 1.21.18 2.37-.17 3.46a6.24 6.24 0 0 1-1.74 2.76 5.73 5.73 0 0 1-2.83 1.42c-1.5.3-2.67.04-3.48-.77l-.04 5.4-4.66.9.08-15.87 4.39-.85v1.07c.68-.99 1.62-1.6 2.8-1.83zm-.56 8.43c.6-.12 1.05-.44 1.34-.98.28-.55.35-1.2.2-2-.1-.53-.34-.93-.7-1.2a1.6 1.6 0 0 0-1.32-.24c-.6.12-1.05.45-1.33.99-.29.54-.36 1.2-.2 1.98.1.54.33.94.69 1.2.36.27.8.35 1.32.25zm15-11.23a4.48 4.48 0 0 1 2.34.18c.8.28 1.5.76 2.1 1.47.6.7 1 1.59 1.2 2.66.24 1.2.18 2.36-.17 3.46a6.24 6.24 0 0 1-1.74 2.75 5.73 5.73 0 0 1-2.83 1.43c-1.5.3-2.67.03-3.48-.78l-.05 5.4-4.65.9.08-15.86 4.39-.85v1.07c.68-1 1.62-1.6 2.8-1.83zm-.57 8.43c.6-.12 1.05-.45 1.34-.99.28-.54.35-1.2.2-1.99-.1-.53-.34-.93-.7-1.2a1.6 1.6 0 0 0-1.32-.24c-.6.11-1.05.44-1.33.98-.29.54-.36 1.2-.2 1.99.1.54.33.94.69 1.2.36.27.8.35 1.32.25z" fill="#000"/>
    <path d="M2.66 33.96a.7.7 0 0 0-.46.27 1 1 0 0 0-.15.59V35l1.21-.23v1.1l-1.18.23-.02 3.72-1.38.27.02-3.73-.74.15v-1.1l.75-.15v-.28c0-.55.16-1.02.45-1.39.29-.37.72-.6 1.28-.72.21-.04.42-.06.62-.05.2.01.38.05.53.1l-.35 1.1a.9.9 0 0 0-.58-.06zm3.77 5.09c-.48.09-.91.08-1.31-.02a2.01 2.01 0 0 1-1.5-1.65 2.72 2.72 0 0 1 .93-2.67c.39-.33.86-.55 1.4-.65.49-.1.93-.09 1.32.02a2.02 2.02 0 0 1 1.5 1.64c.1.53.06 1.02-.1 1.49-.16.46-.44.86-.83 1.19-.4.32-.86.54-1.41.65zm-.13-1.16a1.35 1.35 0 0 0 1.06-.99c.07-.26.08-.54.02-.84-.06-.33-.2-.57-.43-.72a1.1 1.1 0 0 0-.85-.13 1.36 1.36 0 0 0-1.08 1c-.07.25-.07.53-.01.84.06.32.2.56.43.71.23.15.51.2.86.13zm4.74-4.16c.16-.26.38-.47.65-.63.27-.16.6-.27 1-.35v1.32l-.32.04c-.42.09-.74.25-.95.5-.2.26-.31.62-.32 1.07l-.01 2.39-1.38.26.02-4.93 1.31-.26v.6zm8.2-.7l2.8 2.9-1.61.32-2.06-2.11-.83 1.08-.01 1.6-1.42.27.03-6.42 1.42-.28-.01 2.95 2.66-3.46 1.73-.34-2.7 3.5zm5.81 2.4c-.47.09-.91.08-1.3-.02a2.01 2.01 0 0 1-1.5-1.65 2.72 2.72 0 0 1 .93-2.67c.38-.33.85-.55 1.4-.65.48-.1.92-.09 1.31.02a2.02 2.02 0 0 1 1.5 1.64c.1.53.07 1.02-.1 1.49-.16.46-.44.86-.83 1.19-.39.32-.86.54-1.4.65zm-.13-1.16a1.35 1.35 0 0 0 1.06-.99c.08-.26.08-.54.02-.84-.06-.33-.2-.57-.43-.72a1.1 1.1 0 0 0-.85-.13 1.36 1.36 0 0 0-1.07 1c-.07.25-.08.53-.02.84.06.32.2.56.44.71.22.15.5.2.85.13zm4.96-1.6c0 .05 0 .12.02.2.06.3.26.43.6.36.18-.03.35-.13.52-.28l.4.95c-.28.24-.65.41-1.14.5-.44.1-.83.05-1.14-.14a1.24 1.24 0 0 1-.6-.89 2.37 2.37 0 0 1-.04-.42l.01-2-.73.15V30l.74-.14v-1.2l1.38-.27v1.2l1.18-.23v1.1l-1.19.23v1.98zm3.84-.75c0 .05 0 .12.02.2.06.3.26.43.6.36.18-.03.35-.12.52-.27l.4.94c-.27.25-.65.42-1.13.51-.45.09-.83.04-1.15-.14a1.24 1.24 0 0 1-.6-.9 2.37 2.37 0 0 1-.03-.42v-1.99l-.73.14v-1.1l.74-.14v-1.2l1.38-.27v1.2l1.18-.23v1.1l-1.19.23v1.98zm7.15-4.57l-.03 4.93-1.3.26v-.49c-.33.44-.78.71-1.36.82-.37.08-.73.06-1.07-.05-.35-.11-.65-.31-.9-.6a2.27 2.27 0 0 1-.5-1.08c-.1-.52-.07-1.02.08-1.48a2.63 2.63 0 0 1 2.01-1.8c.73-.13 1.3 0 1.69.42v-.67l1.38-.26zm-2.49 4.3a1.36 1.36 0 0 0 1.08-.99c.07-.25.08-.54.02-.84-.07-.33-.21-.57-.44-.72-.23-.15-.51-.19-.86-.12a1.36 1.36 0 0 0-1.07.98c-.07.26-.08.55-.02.85.07.33.21.56.44.71.23.16.51.2.85.13zm6.51-5.16c.53-.1.98-.04 1.34.17.37.22.6.6.7 1.11.04.2.06.39.06.59l-.02 2.73-1.38.27.02-2.64c0-.1 0-.22-.03-.34-.05-.24-.15-.42-.31-.52-.17-.1-.38-.13-.65-.08-.36.07-.63.23-.82.48-.2.24-.3.58-.3 1v2.5l-1.38.28.02-4.94 1.3-.26v.54c.35-.47.83-.77 1.45-.89zm5.08 4.1c-.42.07-.81.1-1.2.08a2.6 2.6 0 0 1-.93-.19l.33-1.1a3.4 3.4 0 0 0 1.74.13c.32-.06.54-.14.68-.25.14-.11.2-.24.16-.39-.02-.12-.1-.19-.25-.22a4.25 4.25 0 0 0-.69-.04c-.35 0-.65-.01-.88-.04a1.43 1.43 0 0 1-.65-.27c-.2-.14-.32-.36-.38-.66-.1-.53.04-.98.42-1.36a3.1 3.1 0 0 1 1.64-.78c.33-.06.66-.09.98-.08.33.01.61.06.86.14l-.3 1.1c-.44-.16-.93-.2-1.48-.09-.3.06-.52.15-.66.27-.14.12-.2.25-.17.38s.11.2.26.23c.15.03.38.05.72.05.34 0 .63.02.86.05.23.03.44.11.63.25a1 1 0 0 1 .38.66c.1.53-.04.98-.43 1.35-.39.38-.94.64-1.64.77z" fill="#0DAAFF"/>
  </g>
</svg>