<svg xmlns="http://www.w3.org/2000/svg" viewBox="0 0 465 465">
  <path d="M232.5 389.5c-12.407 0-22.5 10.094-22.5 22.5s10.093 22.5 22.5 22.5S255 424.406 255 412s-10.094-22.5-22.5-22.5zm0 30c-4.136 0-7.5-3.364-7.5-7.5s3.364-7.5 7.5-7.5 7.5 3.364 7.5 7.5-3.365 7.5-7.5 7.5z"/>
  <path d="M371.908 0H93.092C76.151 0 62.368 13.782 62.368 30.724v403.553c0 16.941 13.783 30.724 30.724 30.724h278.816c16.941 0 30.724-13.782 30.724-30.724V30.724C402.632 13.782 388.849 0 371.908 0zm15.724 434.276c0 8.67-7.054 15.724-15.724 15.724H93.092c-8.67 0-15.724-7.054-15.724-15.724V30.724c0-8.67 7.054-15.724 15.724-15.724h278.816c8.67 0 15.724 7.054 15.724 15.724v403.552z"/>
  <path d="M355.132 40H109.868c-4.142 0-7.5 3.357-7.5 7.5V367c0 4.143 3.358 7.5 7.5 7.5h245.263c4.142 0 7.5-3.357 7.5-7.5V47.5c.001-4.143-3.357-7.5-7.499-7.5zm-7.5 319.5H117.368V55h230.263v304.5z"/>
</svg>
