<svg fill="#6d768f" xmlns="http://www.w3.org/2000/svg" viewBox="0 0 297 297">
<path d="M229.99 48.228H67.01c-8.5 0-15.415 6.915-15.415 15.415v12.31h193.81v-12.31c0-8.5-6.915-15.415-15.415-15.415zM70.324 263.781C71.875 282.408 87.734 297 106.426 297h84.147c18.692 0 34.551-14.592 36.103-33.219l14.518-174.21H55.806l14.518 174.21zM120.738 26.102c0-6.883 5.6-12.483 12.483-12.483h30.556c6.884 0 12.484 5.6 12.484 12.483v8.507h13.619v-8.507C189.881 11.71 178.171 0 163.777 0h-30.556c-14.392 0-26.102 11.71-26.102 26.102v8.507h13.619v-8.507z"/>
        </svg>
