<?xml version="1.0" encoding="UTF-8"?>
<svg width="253px" height="255px" viewBox="0 0 253 255" version="1.1" xmlns="http://www.w3.org/2000/svg" xmlns:xlink="http://www.w3.org/1999/xlink">
    <!-- Generator: Sketch 52 (66869) - http://www.bohemiancoding.com/sketch -->
    <title>Combined Shape</title>
    <desc>Created with Sketch.</desc>
    <g id="Page-1" stroke="none" stroke-width="1" fill="none" fill-rule="evenodd">
        <g id="kottans" transform="translate(0.257408, -0.387282)" fill="#005685" opacity="0.499930246">
            <g id="g10" transform="translate(126.500000, 128.001165) scale(-1, 1) rotate(-180.000000) translate(-126.500000, -128.001165) translate(0.000000, 0.501165)">
                <path d="M162.92261,207.696835 L176.08301,181.335282 L179.380642,181.335282 L166.194917,207.747564 L162.948682,207.747564 L159.65105,207.747564 L146.124273,181.335282 L149.373869,181.335282 L162.92261,207.696835 Z M105.524707,207.695654 L118.686915,181.335282 L121.984547,181.335282 L108.79642,207.747564 L105.551386,207.747564 L102.253754,207.747564 L88.7269767,181.335282 L91.9765735,181.335282 L105.524707,207.695654 Z M121.932429,178.239399 L146.175911,178.239399 L146.175911,180.059941 L121.932429,180.059941 L121.932429,178.239399 Z M36.4413711,140.25298 L36.4413711,136.816045 L68.8724921,136.816045 L68.8724921,140.25298 L36.4413711,140.25298 Z M36.4413711,151.47886 L36.4413711,148.041925 L68.8724921,148.041925 L68.8724921,151.47886 L36.4413711,151.47886 Z M87.9773838,168.491569 L83.6397844,168.491569 C79.6792631,163.68082 75.4689576,156.348212 75.4065116,145.062287 C75.4065116,133.89405 79.6792631,126.561441 83.6397844,121.805934 L87.9773838,121.805934 C83.5148923,127.534159 80.058743,134.866767 80.058743,145.062287 C80.058743,155.430735 83.3875984,162.878629 87.9773838,168.491569 Z M129.959149,131.716604 C129.959149,129.653482 131.467462,128.109143 133.667484,128.109143 C135.994801,128.109143 137.438266,129.653482 137.438266,131.716604 C137.438266,133.834966 135.927552,135.324064 133.729931,135.324064 C131.529908,135.324064 129.959149,133.834966 129.959149,131.716604 Z M178.41441,121.805934 L182.687161,121.805934 C186.710128,126.674324 190.920434,133.951692 190.920434,145.177572 C190.920434,156.461095 186.710128,163.793703 182.687161,168.491569 L178.41441,168.491569 C182.941749,162.820986 186.33305,155.488378 186.33305,145.235215 C186.33305,134.92441 182.874499,127.476516 178.41441,121.805934 Z M197.520982,140.25298 L197.520982,136.816045 L229.949702,136.816045 L229.949702,140.25298 L197.520982,140.25298 Z M197.520982,151.47886 L197.520982,148.041925 L229.949702,148.041925 L229.949702,151.47886 L197.520982,151.47886 Z M76.1515411,110.064393 L71.8139417,110.064393 C67.8534205,105.251243 63.643115,97.9186345 63.5806689,86.6351118 C63.5806689,75.4668742 67.8534205,68.1342657 71.8139417,63.3811598 L76.1515411,63.3811598 C71.6890496,69.1069832 68.2329004,76.4395917 68.2329004,86.6351118 C68.2329004,97.0059613 71.5617557,104.449051 76.1515411,110.064393 Z M91.2975927,97.2370117 L94.4391099,110.871869 L90.7307747,110.871869 L88.0936295,97.2370117 L91.2975927,97.2370117 Z M83.378952,97.2370117 L86.5204692,110.871869 L82.8121339,110.871869 L80.172587,97.2370117 L83.378952,97.2370117 Z M98.4606362,63.379959 L102.733388,63.379959 C106.756355,68.2483498 110.969062,75.5233158 110.969062,86.7491959 C110.969062,98.0351204 106.756355,105.365327 102.733388,110.063192 L98.4606362,110.063192 C102.985574,104.39261 106.379277,97.0600011 106.379277,86.8092402 C106.379277,76.4984351 102.923128,69.0505415 98.4606362,63.379959 Z M146.478534,63.1489085 L146.478534,66.0118202 L115.053755,66.0118202 L115.053755,63.1489085 L146.478534,63.1489085 Z M163.070452,110.064393 L158.732853,110.064393 C154.772331,105.251243 150.564428,97.9186345 150.49958,86.6351118 C150.49958,75.4668742 154.772331,68.1342657 158.732853,63.3811598 L163.070452,63.3811598 C158.610362,69.1069832 155.151811,76.4395917 155.151811,86.6351118 C155.151811,97.0059613 158.483068,104.449051 163.070452,110.064393 Z M178.217464,97.2370117 L181.358981,110.871869 L177.650646,110.871869 L175.011099,97.2370117 L178.217464,97.2370117 Z M170.296422,97.2370117 L173.440341,110.871869 L169.732005,110.871869 L167.090057,97.2370117 L170.296422,97.2370117 Z M185.380508,63.379959 L189.653259,63.379959 C193.673825,68.2483498 197.886532,75.5233158 197.886532,86.7491959 C197.886532,98.0351204 193.673825,105.365327 189.653259,110.063192 L185.380508,110.063192 C189.905445,104.39261 193.299148,97.0600011 193.299148,86.8092402 C193.299148,76.4984351 189.840597,69.0505415 185.380508,63.379959 Z" id="Combined-Shape" transform="translate(133.195536, 135.448236) rotate(-45.000000) translate(-133.195536, -135.448236) "></path>
            </g>
        </g>
        <text id="?-?" opacity="0.504906064" transform="translate(141.249864, 111.239403) rotate(45.000000) translate(-141.249864, -111.239403) " font-family="FiraCode-Medium, Fira Code" font-size="40" font-weight="400" fill="#005685">
            <tspan x="105.249864" y="124.239403">? ?</tspan>
        </text>
    </g>
</svg>