<svg xmlns="http://www.w3.org/2000/svg" viewBox="0 0 512 512"><path fill="#d32e2a" d="M385.829 128v128l-38.4 35.072L307.2 256l-34.743-14.629 34.133-75.861z"/><path fill="#3a5bbc" d="M384 385.219H256l-.61-1.828-29.257-27.1 29.257-48.25 15.239-36.193 85.333 30.195z"/><path fill="#fbbb00" d="M256.61 128.61l31.695 36.291-31.695 39.058-15.239 36.193-79.847-39.899L128 126.781h128z"/><path fill="#28b446" d="M239.543 270.629l-35.048 76.214L126.171 384V256l37.791-23.442L204.8 256z"/><path fill="#518ef8" d="M512 256L384 385.219 270.629 271.848 307.2 256h78.629z"/><path fill="#91c646" d="M255.39 383.391V512L126.171 384l113.372-113.371L255.39 307.2v.841z"/><path fill="#ffd837" d="M241.371 240.152L204.8 256H0l128-129.219z"/><path fill="#f14336" d="M385.829 128L272.457 241.371 256.61 204.8V0z"/></svg>