<?xml version="1.0" encoding="iso-8859-1"?>
<!-- Generator: Adobe Illustrator 19.0.0, SVG Export Plug-In . SVG Version: 6.00 Build 0)  -->
<svg version="1.1" id="Layer_1" xmlns="http://www.w3.org/2000/svg" xmlns:xlink="http://www.w3.org/1999/xlink" x="0px" y="0px"
	 viewBox="0 0 512 512" style="enable-background:new 0 0 512 512;" xml:space="preserve">
<polygon style="fill:#28B446;" points="165.891,334.343 161.611,419.266 82.713,479.21 0,333.399 172.602,32.79 253.414,88.26 
	256.078,178.175 255.315,178.614 "/>
<polygon style="fill:#219B38;" points="172.602,32.79 221.718,237.124 256.078,178.175 253.414,59.814 "/>
<polygon style="fill:#FFD837;" points="339.385,32.79 512,333.399 418.917,380.477 345.204,333.851 345.204,333.399 
	256.078,178.175 172.602,32.79 "/>
<polygon style="fill:#518EF8;" points="512,333.399 429.339,478.266 82.713,479.21 165.891,334.343 345.204,333.851 "/>
<polygon style="fill:#3A5BBC;" points="82.713,479.21 227.749,334.173 165.891,334.343 "/>
<polygon style="fill:#FBBB00;" points="512,333.399 322.76,294.31 345.204,333.851 "/>
<g>
</g>
<g>
</g>
<g>
</g>
<g>
</g>
<g>
</g>
<g>
</g>
<g>
</g>
<g>
</g>
<g>
</g>
<g>
</g>
<g>
</g>
<g>
</g>
<g>
</g>
<g>
</g>
<g>
</g>
</svg>
