<?xml version="1.0" encoding="iso-8859-1"?>
<!-- Generator: Adobe Illustrator 19.0.0, SVG Export Plug-In . SVG Version: 6.00 Build 0)  -->
<svg version="1.1" id="Layer_1" xmlns="http://www.w3.org/2000/svg" xmlns:xlink="http://www.w3.org/1999/xlink" x="0px" y="0px"
	 viewBox="0 0 512 512" style="enable-background:new 0 0 512 512;" xml:space="preserve">
<path style="fill:#E6E6E6;" d="M397.504,425.529v51.919H0V34.552l36.571,28.207L73.13,34.552l36.571,28.207l36.571-28.207
	l36.571,28.207l36.558-28.207l36.584,28.207l36.558-28.207l36.571,28.207l36.584-28.207l36.571,28.207l36.571-28.207l36.584,28.207
	L512,34.552v328.387H397.504v15.335V425.529z"/>
<rect x="35.699" y="219.324" style="fill:#3A5BBC;" width="220.041" height="220.041"/>
<rect x="35.699" y="123.668" style="fill:#518EF8;" width="440.59" height="57.118"/>
<g>
	<rect x="290.461" y="226.738" style="fill:#CCCCCC;" width="195.599" height="19.543"/>
	<rect x="290.461" y="273.993" style="fill:#CCCCCC;" width="195.599" height="19.543"/>
	<rect x="290.461" y="321.247" style="fill:#CCCCCC;" width="195.599" height="19.543"/>
	<rect x="290.461" y="368.502" style="fill:#CCCCCC;" width="116.815" height="19.543"/>
	<rect x="290.461" y="415.757" style="fill:#CCCCCC;" width="116.815" height="19.543"/>
</g>
<path style="fill:#FFFFFF;" d="M145.725,393.074c-35.137,0-63.723-28.586-63.723-63.723s28.586-63.723,63.723-63.723
	c17.019,0,33.021,6.629,45.058,18.666l-13.818,13.818c-8.346-8.346-19.44-12.941-31.239-12.941c-24.361,0-44.18,19.819-44.18,44.18
	c0,24.361,19.819,44.18,44.18,44.18c21.003,0,38.631-14.734,43.091-34.409h-43.092V319.58h63.723v9.772
	C209.449,364.488,180.862,393.074,145.725,393.074z"/>
<polygon style="fill:#999999;" points="512,362.939 397.504,477.448 397.504,425.529 397.504,378.274 397.504,362.939 "/>
<g>
</g>
<g>
</g>
<g>
</g>
<g>
</g>
<g>
</g>
<g>
</g>
<g>
</g>
<g>
</g>
<g>
</g>
<g>
</g>
<g>
</g>
<g>
</g>
<g>
</g>
<g>
</g>
<g>
</g>
</svg>
