<?xml version="1.0" encoding="iso-8859-1"?>
<!-- Generator: Adobe Illustrator 19.0.0, SVG Export Plug-In . SVG Version: 6.00 Build 0)  -->
<svg version="1.1" id="Layer_1" xmlns="http://www.w3.org/2000/svg" xmlns:xlink="http://www.w3.org/1999/xlink" x="0px" y="0px"
	 viewBox="0 0 512 512" style="enable-background:new 0 0 512 512;" xml:space="preserve">
<polygon style="fill:#D32E2A;" points="385.829,128 385.829,256 347.429,291.072 307.2,256 272.457,241.371 306.59,165.51 "/>
<polygon style="fill:#3A5BBC;" points="384,385.219 256,385.219 255.39,383.391 226.133,356.291 255.39,308.041 270.629,271.848 
	355.962,302.043 "/>
<polygon style="fill:#FBBB00;" points="256.61,128.61 288.305,164.901 256.61,203.959 241.371,240.152 161.524,200.253 128,126.781 
	256,126.781 "/>
<polygon style="fill:#28B446;" points="239.543,270.629 204.495,346.843 126.171,384 126.171,256 163.962,232.558 204.8,256 "/>
<polygon style="fill:#518EF8;" points="512,256 384,385.219 270.629,271.848 307.2,256 385.829,256 "/>
<polygon style="fill:#91C646;" points="255.39,383.391 255.39,512 126.171,384 239.543,270.629 255.39,307.2 255.39,308.041 "/>
<polygon style="fill:#FFD837;" points="241.371,240.152 204.8,256 126.171,256 0,256 128,126.781 "/>
<polygon style="fill:#F14336;" points="385.829,128 272.457,241.371 256.61,204.8 256.61,203.959 256.61,128.61 256.61,0 "/>
<g>
</g>
<g>
</g>
<g>
</g>
<g>
</g>
<g>
</g>
<g>
</g>
<g>
</g>
<g>
</g>
<g>
</g>
<g>
</g>
<g>
</g>
<g>
</g>
<g>
</g>
<g>
</g>
<g>
</g>
</svg>
