<?xml version="1.0" encoding="iso-8859-1"?>
<!-- Generator: Adobe Illustrator 19.0.0, SVG Export Plug-In . SVG Version: 6.00 Build 0)  -->
<svg version="1.1" id="Layer_1" xmlns="http://www.w3.org/2000/svg" xmlns:xlink="http://www.w3.org/1999/xlink" x="0px" y="0px"
	 viewBox="0 0 512 512" style="enable-background:new 0 0 512 512;" xml:space="preserve">
<path style="fill:#FBBB00;" d="M441.412,140.235v338.781c0,18.219-14.778,32.983-32.983,32.983H103.572
	c-18.219,0-32.983-14.764-32.983-32.983V32.983C70.588,14.764,85.352,0,103.572,0h197.605L441.412,140.235z"/>
<polygon style="fill:#E2A203;" points="320.31,137.188 441.412,187.079 441.412,140.235 372.751,119.962 "/>
<path style="fill:#F4D37D;" d="M441.412,140.235H334.16c-18.22,0-32.983-14.764-32.983-32.983V0L441.412,140.235z"/>
<g>
	<path style="fill:none;stroke:#FFFFFF;stroke-width:15;stroke-linecap:round;stroke-linejoin:round;stroke-miterlimit:10;" d="
		M323.239,233.469H188.752c-12.466,0-22.571,10.106-22.571,22.571v134.487c0,12.466,10.106,22.571,22.571,22.571h134.487
		c12.466,0,22.571-10.106,22.571-22.571V256.041C345.811,243.575,335.705,233.469,323.239,233.469z"/>
	
		<rect x="199.895" y="282.451" style="fill:none;stroke:#FFFFFF;stroke-width:15;stroke-linecap:round;stroke-linejoin:round;stroke-miterlimit:10;" width="112.201" height="81.658"/>
</g>
<g>
</g>
<g>
</g>
<g>
</g>
<g>
</g>
<g>
</g>
<g>
</g>
<g>
</g>
<g>
</g>
<g>
</g>
<g>
</g>
<g>
</g>
<g>
</g>
<g>
</g>
<g>
</g>
<g>
</g>
</svg>
