<?xml version="1.0" standalone="no"?>
<!DOCTYPE svg PUBLIC "-//W3C//DTD SVG 20010904//EN"
 "http://www.w3.org/TR/2001/REC-SVG-20010904/DTD/svg10.dtd">
<svg version="1.0" xmlns="http://www.w3.org/2000/svg"
 width="700.000000pt" height="700.000000pt" viewBox="0 0 700.000000 700.000000"
 preserveAspectRatio="xMidYMid meet">
<metadata>
Created by potrace 1.11, written by Peter Selinger 2001-2013
</metadata>
<g transform="translate(0.000000,700.000000) scale(0.100000,-0.100000)"
fill="#000000" stroke="none">
<path d="M2308 6995 c-2 -2 -22 -5 -46 -9 -172 -23 -399 -191 -537 -397 -128
-191 -232 -464 -271 -714 -4 -27 -9 -57 -10 -65 -8 -36 -18 -214 -17 -310 0
-183 21 -378 55 -505 5 -22 12 -49 14 -60 11 -55 72 -222 115 -314 186 -396
486 -625 797 -608 99 5 120 9 200 39 426 157 734 763 734 1443 0 94 -10 269
-18 308 -2 12 -7 42 -10 67 -9 77 -51 240 -89 348 -73 211 -181 395 -307 524
-133 136 -231 197 -388 239 -40 10 -214 22 -222 14z"/>
<path d="M4500 6988 c-178 -45 -282 -106 -418 -246 -111 -114 -213 -279 -283
-454 -24 -61 -77 -229 -84 -266 -2 -14 -9 -48 -14 -76 -16 -78 -21 -107 -26
-161 -3 -27 -8 -68 -11 -90 -7 -57 -6 -328 1 -405 17 -175 69 -401 129 -557
279 -718 890 -941 1338 -486 37 37 82 88 100 113 18 25 35 47 38 50 13 12 60
93 102 175 79 157 146 375 182 595 24 146 24 517 1 641 -3 13 -7 35 -9 49 -3
14 -8 42 -10 62 -18 124 -93 347 -165 490 -184 364 -441 564 -735 572 -56 2
-117 -1 -136 -6z"/>
<path d="M542 4796 c-280 -71 -452 -351 -455 -740 -1 -117 6 -224 18 -266 2
-8 7 -31 10 -50 30 -182 146 -462 265 -645 241 -367 585 -594 882 -581 260 12
453 188 529 483 71 281 31 616 -114 953 -51 118 -167 324 -197 350 -3 3 -27
32 -52 65 -59 78 -207 219 -293 279 -82 57 -210 119 -290 141 -82 22 -237 28
-303 11z"/>
<path d="M6172 4789 c-286 -73 -578 -329 -771 -679 -28 -51 -51 -94 -51 -96 0
-2 -11 -27 -24 -56 -149 -330 -191 -703 -110 -988 68 -237 220 -396 428 -447
11 -3 55 -6 97 -8 223 -10 480 119 694 347 507 539 639 1415 270 1793 -132
136 -331 186 -533 134z"/>
<path d="M3459 3386 c-2 -2 -33 -7 -69 -10 -200 -20 -453 -116 -617 -232 -208
-148 -582 -599 -920 -1109 -100 -151 -159 -244 -178 -277 -5 -10 -55 -91 -111
-180 -272 -438 -345 -614 -345 -829 0 -384 215 -635 621 -725 102 -22 425 -27
534 -8 143 26 357 113 507 207 125 78 305 134 489 153 98 10 411 12 475 3 28
-4 73 -10 100 -12 129 -14 399 -109 437 -155 38 -45 357 -172 498 -197 59 -11
381 -14 440 -4 30 5 69 11 85 13 37 7 133 34 160 46 11 5 37 16 59 24 66 27
173 105 230 167 112 124 169 279 170 464 0 61 -3 130 -7 154 -19 119 -115 339
-233 534 -29 49 -54 92 -54 94 0 2 -5 9 -11 16 -5 7 -54 82 -107 167 -365 585
-894 1268 -1115 1438 -153 118 -373 210 -572 238 -22 3 -58 9 -81 13 -41 8
-378 14 -385 7z"/>
</g>
</svg>
