<svg xmlns="http://www.w3.org/2000/svg" viewBox="0 0 473.96 473.96">
  <circle cx="236.98" cy="236.98" r="236.98" fill="#f3f2f2"/>
  <g fill="#f7981d">
    <path d="M192.949 273.573c-15.757 11.633-38.593 17.818-58.26 17.818-27.558 0-52.378-10.193-71.169-27.154-1.471-1.325-.153-3.151 1.616-2.114 20.266 11.787 45.324 18.892 71.21 18.892 17.459 0 36.651-3.626 54.316-11.117 2.661-1.125 4.895 1.752 2.287 3.675z"/>
    <path d="M199.505 266.097c-2.017-2.578-13.325-1.22-18.402-.621-1.527.187-1.77-1.149-.389-2.125 9.018-6.335 23.794-4.505 25.512-2.384 1.732 2.14-.453 16.947-8.909 24.022-1.302 1.085-2.537.501-1.949-.935 1.892-4.748 6.153-15.379 4.137-17.957z"/>
  </g>
  <path d="M181.462 218.603v-6.155c.007-.939.707-1.56 1.564-1.56l27.581-.004c.883 0 1.594.647 1.594 1.56v5.268c-.007.887-.752 2.047-2.077 3.88l-14.286 20.396c5.306-.123 10.911.674 15.727 3.379 1.089.61 1.381 1.512 1.471 2.402v6.571c0 .902-.988 1.949-2.032 1.411-8.494-4.456-19.76-4.939-29.145.049-.965.509-1.964-.516-1.964-1.426v-6.245c0-.995.015-2.709 1.029-4.232l16.554-23.745-14.421-.004c-.881.004-1.588-.621-1.595-1.545zM80.849 257.042H72.46c-.804-.052-1.441-.651-1.497-1.414v-43.072c0-.861.722-1.549 1.624-1.549H80.4c.819.037 1.478.659 1.527 1.444v5.624h.153c2.039-5.437 5.875-7.977 11.049-7.977 5.246 0 8.535 2.541 10.889 7.977 2.032-5.437 6.657-7.977 11.592-7.977 3.521 0 7.36 1.452 9.714 4.715 2.66 3.626 2.118 8.883 2.118 13.5l-.015 27.18c0 .861-.722 1.549-1.616 1.549h-8.382c-.842-.052-1.504-.722-1.504-1.542v-22.836c0-1.811.153-6.346-.239-8.071-.621-2.896-2.507-3.712-4.932-3.712-2.039 0-4.15 1.358-5.014 3.536s-.782 5.804-.782 8.247v22.829c0 .861-.73 1.549-1.624 1.549h-8.382c-.842-.052-1.504-.722-1.504-1.542l-.015-22.836c0-4.804.79-11.873-5.167-11.873-6.028 0-5.796 6.885-5.796 11.873l-.007 22.829c.002.861-.716 1.549-1.614 1.549zM235.95 210.098c12.445 0 19.184 10.694 19.184 24.288 0 13.141-7.439 23.562-19.184 23.562-12.228 0-18.885-10.69-18.885-24.015 0-13.418 6.739-23.835 18.885-23.835zm.074 8.789c-6.189 0-6.578 8.434-6.578 13.687s-.079 16.494 6.503 16.494c6.496 0 6.803-9.063 6.803-14.586 0-3.63-.153-7.981-1.25-11.424-.935-2.992-2.817-4.171-5.478-4.171zM271.283 257.042h-8.359c-.842-.052-1.497-.722-1.497-1.542l-.022-43.09c.079-.782.767-1.403 1.616-1.403h7.783c.73.037 1.336.535 1.489 1.205v6.586h.161c2.346-5.89 5.635-8.7 11.431-8.7 3.764 0 7.439 1.355 9.792 5.07 2.193 3.446 2.193 9.25 2.193 13.414v27.102c-.094.763-.775 1.355-1.602 1.355h-8.411c-.782-.052-1.411-.621-1.497-1.355v-23.382c0-4.718.546-11.603-5.246-11.603-2.039 0-3.918 1.362-4.853 3.442-1.182 2.63-1.336 5.257-1.336 8.161v23.188c-.025.864-.74 1.552-1.642 1.552z"/>
  <ellipse cx="305.27" cy="253.63" rx="4.127" ry="3.921"/>
  <path d="M390.036 257.057c-.868-.026-1.557-.707-1.557-1.549v-43.079c.06-.76.696-1.362 1.497-1.414h3.083c.849 0 1.542.621 1.609 1.414v6.282c2.185-4.973 6.271-8.872 11.431-8.872l.322.007.314-.007c5.474 0 9.47 4.034 10.963 9.901 2.316-5.792 6.687-9.901 12.445-9.901l.299.007.337-.007c4.071 0 7.989 2.63 10.028 6.615 1.957 3.809 1.878 8.887 1.878 13.145v25.916c0 .827-.666 1.493-1.504 1.545h-3.689c-.79-.026-1.441-.591-1.542-1.336v-26.121c0-3.079.146-6.346-1.104-9.152-1.28-2.874-3.719-4.662-6.342-4.793-2.922.146-5.613 2.271-7.353 5.16-2.271 3.712-2.193 7.061-2.193 11.416v23.51c-.108.711-.722 1.272-1.489 1.325h-3.667c-.868-.026-1.572-.707-1.572-1.549l-.015-27.641c0-2.529-.161-5.519-1.328-7.79-1.351-2.608-3.787-4.296-6.335-4.43-2.638.146-5.313 2.163-6.9 4.516-2.032 2.993-2.425 6.709-2.425 10.526v24.823c0 .827-.666 1.493-1.504 1.545h-3.689v-.012h.002zM364.757 257.963c-11.906 0-17.238-12.146-17.238-24.292 0-12.774 6.271-23.831 18.256-23.831h.636c11.663 0 17.467 11.779 17.467 23.929 0 12.868-6.432 24.198-18.488 24.198l-.307-.004h-.326zm.876-5.897c3.91-.123 7.001-2.552 8.834-6.608 1.639-3.633 1.949-7.798 1.949-11.787 0-4.348-.468-8.879-2.5-12.591-1.826-3.255-4.969-5.313-8.311-5.437-3.704.138-7.008 2.645-8.688 6.522-1.482 3.353-1.949 7.794-1.949 11.506 0 4.165.546 8.973 2.271 12.599 1.677 3.434 4.902 5.672 8.394 5.796zM327.552 251.882c5.336-.168 8.142-4.449 9.31-9.998.228-.696.752-1.231 1.542-1.231l3.529-.011c.834.041 1.601.681 1.542 1.459-1.639 9.444-7.338 15.861-15.472 15.861l-.322-.004-.307.004c-11.824 0-16.917-11.876-16.917-23.929 0-11.962 5.167-24.198 16.999-24.198h.636c8.206 0 14.062 6.32 15.334 15.779 0 .703-.659 1.317-1.433 1.411l-3.697-.045c-.775-.109-1.28-.782-1.396-1.523-.891-5.276-3.925-9.467-8.973-9.635-8.037.254-10.335 10.159-10.335 17.759-.004 7.338 1.912 18.036 9.96 18.301zM64.419 249.151c-1.534-2.118-3.173-3.839-3.173-7.775V228.31c0-5.545.397-10.627-3.682-14.447-3.222-3.087-8.557-4.176-12.643-4.176-7.989 0-16.898 2.982-18.769 12.853-.191 1.048.569 1.594 1.257 1.755l8.127.876c.767-.037 1.317-.786 1.463-1.542.703-3.401 3.547-5.04 6.746-5.04 1.732 0 3.693.64 4.715 2.181 1.175 1.725 1.014 4.082 1.014 6.08v1.093c-4.868.543-11.225.909-15.779 2.904-5.257 2.271-8.947 6.907-8.947 13.714 0 8.722 5.493 13.085 12.554 13.085 5.968 0 9.235-1.411 13.833-6.103 1.527 2.204 2.024 3.282 4.808 5.59.629.341 1.433.299 1.987-.198l.026.022c1.676-1.493 4.722-4.135 6.432-5.568.689-.566.566-1.471.031-2.238zm-16.524-3.772c-1.328 2.361-3.45 3.817-5.804 3.817-3.222 0-5.108-2.455-5.108-6.088 0-7.147 6.417-8.449 12.483-8.449v1.819c0 3.266.079 5.994-1.571 8.901zM174.422 249.151c-1.534-2.118-3.173-3.839-3.173-7.775V228.31c0-5.545.397-10.627-3.682-14.447-3.222-3.087-8.557-4.176-12.643-4.176-7.989 0-16.898 2.982-18.769 12.853-.191 1.048.569 1.594 1.257 1.755l8.127.876c.767-.037 1.317-.786 1.463-1.542.703-3.401 3.547-5.04 6.746-5.04 1.732 0 3.693.64 4.715 2.181 1.175 1.725 1.014 4.082 1.014 6.08v1.093c-4.868.543-11.225.909-15.779 2.904-5.257 2.271-8.947 6.907-8.947 13.714 0 8.722 5.493 13.085 12.554 13.085 5.968 0 9.235-1.411 13.833-6.103 1.527 2.204 2.024 3.282 4.808 5.59.629.341 1.433.299 1.987-.198l.026.022c1.676-1.493 4.722-4.135 6.432-5.568.689-.566.566-1.471.031-2.238zm-16.524-3.772c-1.328 2.361-3.45 3.817-5.804 3.817-3.222 0-5.108-2.455-5.108-6.088 0-7.147 6.417-8.449 12.483-8.449v1.819c.001 3.266.079 5.994-1.571 8.901z"/>
</svg>
