<svg xmlns="http://www.w3.org/2000/svg" viewBox="0 0 473.94 473.94">
  <circle cx="236.97" cy="236.97" r="236.97" fill="#f3f2f2"/>
  <g fill="#1a80ad">
    <path d="M347.363 197.142c-9.86 0-17.657 2.615-23.622 3.809l-1.833 14.989c2.982-1.433 12.385-4.041 20.183-4.288 7.802-.236 12.385 1.429 10.78 8.093-23.161 0-38.761 4.752-41.971 19.742-4.591 25.695 23.622 24.984 34.862 13.8l-1.373 6.181h20.64l8.943-40.924c3.661-17.361-12.159-21.638-26.609-21.402zm1.377 41.87c-1.145 5.47-5.5 7.85-10.776 8.093-4.587.236-8.715-3.817-5.732-8.572 2.294-4.041 8.718-4.992 12.613-4.992h5.051c-.468 1.902-.7 3.567-1.156 5.471zM391.628 180.963l-17.078 78.509h20.965l17.291-78.509zM295.296 181.202h-38.387l-17.01 78.27h22.293l5.751-25.93h15.858c15.633 0 28.505-9.515 31.951-25.695 3.91-18.319-9.422-26.645-20.456-26.645zm-.681 26.645c-1.381 5.946-7.36 10.701-13.111 10.701h-10.342l4.599-21.41h11.031c5.75.004 9.196 4.76 7.823 10.709z"/>
  </g>
  <g fill="#1a5b80">
    <path d="M146.34 197.142c-9.744 0-17.448 2.615-23.117 3.809l-1.804 14.986c2.72-1.433 12.007-4.041 19.712-4.288 7.704-.236 12.236 1.429 10.87 8.093-22.877 0-38.282 4.752-41.455 19.742-4.535 25.695 23.33 24.984 34.207 13.8l-1.355 6.181h20.617l8.834-40.924c3.62-17.358-12.241-21.635-26.509-21.399zm1.587 41.87c-1.137 5.47-5.673 7.85-10.874 8.093-4.531.236-8.385-3.817-5.437-8.572 2.26-4.041 8.606-4.992 12.232-4.992h5.216c-.464 1.902-.913 3.567-1.137 5.471zM181.827 198.272h20.617l3.327 36.449 20.168-36.449h21.275l-48.983 87.232h-23.049l15.064-25.642zM95.063 181.202H56.575l-17.055 78.27h22.585l5.53-25.93h16.131c15.442 0 28.348-9.515 31.805-25.695 3.918-18.319-9.215-26.645-20.508-26.645zm-.692 26.645c-1.381 5.946-7.139 10.701-12.905 10.701h-10.6l4.842-21.41h11.061c5.529.004 9.215 4.76 7.602 10.709zM417.333 191.114v-9.261h-3.454v-1.242h8.322v1.242h-3.472v9.261h-1.396zM423.575 191.114v-10.503h2.084l2.488 7.431c.232.692.393 1.205.501 1.545.12-.378.307-.939.554-1.676l2.526-7.3h1.867v10.503h-1.336v-8.793l-3.061 8.793h-1.246l-3.042-8.939v8.939h-1.335z"/>
  </g>
</svg>
