<svg xmlns="http://www.w3.org/2000/svg" viewBox="0 0 473.96 473.96">
  <circle cx="236.98" cy="236.99" r="236.97" fill="#f3f2f2"/>
  <g fill="#293688">
    <path d="M175.483 282.447l18.133-107.074h29.357l-18.132 107.074zM309.352 178.141c-5.818-2.17-14.933-4.494-26.316-4.494-29.014 0-49.451 14.526-49.627 35.337-.161 15.382 14.589 23.962 25.732 29.088 11.427 5.238 15.27 8.599 15.214 13.28-.071 7.177-9.13 10.458-17.571 10.458-11.749-.004-17.994-1.624-27.637-5.62l-3.783-1.706-4.123 23.97c6.859 2.99 19.543 5.583 32.71 5.714 30.858-.007 50.899-14.353 51.124-36.583.112-12.179-7.712-21.448-24.651-29.092-10.264-4.947-16.55-8.251-16.482-13.272 0-4.449 5.324-9.208 16.815-9.208 9.601-.15 16.557 1.931 21.979 4.101l2.627 1.235 3.989-23.208zM359.405 175.373c-7.034 0-12.116 2.148-15.207 9.119l-43.509 97.959h31.083l6.043-16.408h37.137l3.45 16.408h27.633L381.86 175.376h-22.454l-.001-.003zm-13.343 69.245c2.425-6.166 11.693-29.927 11.693-29.927-.168.281 2.413-6.196 3.895-10.215l1.987 9.227s5.616 25.56 6.795 30.918h-24.37v-.003zM121.946 248.771l-2.586-14.679c-5.358-17.111-21.987-35.625-40.621-44.901l25.938 93.256h31.09l46.626-107.074H151.31l-29.364 73.398z"/>
  </g>
  <g fill="#f7981d">
    <path d="M46.823 175.373v1.729c36.838 8.86 62.413 31.259 72.538 56.991l-10.645-49.582c-1.777-6.776-7.162-8.902-13.534-9.137l-48.359-.001zM236.964 473.958c91.464 0 170.77-51.846 210.272-127.725H26.696c39.505 75.879 118.808 127.725 210.268 127.725z"/>
  </g>
  <path fill="#293688" d="M236.964 0C146.952 0 68.663 50.184 28.548 124.103h416.84C405.268 50.188 326.976 0 236.964 0z"/>
</svg>
