<svg height="511pt" viewBox="-71 1 511 511.99988" width="511pt" xmlns="http://www.w3.org/2000/svg"><path d="m353.789062 496.417969c-20.777343 20.777343-54.464843 20.777343-75.242187 0l-232.894531-232.894531c-60.203125-60.203126-60.203125-158.164063 0-218.371094 60.207031-60.203125 158.167968-60.203125 218.371094 0 20.777343 20.777344 20.777343 54.46875 0 75.246094-20.777344 20.777343-54.464844 20.777343-75.242188 0-18.71875-18.714844-49.167969-18.714844-67.882812 0-18.714844 18.714843-18.714844 49.164062 0 67.882812l232.890624 232.890625c20.777344 20.777344 20.777344 54.464844 0 75.246094zm0 0" fill="#ececed"/><path d="m52.941406 38.332031c-2.484375 2.183594-4.917968 4.453125-7.289062 6.820313-60.203125 60.207031-60.203125 158.167968 0 218.371094l232.894531 232.894531c20.777344 20.777343 54.464844 20.777343 75.242187 0 6.132813-6.132813 10.441407-13.394531 12.953126-21.113281-295.191407-124.839844-330.164063-343.363282-313.800782-436.972657zm0 0" fill="#dee0e1"/><g fill="#eb8d9a"><path d="m268.804688 486.675781c10.273437-31.640625 21.488281-86.261719 22.179687-128.3125l-75.609375-75.605469c-.691406 42.050782-11.90625 96.671876-22.175781 128.308594zm0 0"/><path d="m9.492188 206.410156c7.4375 20.863282 19.484374 40.4375 36.160156 57.113282l26.59375 26.59375c28.246094-15.929688 63.273437-39.570313 87.96875-62.519532l-39.316406-39.316406c-7.238282-7.238281-11.664063-16.234375-13.304688-25.625-30.742188 18.175781-69.691406 34.582031-98.101562 43.753906zm0 0"/><path d="m194.195312 5.070312c-1.492187 35.988282-9.039062 78.003907-16.878906 106.855469 4.121094 2.183594 7.996094 5.003907 11.460938 8.472657 20.777344 20.777343 54.46875 20.777343 75.246094 0 20.777343-20.777344 20.777343-54.46875 0-75.246094-20.023438-20.023438-44.226563-33.378906-69.828126-40.082032zm0 0"/><path d="m73.722656 126.882812c-6.898437-6.902343-19.515625-5.46875-28.175781 3.191407-8.664063 8.664062-10.097656 21.28125-3.195313 28.179687 6.898438 6.902344 19.515626 5.46875 28.179688-3.191406 8.664062-8.664062 10.09375-21.28125 3.191406-28.179688zm0 0"/><path d="m127.382812 73.226562c6.898438 6.898438 19.515626 5.46875 28.179688-3.195312s10.09375-21.28125 3.195312-28.179688c-6.902343-6.898437-19.515624-5.46875-28.179687 3.195313s-10.09375 21.277344-3.195313 28.179687zm0 0"/></g><path d="m54.71875 128.464844c-1.917969 0-3.835938-.734375-5.300781-2.199219l-5.542969-5.539063c-2.929688-2.925781-2.929688-7.675781 0-10.605468 2.929688-2.929688 7.675781-2.929688 10.605469 0l5.539062 5.539062c2.933594 2.929688 2.933594 7.679688.003907 10.605469-1.464844 1.464844-3.386719 2.199219-5.304688 2.199219zm0 0" fill="#495059"/><path d="m121.464844 61.71875c-1.921875 0-3.839844-.730469-5.304688-2.195312l-5.539062-5.539063c-2.929688-2.929687-2.929688-7.679687 0-10.605469 2.925781-2.929687 7.675781-2.929687 10.605468 0l5.539063 5.539063c2.929687 2.925781 2.929687 7.675781 0 10.605469-1.460937 1.464843-3.382813 2.195312-5.300781 2.195312zm0 0" fill="#495059"/><path d="m80.675781 104.175781c-.546875 0-1.097656-.019531-1.652343-.058593-4.132813-.285157-7.25-3.863282-6.96875-7.996094.285156-4.132813 3.875-7.25 7.996093-6.96875 2.605469.179687 5.152344-.773438 6.992188-2.609375 1.835937-1.839844 2.789062-4.386719 2.609375-6.992188-.28125-4.132812 2.835937-7.710937 6.96875-7.996093 4.125-.277344 7.714844 2.835937 7.996094 6.96875.476562 6.933593-2.0625 13.722656-6.96875 18.625-4.511719 4.515624-10.625 7.027343-16.972657 7.027343zm0 0" fill="#495059"/><path d="m202.367188 377.425781c-2.9375 12.632813-6.097657 24.171875-9.171876 33.640625l75.609376 75.609375c4.625-14.25 9.441406-33.167969 13.402343-53.492187-30.148437-17.632813-56.636719-36.359375-79.839843-55.757813zm0 0" fill="#db818d"/><path d="m72.246094 290.117188c10.820312-6.101563 22.632812-13.335938 34.480468-21.230469-18.011718-28.921875-30.925781-57.683594-39.859374-85.113281-20.226563 9.3125-40.632813 17.230468-57.375 22.636718 7.4375 20.863282 19.488281 40.4375 36.164062 57.113282zm0 0" fill="#db818d"/><path d="m252.066406 404.546875c-1.917968 0-3.839844-.730469-5.300781-2.195313-2.929687-2.929687-2.929687-7.675781-.003906-10.605468l14.71875-14.71875c2.929687-2.929688 7.679687-2.929688 10.609375 0 2.929687 2.929687 2.929687 7.675781 0 10.605468l-14.71875 14.71875c-1.464844 1.464844-3.386719 2.195313-5.304688 2.195313zm0 0" fill="#db818d"/><path d="m69.460938 244.921875c-1.917969 0-3.839844-.734375-5.304688-2.199219l-14.71875-14.714844c-2.925781-2.929687-2.925781-7.679687 0-10.609374 2.933594-2.925782 7.679688-2.925782 10.609375 0l14.71875 14.71875c2.925781 2.929687 2.925781 7.679687 0 10.605468-1.464844 1.464844-3.386719 2.199219-5.304687 2.199219zm0 0" fill="#eb8d9a"/><path d="m230.34375 87.984375c-1.921875 0-3.839844-.734375-5.304688-2.199219-2.929687-2.929687-2.929687-7.675781 0-10.605468l14.71875-14.71875c2.929688-2.925782 7.675782-2.925782 10.605469.003906 2.929688 2.925781 2.929688 7.675781 0 10.605468l-14.71875 14.71875c-1.464843 1.460938-3.382812 2.195313-5.300781 2.195313zm0 0" fill="#db818d"/><path d="m167.414062 353.050781c-4.144531 0-7.5-3.355469-7.5-7.5v-20.355469c0-4.144531 3.355469-7.5 7.5-7.5 4.140626 0 7.5 3.355469 7.5 7.5v20.355469c0 4.140625-3.359374 7.5-7.5 7.5zm0 0" fill="#dee0e1"/></svg>