<svg height="512pt" viewBox="0 -17 512.002 512" width="512pt" xmlns="http://www.w3.org/2000/svg"><path d="m146.925781 272.15625-94.3125 48.160156c-15.140625 7.730469-10.167969 30.53125 6.816407 31.257813l7.902343.335937c3.695313.160156 6.273438 3.726563 5.265625 7.285156l-3.402344 12.003907c-4.851562 17.09375 10.9375 32.882812 28.035157 28.035156l12-3.40625c3.5625-1.007813 7.128906 1.570313 7.285156 5.269531l.339844 7.898438c.722656 16.984375 23.523437 21.957031 31.253906 6.816406l48.164063-94.308594zm0 0" fill="#eb8d9a"/><path d="m97.730469 344.914062c-2.382813 0-4.726563-1.132812-6.183594-3.246093-2.347656-3.410157-1.488281-8.078125 1.921875-10.429688l37.246094-25.65625c3.410156-2.351562 8.082031-1.492187 10.429687 1.917969 2.351563 3.414062 1.492188 8.082031-1.921875 10.433594l-37.242187 25.65625c-1.300781.894531-2.78125 1.324218-4.25 1.324218zm0 0" fill="#db818d"/><path d="m131.003906 378.203125c-1.464844 0-2.949218-.429687-4.246094-1.324219-3.414062-2.351562-4.273437-7.019531-1.921874-10.433594l25.65625-37.242187c2.351562-3.410156 7.019531-4.273437 10.433593-1.921875 3.410157 2.347656 4.269531 7.019531 1.917969 10.429688l-25.65625 37.246093c-1.453125 2.109375-3.796875 3.246094-6.183594 3.246094zm0 0" fill="#db818d"/><path d="m315.730469 103.351562 48.160156-94.3125c7.734375-15.140624 30.53125-10.167968 31.257813 6.816407l.335937 7.898437c.160156 3.699219 3.726563 6.277344 7.289063 5.269532l12-3.40625c17.097656-4.847657 32.882812 10.9375 28.035156 28.039062l-3.402344 12c-1.011719 3.558594 1.566406 7.128906 5.265625 7.285156l7.898437.335938c16.984376.726562 21.957032 23.523437 6.816407 31.257812l-94.308594 48.160156zm0 0" fill="#eb8d9a"/><g fill="#db818d"><path d="m355.324219 98.894531c-1.464844 0-2.949219-.429687-4.246094-1.324219-3.414063-2.351562-4.273437-7.019531-1.921875-10.433593l25.65625-37.242188c2.351562-3.410156 7.019531-4.273437 10.433594-1.921875 3.410156 2.351563 4.269531 7.019532 1.917968 10.433594l-25.65625 37.242188c-1.457031 2.109374-3.800781 3.246093-6.183593 3.246093zm0 0"/><path d="m377.039062 120.59375c-2.382812 0-4.730468-1.132812-6.183593-3.242188-2.351563-3.414062-1.488281-8.082031 1.921875-10.433593l37.246094-25.65625c3.410156-2.355469 8.078124-1.492188 10.429687 1.917969 2.347656 3.414062 1.488281 8.082031-1.921875 10.433593l-37.246094 25.65625c-1.296875.898438-2.78125 1.324219-4.246094 1.324219zm0 0"/><path d="m386.851562 133.824219-52.25-52.25c-1.695312-1.691407-3.488281-3.246094-5.359374-4.683594l-13.511719 26.457031 49.34375 49.347656 26.457031-13.511718c-1.433594-1.867188-2.988281-3.664063-4.679688-5.359375zm0 0"/><path d="m120.472656 285.664062c1.425782 1.863282 2.976563 3.660157 4.679688 5.363282l52.25 52.25c1.691406 1.691406 3.488281 3.246094 5.355468 4.679687l13.511719-26.457031-49.34375-49.34375zm0 0"/></g><path d="m270.019531 92.855469-133.589843 133.589843c-14.71875 14.71875-14.71875 38.582032 0 53.300782l52.25 52.25c14.71875 14.71875 38.582031 14.71875 53.300781 0l133.589843-133.589844c14.71875-14.71875 14.71875-38.582031 0-53.300781l-52.25-52.25c-14.71875-14.71875-38.582031-14.71875-53.300781 0zm0 0" fill="#7bd0a7"/><path d="m191.660156 171.214844-55.230468 55.230468c-14.71875 14.71875-14.71875 38.582032 0 53.296876l52.25 52.25c14.722656 14.71875 38.582031 14.71875 53.304687 0l51.136719-51.136719c-91.285156-14.9375-99.304688-76.28125-101.460938-109.640625zm0 0" fill="#68bf97"/><path d="m232.109375 249.523438c-7.84375-7.84375-22.183594-6.214844-32.03125 3.632812s-11.472656 24.1875-3.632813 32.027344c7.84375 7.84375 22.183594 6.21875 32.03125-3.628906 9.847657-9.847657 11.472657-24.1875 3.632813-32.03125zm0 0" fill="#fff"/><path d="m293.105469 188.535156c7.839843 7.84375 22.179687 6.21875 32.027343-3.628906 9.847657-9.847656 11.472657-24.1875 3.632813-32.03125-7.84375-7.839844-22.183594-6.214844-32.03125 3.632812-9.847656 9.847657-11.472656 24.1875-3.628906 32.027344zm0 0" fill="#fff"/><path d="m200.496094 255.109375c-1.917969 0-3.835938-.734375-5.300782-2.199219l-7.65625-7.652344c-2.929687-2.929687-2.929687-7.675781 0-10.605468 2.929688-2.929688 7.675782-2.929688 10.605469 0l7.65625 7.652344c2.925781 2.929687 2.925781 7.679687 0 10.605468-1.464843 1.464844-3.386719 2.199219-5.304687 2.199219zm0 0" fill="#495059"/><path d="m264.613281 221.039062c-7.132812 7.132813-18.699219 7.132813-25.835937 0l-9.390625-9.390624c-1.949219-1.949219-1.949219-5.105469 0-7.054688l18.78125-18.785156c1.949219-1.945313 5.105469-1.945313 7.054687 0l9.390625 9.394531c7.136719 7.132813 7.136719 18.703125 0 25.835937zm0 0" fill="#495059"/><path d="m291.183594 164.421875c-1.917969 0-3.839844-.734375-5.304688-2.199219l-7.652344-7.652344c-2.929687-2.929687-2.929687-7.679687 0-10.605468 2.929688-2.929688 7.679688-2.929688 10.605469 0l7.65625 7.652344c2.925781 2.929687 2.925781 7.679687-.003906 10.609374-1.460937 1.460938-3.382813 2.195313-5.300781 2.195313zm0 0" fill="#495059"/><path d="m178.675781 184.199219-42.246093 42.246093c-14.71875 14.71875-14.71875 38.582032 0 53.300782l12.320312 12.320312c12.359375-23.417968 24.820312-59.859375 29.925781-107.867187zm0 0" fill="#5ca17b"/><path d="m323.839844 250.136719 51.730468-51.730469c14.71875-14.71875 14.71875-38.582031 0-53.300781l-31.59375-31.59375c7.046876 42.992187 1.476563 97.136719-20.136718 136.625zm0 0" fill="#65b188"/><path d="m136.636719 368.179688-100.742188-32.632813c-16.171875-5.238281-28.777343 14.398437-17.28125 26.917969l5.347657 5.824218c2.5 2.726563 1.800781 7.074219-1.429688 8.878907l-10.894531 6.078125c-15.515625 8.660156-15.515625 30.988281 0 39.648437l10.894531 6.078125c3.230469 1.804688 3.929688 6.152344 1.429688 8.878906l-5.347657 5.820313c-11.496093 12.523437 1.109375 32.160156 17.28125 26.921875l100.742188-32.632812zm0 0" fill="#f6e06a"/><path d="m100.191406 395.226562c-.453125 0-.910156-.039062-1.367187-.125l-44.480469-8.191406c-4.074219-.75-6.769531-4.660156-6.019531-8.734375s4.667969-6.765625 8.734375-6.019531l44.480468 8.195312c4.074219.75 6.765626 4.660157 6.015626 8.730469-.664063 3.617188-3.816407 6.144531-7.363282 6.144531zm0 0" fill="#ebd15e"/><path d="m55.695312 434.109375c-3.550781 0-6.703124-2.527344-7.371093-6.144531-.75-4.070313 1.945312-7.980469 6.019531-8.730469l44.480469-8.195313c4.078125-.753906 7.980469 1.945313 8.730469 6.019532.75 4.074218-1.941407 7.984375-6.015626 8.734375l-44.480468 8.191406c-.457032.085937-.914063.125-1.363282.125zm0 0" fill="#ebd15e"/><path d="m375.367188 368.179688 100.742187-32.632813c16.171875-5.238281 28.777344 14.398437 17.28125 26.917969l-5.347656 5.824218c-2.503907 2.726563-1.804688 7.074219 1.425781 8.878907l10.894531 6.078125c15.519531 8.660156 15.519531 30.988281 0 39.648437l-10.894531 6.078125c-3.230469 1.804688-3.929688 6.152344-1.425781 8.878906l5.347656 5.820313c11.496094 12.523437-1.109375 32.160156-17.28125 26.921875l-100.742187-32.632812zm0 0" fill="#f6e06a"/><path d="m411.8125 395.226562c-3.550781 0-6.703125-2.527343-7.367188-6.144531-.753906-4.070312 1.941407-7.980469 6.015626-8.730469l44.480468-8.195312c4.074219-.753906 7.980469 1.945312 8.730469 6.019531s-1.941406 7.984375-6.015625 8.734375l-44.480469 8.191406c-.457031.085938-.914062.125-1.363281.125zm0 0" fill="#ebd15e"/><path d="m456.308594 434.109375c-.453125 0-.910156-.039063-1.367188-.125l-44.480468-8.191406c-4.074219-.75-6.765626-4.660157-6.015626-8.734375.75-4.074219 4.664063-6.765625 8.734376-6.019532l44.476562 8.195313c4.074219.75 6.769531 4.660156 6.019531 8.730469-.667969 3.617187-3.820312 6.144531-7.367187 6.144531zm0 0" fill="#ebd15e"/><path d="m375.367188 437.960938 28.253906 9.152343c.308594-2.324219.484375-4.691406.484375-7.097656v-73.890625c0-2.410156-.175781-4.773438-.484375-7.097656l-28.253906 9.152344zm0 0" fill="#ebd15e"/><path d="m107.898438 366.125v73.890625c0 2.410156.171874 4.773437.480468 7.097656l28.257813-9.152343v-69.78125l-28.257813-9.152344c-.304687 2.324218-.480468 4.691406-.480468 7.097656zm0 0" fill="#ebd15e"/><path d="m350.460938 328.4375h-188.921876c-20.816406 0-37.6875 16.871094-37.6875 37.6875v73.894531c0 20.8125 16.871094 37.6875 37.6875 37.6875h188.921876c20.816406 0 37.691406-16.875 37.691406-37.6875v-73.894531c0-20.816406-16.875-37.6875-37.691406-37.6875zm0 0" fill="#88c8e9"/><path d="m161.539062 328.4375c-20.816406 0-37.6875 16.871094-37.6875 37.6875v73.894531c0 20.8125 16.871094 37.6875 37.6875 37.6875h149.214844c-59.238281-21.554687-109.179687-97.234375-105.074218-149.269531zm0 0" fill="#73b6d9"/><path d="m221.28125 328.4375h-59.742188c-20.816406 0-37.6875 16.871094-37.6875 37.6875v17.421875c25.292969-7.820313 59.875-24.777344 97.429688-55.109375zm0 0" fill="#ade9f0"/><path d="m277.304688 477.707031h73.15625c20.816406 0 37.691406-16.875 37.691406-37.6875v-44.683593c-25.417969 35.386718-67.644532 69.730468-110.847656 82.371093zm0 0" fill="#ade9f0"/><path d="m212.875 412.414062c0-11.09375-11.289062-20.082031-25.214844-20.082031-13.925781 0-25.21875 8.988281-25.21875 20.082031 0 11.089844 11.292969 20.078126 25.21875 20.078126 13.925782 0 25.214844-8.988282 25.214844-20.078126zm0 0" fill="#fff"/><path d="m349.558594 412.414062c0-11.09375-11.289063-20.082031-25.21875-20.082031-13.925782 0-25.214844 8.988281-25.214844 20.082031 0 11.089844 11.289062 20.078126 25.214844 20.078126 13.929687 0 25.21875-8.988282 25.21875-20.078126zm0 0" fill="#fff"/><path d="m202.355469 399.878906c-4.140625 0-7.5-3.355468-7.5-7.5v-8.902344c0-4.144531 3.359375-7.5 7.5-7.5s7.5 3.355469 7.5 7.5v8.902344c0 4.144532-3.359375 7.5-7.5 7.5zm0 0" fill="#495059"/><path d="m309.644531 399.878906c-4.140625 0-7.5-3.355468-7.5-7.5v-8.902344c0-4.144531 3.359375-7.5 7.5-7.5 4.144531 0 7.5 3.355469 7.5 7.5v8.902344c0 4.144532-3.355469 7.5-7.5 7.5zm0 0" fill="#495059"/><path d="m256 406.71875c-7.585938 0-14.804688-3.289062-19.796875-9.015625-2.71875-3.125-2.394531-7.863281.726563-10.582031 3.125-2.722656 7.859374-2.394532 10.582031.726562 2.144531 2.457032 5.238281 3.871094 8.488281 3.871094s6.34375-1.414062 8.488281-3.871094c2.722657-3.121094 7.460938-3.449218 10.582031-.726562 3.125 2.71875 3.449219 7.457031.726563 10.582031-4.992187 5.726563-12.207031 9.015625-19.796875 9.015625zm0 0" fill="#495059"/><path d="m277.304688 477.707031h33.449218c-5.085937-1.851562-10.101562-4.105469-15.027344-6.707031-6.089843 2.632812-12.242187 4.898438-18.421874 6.707031zm0 0" fill="#98dae3"/><path d="m205.679688 328.4375h-44.140626c-20.816406 0-37.6875 16.871094-37.6875 37.6875v17.421875c21.742188-6.71875 50.34375-20.203125 81.800782-43.117187-.277344-4.105469-.277344-8.117188.027344-11.992188zm0 0" fill="#98dae3"/></svg>