<svg height="511pt" viewBox="-62 0 511 511.9995" width="511pt" xmlns="http://www.w3.org/2000/svg"><path d="m259.234375 354.511719h-129.722656v133.09375c0 7.707031 5.054687 14.5 12.4375 16.710937 34.199219 10.242188 70.648437 10.242188 104.847656 0 7.382813-2.210937 12.441406-9.003906 12.441406-16.710937v-133.09375zm0 0" fill="#debc9b"/><path d="m319.878906 250.046875h-251.011718l-64.875 126.488281c-12.726563 24.8125 11.484374 52.402344 37.738281 43.007813l33.433593-11.964844c15.597657-5.582031 32.789063-4.582031 47.640626 2.761719l38.832031 19.210937c20.632812 10.207031 44.84375 10.207031 65.476562 0l38.832031-19.210937c14.847657-7.34375 32.039063-8.34375 47.636719-2.761719l33.433594 11.964844c26.257813 9.394531 50.464844-18.195313 37.738281-43.007813zm0 0" fill="#7bd0a7"/><path d="m68.867188 250.046875-64.875 126.488281c-12.726563 24.8125 11.484374 52.402344 37.738281 43.007813l33.433593-11.964844c15.597657-5.582031 32.792969-4.582031 47.640626 2.761719l38.832031 19.210937c6.898437 3.414063 14.203125 5.65625 21.636719 6.789063-47.238282-44.109375-42.625-132.246094-13.882813-186.296875h-100.523437zm0 0" fill="#68bf97"/><path d="m310.847656 162.207031h-232.949218l-60.207032 117.390625c-11.808594 23.027344 10.65625 48.628906 35.023438 39.910156l31.027344-11.101562c14.476562-5.179688 30.433593-4.253906 44.210937 2.5625l36.039063 17.828125c19.144531 9.46875 41.617187 9.46875 60.761718 0l36.039063-17.828125c13.777343-6.816406 29.734375-7.742188 44.210937-2.5625l31.027344 11.101562c24.367188 8.71875 46.832031-16.882812 35.023438-39.910156zm0 0" fill="#65b188"/><path d="m77.898438 162.207031-60.207032 117.390625c-11.808594 23.027344 10.65625 48.628906 35.023438 39.910156l31.027344-11.101562c14.476562-5.179688 30.433593-4.253906 44.210937 2.5625l36.039063 17.828125c6.402343 3.167969 13.179687 5.25 20.078124 6.296875-43.835937-40.933594-39.558593-122.726562-12.882812-172.886719zm0 0" fill="#5ca17b"/><path d="m146.285156 24.378906-101.390625 138.34375c-13.417969 18.308594 5.613281 42.722656 26.644531 34.175782l8.355469-3.394532c10.421875-4.238281 22.085938-4.238281 32.507813 0l48.742187 19.804688c21.304688 8.660156 45.152344 8.660156 66.457031 0l48.742188-19.804688c10.421875-4.238281 22.085938-4.238281 32.511719 0l8.351562 3.394532c21.03125 8.546874 40.0625-15.867188 26.644531-34.175782l-101.390624-138.34375c-23.820313-32.503906-72.355469-32.503906-96.175782 0zm0 0" fill="#7bd0a7"/><path d="m112.402344 193.503906 48.742187 19.804688c12.199219 4.957031 25.230469 7.066406 38.144531 6.34375-63.097656-25.835938-68.304687-142.921875-37.863281-209.757813-5.660156 3.757813-10.8125 8.578125-15.140625 14.484375l-101.390625 138.34375c-13.417969 18.308594 5.613281 42.722656 26.644531 34.175782l8.355469-3.394532c10.421875-4.238281 22.085938-4.238281 32.507813 0zm0 0" fill="#68bf97"/><path d="m152.519531 129.089844c0-10.761719-10.953125-19.488282-24.46875-19.488282s-24.472656 8.726563-24.472656 19.488282c0 10.761718 10.957031 19.488281 24.472656 19.488281s24.46875-8.726563 24.46875-19.488281zm0 0" fill="#fff"/><path d="m285.167969 129.089844c0-10.761719-10.957031-19.488282-24.472657-19.488282-13.515624 0-24.46875 8.726563-24.46875 19.488282 0 10.761718 10.953126 19.488281 24.46875 19.488281 13.515626 0 24.472657-8.726563 24.472657-19.488281zm0 0" fill="#fff"/><g fill="#495059"><path d="m142.3125 117.148438c-4.140625 0-7.5-3.359376-7.5-7.5v-8.640626c0-4.144531 3.359375-7.5 7.5-7.5s7.5 3.355469 7.5 7.5v8.640626c0 4.140624-3.359375 7.5-7.5 7.5zm0 0"/><path d="m246.433594 117.148438c-4.140625 0-7.5-3.359376-7.5-7.5v-8.640626c0-4.144531 3.359375-7.5 7.5-7.5s7.5 3.355469 7.5 7.5v8.640626c0 4.140624-3.355469 7.5-7.5 7.5zm0 0"/><path d="m194.371094 123.785156c-7.425782 0-14.488282-3.21875-19.378906-8.828125-2.71875-3.121093-2.394532-7.859375.726562-10.582031 3.125-2.71875 7.863281-2.394531 10.582031.726562 2.039063 2.339844 4.980469 3.683594 8.070313 3.683594 3.09375 0 6.035156-1.34375 8.074218-3.683594 2.71875-3.121093 7.457032-3.445312 10.582032-.726562 3.121094 2.722656 3.445312 7.460938.726562 10.582031-4.890625 5.609375-11.953125 8.828125-19.382812 8.828125zm0 0"/><path d="m82.582031 285.105469c-4.144531 0-7.5-3.359375-7.5-7.5v-19.3125c0-4.140625 3.355469-7.5 7.5-7.5 4.140625 0 7.5 3.359375 7.5 7.5v19.3125c0 4.140625-3.359375 7.5-7.5 7.5zm0 0"/></g><path d="m113.28125 308.304688c0 16.953124-13.746094 30.699218-30.699219 30.699218-16.957031 0-30.699219-13.746094-30.699219-30.699218 0-16.953126 13.742188-30.699219 30.699219-30.699219 16.953125 0 30.699219 13.746093 30.699219 30.699219zm0 0" fill="#fff"/><path d="m276.222656 185.769531c-4.140625 0-7.5-3.359375-7.5-7.5v-19.3125c0-4.140625 3.359375-7.5 7.5-7.5 4.144532 0 7.5 3.359375 7.5 7.5v19.3125c0 4.140625-3.355468 7.5-7.5 7.5zm0 0" fill="#495059"/><path d="m306.921875 208.96875c0 16.953125-13.742187 30.699219-30.699219 30.699219-16.953125 0-30.699218-13.746094-30.699218-30.699219 0-16.957031 13.746093-30.699219 30.699218-30.699219 16.957032 0 30.699219 13.742188 30.699219 30.699219zm0 0" fill="#f6e06a"/><path d="m149.949219 195.769531c-4.144531 0-7.5-3.359375-7.5-7.5v-19.3125c0-4.140625 3.355469-7.5 7.5-7.5 4.140625 0 7.5 3.359375 7.5 7.5v19.3125c0 4.140625-3.359375 7.5-7.5 7.5zm0 0" fill="#495059"/><path d="m180.648438 218.96875c0 16.957031-13.746094 30.699219-30.699219 30.699219-16.957031 0-30.699219-13.742188-30.699219-30.699219 0-16.953125 13.742188-30.699219 30.699219-30.699219 16.953125 0 30.699219 13.746094 30.699219 30.699219zm0 0" fill="#eb8d9a"/><path d="m221.300781 325.460938c-4.140625 0-7.5-3.359376-7.5-7.5v-19.3125c0-4.140626 3.359375-7.5 7.5-7.5s7.5 3.359374 7.5 7.5v19.3125c0 4.140624-3.359375 7.5-7.5 7.5zm0 0" fill="#495059"/><path d="m252 348.660156c0 16.953125-13.746094 30.699219-30.699219 30.699219s-30.699219-13.746094-30.699219-30.699219 13.746094-30.699218 30.699219-30.699218 30.699219 13.746093 30.699219 30.699218zm0 0" fill="#f6e06a"/><path d="m126.40625 387.230469c-4.140625 0-7.5-3.359375-7.5-7.5v-19.3125c0-4.140625 3.359375-7.5 7.5-7.5s7.5 3.359375 7.5 7.5v19.3125c0 4.140625-3.359375 7.5-7.5 7.5zm0 0" fill="#495059"/><path d="m157.105469 410.429688c0 16.953124-13.746094 30.699218-30.699219 30.699218s-30.699219-13.746094-30.699219-30.699218c0-16.953126 13.746094-30.699219 30.699219-30.699219s30.699219 13.746093 30.699219 30.699219zm0 0" fill="#ade9f0"/><path d="m317.632812 370.4375c-4.144531 0-7.5-3.359375-7.5-7.5v-19.3125c0-4.140625 3.355469-7.5 7.5-7.5 4.140626 0 7.5 3.359375 7.5 7.5v19.3125c0 4.140625-3.359374 7.5-7.5 7.5zm0 0" fill="#495059"/><path d="m348.328125 393.636719c0 16.957031-13.742187 30.699219-30.695313 30.699219-16.957031 0-30.699218-13.742188-30.699218-30.699219 0-16.953125 13.742187-30.699219 30.699218-30.699219 16.953126 0 30.695313 13.746094 30.695313 30.699219zm0 0" fill="#eb8d9a"/></svg>