<svg height="511pt" viewBox="0 -20 511.99934 511" width="511pt" xmlns="http://www.w3.org/2000/svg"><path d="m424.957031 437.519531c-13.121093-7.304687-28.078125-10.101562-42.605469-8.386719-6.152343.726563-11.296874-4.421874-10.574218-10.574218 1.714844-14.527344-1.078125-29.484375-8.382813-42.605469-3.582031-6.429687.214844-14.539063 7.480469-15.691406 15.152344-2.40625 29.707031-9.445313 41.382812-21.121094 11.675782-11.675781 18.714844-26.230469 21.117188-41.378906 1.15625-7.269531 9.265625-11.066407 15.695312-7.484375 13.121094 7.304687 28.078126 10.097656 42.605469 8.386718 6.148438-.726562 11.296875 4.421876 10.570313 10.570313-1.710938 14.53125 1.082031 29.484375 8.386718 42.605469 3.582032 6.429687-.214843 14.542968-7.480468 15.695312-15.152344 2.402344-29.707032 9.441406-41.382813 21.117188-11.675781 11.675781-18.714843 26.234375-21.117187 41.382812-1.15625 7.269532-9.265625 11.0625-15.695313 7.484375zm0 0" fill="#65b188"/><path d="m412.90625 395.503906c-1.917969 0-3.835938-.734375-5.300781-2.199218-2.929688-2.929688-2.929688-7.675782 0-10.605469l48.210937-48.210938c2.929688-2.929687 7.675782-2.925781 10.605469 0 2.929687 2.929688 2.929687 7.679688 0 10.609375l-48.210937 48.207032c-1.464844 1.464843-3.382813 2.199218-5.304688 2.199218zm0 0" fill="#5ca17b"/><path d="m437.015625 187.039062h-398.726563v225.476563c0 21.261719 17.238282 38.496094 38.5 38.496094h321.730469c21.257813 0 38.496094-17.238281 38.496094-38.496094zm0 0" fill="#f6e06a"/><path d="m38.289062 412.515625c0 21.261719 17.238282 38.496094 38.5 38.496094h166.554688c-64.039062-50.960938-88.578125-137.511719-92.664062-195.21875-.652344-9.253907 6.621093-17.140625 15.898437-17.140625h270.433594v-51.613282h-398.722657zm0 0" fill="#ebd15e"/><path d="m276.613281 158.859375 122.257813 2.703125c13.039062.285156 24.953125-7.355469 30.125-19.328125 9.660156-22.347656.449218-48.363281-21.121094-59.652344l-8.96875-4.695312c-4.226562-2.210938-6.445312-6.972657-5.425781-11.632813l2.167969-9.886718c5.21875-23.78125-8.789063-47.558594-32.117188-54.527344-12.496094-3.730469-26.007812.484375-34.167969 10.65625l-76.519531 95.390625zm0 0" fill="#eb8d9a"/><path d="m264.730469 140.878906c-2.824219 0-5.527344-1.605468-6.800781-4.332031-1.75-3.753906-.125-8.21875 3.628906-9.96875l72.84375-33.96875c3.753906-1.75 8.214844-.125 9.964844 3.628906 1.75 3.753907.128906 8.214844-3.625 9.964844l-72.84375 33.96875c-1.027344.476563-2.105469.707031-3.167969.707031zm0 0" fill="#db818d"/><path d="m198.691406 158.859375-122.257812 2.703125c-13.039063.285156-24.953125-7.355469-30.125-19.328125-9.660156-22.347656-.449219-48.363281 21.121094-59.652344l8.96875-4.695312c4.222656-2.210938 6.445312-6.972657 5.425781-11.632813l-2.171875-9.886718c-5.214844-23.78125 8.792968-47.558594 32.121094-54.527344 12.496093-3.730469 26.007812.484375 34.167968 10.65625l76.519532 95.390625zm0 0" fill="#eb8d9a"/><path d="m210.570312 140.878906c-1.058593 0-2.136718-.230468-3.164062-.707031l-72.84375-33.96875c-3.753906-1.75-5.378906-6.210937-3.625-9.964844 1.75-3.753906 6.210938-5.378906 9.964844-3.628906l72.84375 33.96875c3.753906 1.75 5.378906 6.214844 3.628906 9.96875-1.273438 2.726563-3.980469 4.332031-6.804688 4.332031zm0 0" fill="#db818d"/><path d="m280.246094 105.410156c-27.675782-9.039062-57.511719-9.039062-85.1875 0-9.996094 3.265625-16.753906 12.585938-16.753906 23.097656v24.414063c0 10.511719 6.757812 19.835937 16.753906 23.097656 27.675781 9.042969 57.511718 9.042969 85.1875 0 9.992187-3.261719 16.753906-12.585937 16.753906-23.097656v-24.414063c0-10.511718-6.761719-19.832031-16.753906-23.097656zm0 0" fill="#db818d"/><path d="m453.003906 221.050781h-430.703125c-12.316406 0-22.300781-9.984375-22.300781-22.300781v-35.734375c0-12.316406 9.984375-22.300781 22.300781-22.300781h430.703125c12.316406 0 22.300782 9.984375 22.300782 22.300781v35.734375c0 12.316406-9.984376 22.300781-22.300782 22.300781zm0 0" fill="#f6c273"/><path d="m22.300781 140.714844c-12.316406 0-22.300781 9.988281-22.300781 22.300781v35.734375c0 12.316406 9.984375 22.300781 22.300781 22.300781h139.101563c-23.820313-17.589843-31.429688-49.011719-21.78125-80.335937zm0 0" fill="#e6b05e"/><path d="m198.617188 221.050781h78.070312v229.960938h-78.070312zm0 0" fill="#eb8d9a"/><path d="m180.234375 140.714844h114.835937v80.335937h-114.835937zm0 0" fill="#eb8d9a"/><path d="m466.273438 409.300781c-7.304688 13.121094-10.097657 28.074219-8.386719 42.601563.726562 6.152344-4.421875 11.300781-10.574219 10.574218-14.527344-1.714843-29.484375 1.082032-42.601562 8.386719-6.433594 3.578125-14.542969-.214843-15.695313-7.484375-2.40625-15.148437-9.441406-29.703125-21.117187-41.378906-11.675782-11.679688-26.234376-18.714844-41.382813-21.121094-7.269531-1.152344-11.0625-9.261718-7.484375-15.691406 7.304688-13.125 10.101562-28.078125 8.386719-42.605469-.726563-6.152343 4.421875-11.300781 10.574219-10.574219 14.527343 1.714844 29.484374-1.082031 42.605468-8.386718 6.429688-3.578125 14.539063.214844 15.691406 7.484375 2.40625 15.148437 9.441407 29.707031 21.117188 41.382812 11.679688 11.675781 26.234375 18.714844 41.382812 21.117188 7.269532 1.152343 11.0625 9.261719 7.484376 15.695312zm0 0" fill="#7bd0a7"/><path d="m416.757812 428.847656c-1.917968 0-3.839843-.734375-5.304687-2.195312l-48.210937-48.210938c-2.929688-2.929687-2.929688-7.679687 0-10.609375 2.929687-2.925781 7.679687-2.925781 10.609374 0l48.210938 48.210938c2.925781 2.929687 2.925781 7.679687 0 10.609375-1.464844 1.460937-3.386719 2.195312-5.304688 2.195312zm0 0" fill="#68bf97"/><path d="m182.371094 299.828125c0-14.214844-14.46875-25.738281-32.320313-25.738281-17.855469 0-32.324219 11.523437-32.324219 25.738281 0 14.21875 14.46875 25.742187 32.324219 25.742187 17.851563 0 32.320313-11.523437 32.320313-25.742187zm0 0" fill="#eb8d9a"/><path d="m357.578125 299.828125c0-14.214844-14.472656-25.738281-32.324219-25.738281-17.851562 0-32.324218 11.523437-32.324218 25.738281 0 14.21875 14.472656 25.742187 32.324218 25.742187 17.851563 0 32.324219-11.523437 32.324219-25.742187zm0 0" fill="#eb8d9a"/><g fill="#495059"><path d="m168.886719 281.648438c-4.140625 0-7.5-3.355469-7.5-7.5v-11.414063c0-4.140625 3.359375-7.5 7.5-7.5 4.144531 0 7.5 3.359375 7.5 7.5v11.414063c0 4.144531-3.355469 7.5-7.5 7.5zm0 0"/><path d="m306.417969 281.648438c-4.144531 0-7.5-3.355469-7.5-7.5v-11.414063c0-4.140625 3.355469-7.5 7.5-7.5 4.140625 0 7.5 3.359375 7.5 7.5v11.414063c0 4.144531-3.359375 7.5-7.5 7.5zm0 0"/><path d="m237.652344 290.417969c-9.117188 0-17.785156-3.949219-23.785156-10.832031-2.722657-3.125-2.394532-7.863282.726562-10.582032 3.125-2.722656 7.859375-2.398437 10.582031.726563 3.148438 3.613281 7.695313 5.6875 12.476563 5.6875 4.777344 0 9.324218-2.074219 12.476562-5.6875 2.71875-3.125 7.457032-3.449219 10.582032-.726563 3.121093 2.71875 3.445312 7.457032.726562 10.582032-6 6.882812-14.667969 10.832031-23.785156 10.832031zm0 0"/></g><path d="m198.617188 401.53125v49.480469h44.726562c-17.839844-14.195313-32.609375-31.15625-44.726562-49.480469zm0 0" fill="#db818d"/><path d="m198.617188 221.050781h78.070312v17.601563h-78.070312zm0 0" fill="#db818d"/></svg>