<svg height="512pt" viewBox="-13 0 511 512" width="512pt" xmlns="http://www.w3.org/2000/svg"><path d="m86.792969 128.890625c-13 6.019531-28.261719-1.332031-31.660157-15.246094-1.234374-5.050781-4.625-9.304687-9.273437-11.628906-12.8125-6.410156-16.582031-22.925781-7.820313-34.257813 3.179688-4.113281 4.390626-9.417968 3.308594-14.5-2.976562-14.015624 7.585938-27.257812 21.910156-27.472656 5.199219-.078125 10.097657-2.4375 13.398438-6.453125 9.101562-11.066406 26.039062-11.066406 35.140625 0 3.300781 4.015625 8.203125 6.375 13.398437 6.453125 14.324219.214844 24.886719 13.457032 21.910157 27.472656-1.082031 5.082032.128906 10.386719 3.308593 14.5 8.761719 11.332032 4.992188 27.847657-7.820312 34.257813-4.648438 2.324219-8.039062 6.578125-9.273438 11.628906-3.394531 13.917969-18.660156 21.265625-31.660156 15.246094-4.714844-2.1875-10.152344-2.1875-14.867187 0zm0 0" fill="#ececed"/><path d="m120.554688 316.503906c0 33.152344-26.875 60.027344-60.027344 60.027344s-60.027344-26.875-60.027344-60.027344 26.875-60.027344 60.027344-60.027344 60.027344 26.875 60.027344 60.027344zm0 0" fill="#edc2bb"/><path d="m484.71875 316.503906c0 33.152344-26.875 60.027344-60.027344 60.027344s-60.027344-26.875-60.027344-60.027344 26.875-60.027344 60.027344-60.027344 60.027344 26.875 60.027344 60.027344zm0 0" fill="#edc2bb"/><path d="m443.03125 287.445312c0-99.375-89.730469-175.8125-200.421875-175.8125s-200.421875 76.4375-200.421875 175.8125 89.730469 179.9375 200.421875 179.9375 200.421875-80.5625 200.421875-179.9375zm0 0" fill="#f6d0ca"/><path d="m242.609375 111.632812c-83.808594 0-155.589844 43.824219-185.515625 108.242188 7.195312 3.535156 15.039062 5.757812 23.195312 6.488281l6.34375.570313c51.644532 4.628906 104.125 6.976562 155.976563 6.976562s104.328125-2.347656 155.976563-6.976562l6.34375-.570313c8.15625-.730469 16-2.953125 23.195312-6.488281-29.929688-64.417969-101.707031-108.242188-185.515625-108.242188zm0 0" fill="#edc2bb"/><path d="m242.609375 111.632812c-110.691406 0-200.421875 76.4375-200.421875 175.8125s89.730469 179.9375 200.421875 179.9375 200.421875-80.5625 200.421875-179.9375-89.730469-175.8125-200.421875-175.8125zm0 327.75c-95.074219 0-172.421875-68.160156-172.421875-151.9375 0-39.582031 17.425781-76.53125 49.074219-104.039062 32.464843-28.226562 76.273437-43.769531 123.347656-43.769531 47.078125 0 90.882813 15.542969 123.351563 43.769531 31.644531 27.511719 49.070312 64.460938 49.070312 104.039062 0 83.777344-77.347656 151.9375-172.421875 151.9375zm0 0" fill="#ececed"/><path d="m365.960938 183.40625c14.578124 12.671875 26.132812 27.355469 34.359374 43.371094l4.609376-.410156c8.15625-.730469 16-2.953126 23.195312-6.492188-29.929688-64.417969-101.707031-108.242188-185.515625-108.242188v28c47.074219.003907 90.882813 15.546876 123.351563 43.773438zm0 0" fill="#dee0e1"/><path d="m242.609375 439.382812c-95.074219 0-172.421875-68.160156-172.421875-151.9375 0-39.582031 17.425781-76.53125 49.074219-104.039062 32.464843-28.226562 76.273437-43.769531 123.347656-43.769531v-28c-110.6875 0-200.421875 76.433593-200.421875 175.808593 0 99.378907 89.734375 179.9375 200.421875 179.9375zm0 0" fill="#dee0e1"/><path d="m177 298.441406c0-16.875-17.175781-30.550781-38.367188-30.550781-21.1875 0-38.363281 13.675781-38.363281 30.550781 0 16.871094 17.175781 30.550782 38.363281 30.550782 21.191407 0 38.367188-13.679688 38.367188-30.550782zm0 0" fill="#eb8d9a"/><path d="m384.949219 298.441406c0-16.875-17.175781-30.550781-38.363281-30.550781-21.191407 0-38.367188 13.675781-38.367188 30.550781 0 16.871094 17.175781 30.550782 38.367188 30.550782 21.1875 0 38.363281-13.679688 38.363281-30.550782zm0 0" fill="#eb8d9a"/><path d="m145.046875 269.867188c-4.140625 0-7.5-3.359376-7.5-7.5v-16.46875c0-4.140626 3.359375-7.5 7.5-7.5 4.144531 0 7.5 3.359374 7.5 7.5v16.46875c0 4.140624-3.355469 7.5-7.5 7.5zm0 0" fill="#495059"/><path d="m340.171875 269.867188c-4.144531 0-7.5-3.359376-7.5-7.5v-16.46875c0-4.140626 3.355469-7.5 7.5-7.5 4.140625 0 7.5 3.359374 7.5 7.5v16.46875c0 4.140624-3.359375 7.5-7.5 7.5zm0 0" fill="#495059"/><path d="m242.609375 207.84375c82.4375 0 174.40625-26.453125 158.550781-91.914062-15.628906-64.535157-76.113281-115.929688-158.550781-115.929688s-142.921875 51.394531-158.550781 115.929688c-15.859375 65.460937 76.113281 91.914062 158.550781 91.914062zm0 0" fill="#eb8d9a"/><path d="m314.4375 200.738281c-131.890625-9.0625-168.054688-139.59375-106.542969-197.546875-64.464843 12.144532-110.496093 57.648438-123.835937 112.738282-15.859375 65.460937 76.113281 91.914062 158.550781 91.914062 24.109375 0 49.027344-2.269531 71.828125-7.105469zm0 0" fill="#db818d"/><path d="m403.589844 211.425781-6.347656.570313c-102.882813 9.222656-206.386719 9.222656-309.269532 0l-6.34375-.570313c-26.25-2.351562-46.363281-24.351562-46.363281-50.703125 0-29.914062 25.660156-53.378906 55.453125-50.707031 101.058594 9.058594 202.722656 9.058594 303.78125 0 29.789062-2.667969 55.453125 20.796875 55.453125 50.707031 0 26.351563-20.113281 48.351563-46.363281 50.703125zm0 0" fill="#ececed"/><path d="m81.628906 211.425781 6.34375.570313c36.425782 3.265625 72.929688 5.347656 109.453125 6.300781-42.359375-27.398437-42.105469-75.917969-23.070312-102.882813-27.90625-1.121093-55.796875-2.902343-83.636719-5.398437-29.789062-2.671875-55.453125 20.792969-55.453125 50.703125 0 26.355469 20.113281 48.355469 46.363281 50.707031zm0 0" fill="#dee0e1"/><path d="m365.078125 314.625c-.445313 0-.890625.003906-1.332031.011719-14.480469.242187-28.359375-5.292969-39.074219-15.035157-21.675781-19.703124-50.464844-31.710937-82.0625-31.710937s-60.386719 12.007813-82.0625 31.710937c-10.714844 9.742188-24.59375 15.277344-39.074219 15.035157-.445312-.007813-.886718-.011719-1.332031-.011719-41.4375 0-75.023437 31.957031-75.023437 71.378906 0 39.425782 33.585937 71.382813 75.023437 71.382813.828125 0 1.65625-.015625 2.476563-.039063 10.445312-.328125 20.433593 3.976563 27.230468 11.917969 22.382813 26.15625 55.632813 42.734375 92.761719 42.734375 37.125 0 70.375-16.578125 92.761719-42.734375 6.792968-7.941406 16.785156-12.246094 27.230468-11.917969.820313.023438 1.648438.039063 2.476563.039063 41.433594 0 75.023437-31.957031 75.023437-71.382813 0-39.421875-33.589843-71.378906-75.023437-71.378906zm0 0" fill="#ececed"/><path d="m298.242188 498.601562c-84.335938 9.523438-123.5625-62.132812-111.386719-103.277343 1.519531-5.132813-.140625-10.75-4.191407-14.25-24.507812-21.160157-28.46875-64.039063-4.890624-94.550781-6.226563 3.914062-12.078126 8.371093-17.476563 13.308593-10.597656 9.6875-24.46875 15.046875-38.820313 14.804688-.445312-.007813-.890624-.011719-1.335937-.011719-41.4375 0-75.023437 31.957031-75.023437 71.378906 0 39.425782 33.585937 71.382813 75.023437 71.382813.832031 0 1.660156-.015625 2.488281-.039063 10.433594-.328125 20.417969 3.96875 27.203125 11.898438 22.386719 26.167968 55.640625 42.753906 92.777344 42.753906 20.042969 0 38.949219-4.839844 55.632813-13.398438zm0 0" fill="#dee0e1"/><path d="m242.609375 354.03125c-15.351563 0-27.796875-12.441406-27.796875-27.792969v-20.210937c0-4.1875 3.398438-7.585938 7.589844-7.585938h40.414062c4.191406 0 7.589844 3.398438 7.589844 7.585938v20.210937c0 15.347657-12.445312 27.792969-27.796875 27.792969zm0 0" fill="#495059"/></svg>