<svg height="511pt" viewBox="0 -42 511.99918 511" width="511pt" xmlns="http://www.w3.org/2000/svg"><path d="m156.726562 296.113281-126.707031-46.117187c-10.007812-3.644532-21.074219 1.515625-24.714843 11.523437-3.640626 10.007813 1.515624 21.070313 11.523437 24.710938l23.617187 8.597656-31.046874 14.476563c-8.144532 3.800781-11.667969 13.476562-7.871094 21.621093 2.761718 5.917969 8.628906 9.398438 14.753906 9.398438 2.304688 0 4.644531-.492188 6.867188-1.53125l60.535156-28.226563 59.855468 21.785156c2.175782.792969 4.402344 1.167969 6.59375 1.167969 7.875 0 15.269532-4.863281 18.121094-12.691406 3.640625-10.007813-1.519531-21.074219-11.527344-24.714844zm0 0" fill="#ddaf89"/><path d="m492.71875 286.644531h-25.132812l24.226562-24.226562c6.351562-6.351563 6.351562-16.652344 0-23.007813-6.351562-6.351562-16.65625-6.351562-23.007812 0l-47.234376 47.234375h-63.695312c-10.648438 0-19.28125 8.632813-19.28125 19.28125 0 10.648438 8.632812 19.28125 19.28125 19.28125h134.84375c10.648438 0 19.28125-8.632812 19.28125-19.28125 0-10.648437-8.632812-19.28125-19.28125-19.28125zm0 0" fill="#ddaf89"/><path d="m383.804688 305.488281c0-67.492187-59.890626-122.203125-133.773438-122.203125-73.878906 0-133.769531 54.710938-133.769531 122.203125 0 67.488281 59.890625 122.199219 133.769531 122.199219 73.882812 0 133.773438-54.710938 133.773438-122.199219zm0 0" fill="#ececed"/><path d="m211.398438 188.46875c-55.042969 15.144531-95.136719 61.800781-95.136719 117.019531 0 67.488281 59.890625 122.199219 133.769531 122.199219 16.84375 0 32.957031-2.851562 47.800781-8.042969-121.78125-11.132812-139.203125-145.839843-86.433593-231.175781zm0 0" fill="#dee0e1"/><path d="m257.519531 340.324219c0 4.132812-3.351562 7.484375-7.488281 7.484375-4.132812 0-7.484375-3.351563-7.484375-7.484375 0-4.136719 3.351563-7.488281 7.484375-7.488281 4.136719 0 7.488281 3.351562 7.488281 7.488281zm0 0" fill="#495059"/><path d="m257.519531 377.097656c0 4.136719-3.351562 7.488282-7.488281 7.488282-4.132812 0-7.484375-3.351563-7.484375-7.488282 0-4.132812 3.351563-7.484375 7.484375-7.484375 4.136719 0 7.488281 3.351563 7.488281 7.484375zm0 0" fill="#495059"/><path d="m422.886719 152.128906c0-85.707031-77.386719-151.628906-172.855469-151.628906-95.464844 0-172.851562 65.921875-172.851562 151.628906 0 85.707032 77.386718 129.90625 172.851562 129.90625 95.46875 0 172.855469-44.199218 172.855469-129.90625zm0 0" fill="#ececed"/><path d="m198.589844 7.160156c-70.34375 18.777344-121.410156 75.34375-121.410156 144.96875 0 85.707032 77.386718 129.90625 172.851562 129.90625 5.3125 0 10.5625-.144531 15.75-.417968-85.714844-24.351563-139.390625-173.226563-67.191406-274.457032zm0 0" fill="#dee0e1"/><path d="m182.59375 156.246094c0-17.34375-17.65625-31.402344-39.433594-31.402344s-39.433594 14.058594-39.433594 31.402344 17.65625 31.402344 39.433594 31.402344 39.433594-14.058594 39.433594-31.402344zm0 0" fill="#eb8d9a"/><path d="m396.339844 156.246094c0-17.34375-17.65625-31.402344-39.433594-31.402344s-39.433594 14.058594-39.433594 31.402344 17.65625 31.402344 39.433594 31.402344 39.433594-14.058594 39.433594-31.402344zm0 0" fill="#eb8d9a"/><path d="m166.140625 132.417969c-4.140625 0-7.5-3.355469-7.5-7.5v-13.925781c0-4.140626 3.359375-7.5 7.5-7.5 4.144531 0 7.5 3.359374 7.5 7.5v13.925781c0 4.144531-3.355469 7.5-7.5 7.5zm0 0" fill="#495059"/><path d="m333.925781 132.417969c-4.144531 0-7.5-3.355469-7.5-7.5v-13.925781c0-4.140626 3.355469-7.5 7.5-7.5 4.140625 0 7.5 3.359374 7.5 7.5v13.925781c0 4.144531-3.359375 7.5-7.5 7.5zm0 0" fill="#495059"/><path d="m250.03125 216.476562c-10.644531 0-20.765625-4.609374-27.769531-12.648437-2.722657-3.125-2.394531-7.863281.726562-10.582031 3.125-2.71875 7.863281-2.398438 10.582031.726562 4.15625 4.769532 10.15625 7.503906 16.464844 7.503906 6.304688 0 12.304688-2.734374 16.460938-7.503906 2.722656-3.125 7.457031-3.449218 10.582031-.726562 3.125 2.71875 3.449219 7.457031.726563 10.582031-7.003907 8.039063-17.128907 12.648437-27.773438 12.648437zm0 0" fill="#495059"/><path d="m381.777344 370.351562h-24.253906c-6.503907 0-11.777344-5.273437-11.777344-11.777343v-96.066407h47.808594v96.066407c0 6.503906-5.273438 11.777343-11.777344 11.777343zm0 0" fill="#88c8e9"/><path d="m250.03125 305.894531c-52.472656 0-97.402344-4.335937-142.816406-13.917969-11.285156-2.382812-18.398438-13.589843-15.65625-24.792968l3.488281-14.28125c2.605469-10.652344 13.183594-17.359375 23.917969-15.105469 41.484375 8.714844 82.734375 12.660156 131.066406 12.660156s89.582031-3.945312 131.070312-12.660156c10.730469-2.253906 21.308594 4.453125 23.914063 15.105469l3.492187 14.28125c2.738282 11.203125-4.371093 22.410156-15.660156 24.792968-45.410156 9.582032-90.339844 13.917969-142.816406 13.917969zm0 0" fill="#88c8e9"/><path d="m313.246094 143.789062c0-17.332031-49.425782-31.382812-66.898438-31.382812-17.46875 0-31.632812 14.050781-31.632812 31.382812 0 17.332032 14.164062 31.378907 31.632812 31.378907 17.472656 0 66.898438-14.046875 66.898438-31.378907zm0 0" fill="#f6c273"/><path d="m256.671875 174.164062c-8.480469-8.023437-10.484375-20.738281-10.484375-23.957031 0-4.140625-3.355469-7.5-7.5-7.5s-7.5 3.359375-7.5 7.5c0 4.316407 1.523438 14.285157 6.789062 23.84375 2.667969.726563 5.472657 1.121094 8.375 1.121094 2.75-.003906 6.296876-.351563 10.320313-1.007813zm0 0" fill="#e6b05e"/><path d="m269.234375 116.101562c-6.019531 8.679688-9.144531 18.414063-9.144531 25.167969 0 4.140625 3.355468 7.5 7.5 7.5 4.144531 0 7.5-3.359375 7.5-7.5 0-3.675781 2.960937-13.066406 9.417968-20.371093-5.019531-1.875-10.246093-3.492188-15.273437-4.796876zm0 0" fill="#e6b05e"/><g fill="#ade9f0"><path d="m222.257812 249.988281v55.46875c9.046876.289063 18.285157.4375 27.773438.4375 9.492188 0 18.730469-.148437 27.777344-.4375v-55.46875c-9.023438.3125-18.257813.46875-27.777344.46875-9.515625.003907-18.75-.15625-27.773438-.46875zm0 0"/><path d="m144.429688 242.539062c-8.519532-1.390624-16.988282-2.960937-25.464844-4.742187-10.734375-2.253906-21.3125 4.453125-23.914063 15.109375l-3.492187 14.277344c-2.742188 11.203125 4.371094 22.410156 15.660156 24.792968 8.675781 1.828126 17.332031 3.464844 26.03125 4.921876zm0 0"/><path d="m355.636719 242.539062c8.519531-1.390624 16.988281-2.960937 25.464843-4.742187 10.734376-2.253906 21.3125 4.453125 23.914063 15.109375l3.492187 14.277344c2.742188 11.203125-4.371093 22.410156-15.660156 24.792968-8.675781 1.828126-17.332031 3.464844-26.03125 4.921876zm0 0"/><path d="m381.777344 370.351562h-24.253906c-6.503907 0-11.777344-5.273437-11.777344-11.777343v-23.714844h47.808594v23.714844c0 6.503906-5.273438 11.777343-11.777344 11.777343zm0 0"/></g></svg>