<svg height="512pt" viewBox="0 0 512 512" width="512pt" xmlns="http://www.w3.org/2000/svg"><path d="m256 124.785156c-5.109375 0-10.214844-1.949218-14.113281-5.847656l-56.023438-56.023438c-7.796875-7.796874-7.796875-20.433593 0-28.226562 7.792969-7.796875 20.429688-7.796875 28.226563 0l41.910156 41.910156 41.910156-41.910156c7.796875-7.796875 20.433594-7.796875 28.226563 0 7.796875 7.792969 7.796875 20.429688 0 28.226562l-56.023438 56.023438c-3.898437 3.898438-9.003906 5.847656-14.113281 5.847656zm0 0" fill="#88c8e9"/><path d="m256 212.886719c-14.171875 0-25.660156-11.492188-25.660156-25.664063v-161.5625c0-14.171875 11.488281-25.660156 25.660156-25.660156s25.660156 11.488281 25.660156 25.660156v161.5625c0 14.171875-11.488281 25.664063-25.660156 25.664063zm0 0" fill="#ade9f0"/><path d="m304.632812 233.027344c-6.566406 0-13.136718-2.503906-18.144531-7.515625-10.023437-10.019531-10.023437-26.269531 0-36.289063l83.699219-83.699218c10.019531-10.023438 26.269531-10.023438 36.289062 0 10.023438 10.019531 10.023438 26.265624 0 36.289062l-83.699218 83.699219c-5.011719 5.011719-11.578125 7.515625-18.144532 7.515625zm0 0" fill="#ade9f0"/><path d="m48.800781 331.984375c-5.109375 0-10.214843-1.949219-14.113281-5.847656-7.792969-7.792969-7.792969-20.429688 0-28.226563l41.910156-41.910156-41.910156-41.910156c-7.796875-7.796875-7.796875-20.433594 0-28.226563 7.792969-7.796875 20.429688-7.796875 28.226562 0l56.023438 56.023438c7.792969 7.796875 7.792969 20.433593 0 28.226562l-56.023438 56.027344c-3.898437 3.894531-9.007812 5.84375-14.113281 5.84375zm0 0" fill="#88c8e9"/><path d="m187.222656 281.660156h-161.5625c-14.171875 0-25.660156-11.488281-25.660156-25.660156s11.488281-25.660156 25.660156-25.660156h161.5625c14.171875 0 25.664063 11.488281 25.664063 25.660156s-11.492188 25.660156-25.664063 25.660156zm0 0" fill="#ade9f0"/><path d="m207.367188 233.027344c-6.566407 0-13.136719-2.503906-18.144532-7.515625l-83.699218-83.699219c-10.023438-10.019531-10.023438-26.269531 0-36.289062 10.019531-10.023438 26.269531-10.023438 36.289062 0l83.699219 83.699218c10.023437 10.019532 10.023437 26.265625 0 36.289063-5.007813 5.011719-11.578125 7.515625-18.144531 7.515625zm0 0" fill="#ade9f0"/><path d="m312.023438 483.160156c-5.105469 0-10.214844-1.949218-14.113282-5.847656l-41.910156-41.910156-41.910156 41.910156c-7.796875 7.796875-20.433594 7.796875-28.226563 0-7.796875-7.792969-7.796875-20.429688 0-28.226562l56.023438-56.023438c7.792969-7.792969 20.433593-7.792969 28.226562 0l56.027344 56.023438c7.792969 7.796874 7.792969 20.433593 0 28.226562-3.898437 3.898438-9.007813 5.847656-14.117187 5.847656zm0 0" fill="#88c8e9"/><path d="m256 512c-14.171875 0-25.660156-11.488281-25.660156-25.660156v-161.5625c0-14.171875 11.488281-25.664063 25.660156-25.664063s25.660156 11.492188 25.660156 25.664063v161.5625c0 14.171875-11.488281 25.660156-25.660156 25.660156zm0 0" fill="#ade9f0"/><path d="m123.667969 413.992188c-6.566407 0-13.136719-2.503907-18.144531-7.515626-10.023438-10.019531-10.023438-26.265624 0-36.289062l83.699218-83.699219c10.019532-10.023437 26.269532-10.023437 36.289063 0 10.023437 10.019531 10.023437 26.269531 0 36.289063l-83.699219 83.699218c-5.007812 5.011719-11.578125 7.515626-18.144531 7.515626zm0 0" fill="#ade9f0"/><path d="m463.199219 331.984375c-5.105469 0-10.214844-1.949219-14.113281-5.847656l-56.023438-56.023438c-7.792969-7.796875-7.792969-20.433593 0-28.226562l56.023438-56.027344c7.796874-7.792969 20.433593-7.792969 28.226562 0 7.796875 7.796875 7.796875 20.433594 0 28.230469l-41.910156 41.910156 41.910156 41.910156c7.796875 7.796875 7.796875 20.433594 0 28.226563-3.898438 3.898437-9.003906 5.847656-14.113281 5.847656zm0 0" fill="#88c8e9"/><path d="m486.339844 281.660156h-161.5625c-14.171875 0-25.664063-11.488281-25.664063-25.660156s11.492188-25.660156 25.664063-25.660156h161.5625c14.171875 0 25.660156 11.488281 25.660156 25.660156s-11.488281 25.660156-25.660156 25.660156zm0 0" fill="#ade9f0"/><path d="m388.332031 413.992188c-6.566406 0-13.136719-2.503907-18.144531-7.515626l-83.699219-83.699218c-10.023437-10.019532-10.023437-26.265625 0-36.289063 10.019531-10.023437 26.269531-10.023437 36.289063 0l83.699218 83.699219c10.023438 10.019531 10.023438 26.269531 0 36.289062-5.007812 5.011719-11.578124 7.515626-18.144531 7.515626zm0 0" fill="#ade9f0"/><g fill="#98dae3"><path d="m256 139.675781c-8.816406 0-17.402344.992188-25.660156 2.859375v44.6875c0 14.171875 11.488281 25.664063 25.660156 25.664063s25.660156-11.492188 25.660156-25.664063v-44.6875c-8.257812-1.867187-16.84375-2.859375-25.660156-2.859375zm0 0"/><path d="m173.746094 173.746094c-6.234375 6.234375-11.605469 13.007812-16.125 20.167968l31.601562 31.597657c10.019532 10.023437 26.269532 10.023437 36.289063 0 10.023437-10.019531 10.023437-26.269531 0-36.289063l-31.597657-31.601562c-7.160156 4.519531-13.933593 9.890625-20.167968 16.125zm0 0"/><path d="m139.675781 256c0 8.816406.992188 17.402344 2.859375 25.660156h44.6875c14.171875 0 25.664063-11.488281 25.664063-25.660156s-11.492188-25.660156-25.664063-25.660156h-44.6875c-1.867187 8.257812-2.859375 16.84375-2.859375 25.660156zm0 0"/><path d="m173.746094 338.253906c6.234375 6.234375 13.007812 11.605469 20.167968 16.125l31.597657-31.601562c10.023437-10.019532 10.023437-26.269532 0-36.289063-10.019531-10.023437-26.269531-10.019531-36.289063 0l-31.601562 31.601563c4.519531 7.15625 9.890625 13.929687 16.125 20.164062zm0 0"/><path d="m256 372.324219c8.816406 0 17.402344-.992188 25.660156-2.859375v-44.6875c0-14.171875-11.488281-25.664063-25.660156-25.664063s-25.660156 11.492188-25.660156 25.664063v44.6875c8.257812 1.867187 16.84375 2.859375 25.660156 2.859375zm0 0"/><path d="m338.253906 338.253906c6.234375-6.234375 11.605469-13.007812 16.125-20.167968l-31.601562-31.597657c-10.019532-10.023437-26.269532-10.023437-36.289063 0-10.023437 10.019531-10.019531 26.269531 0 36.289063l31.601563 31.601562c7.15625-4.519531 13.929687-9.890625 20.164062-16.125zm0 0"/><path d="m372.324219 256c0-8.816406-.992188-17.402344-2.859375-25.660156h-44.6875c-14.171875 0-25.664063 11.488281-25.664063 25.660156s11.492188 25.660156 25.664063 25.660156h44.6875c1.867187-8.257812 2.859375-16.84375 2.859375-25.660156zm0 0"/><path d="m338.253906 173.746094c-6.234375-6.234375-13.007812-11.605469-20.167968-16.125l-31.597657 31.601562c-10.023437 10.019532-10.023437 26.269532 0 36.289063 10.019531 10.023437 26.269531 10.023437 36.289063 0l31.601562-31.597657c-4.519531-7.160156-9.890625-13.933593-16.125-20.167968zm0 0"/></g><path d="m256 350.4375c-52.074219 0-94.4375-42.363281-94.4375-94.4375s42.363281-94.4375 94.4375-94.4375 94.4375 42.363281 94.4375 94.4375-42.363281 94.4375-94.4375 94.4375zm0-137.550781c-23.773438 0-43.113281 19.339843-43.113281 43.113281s19.339843 43.113281 43.113281 43.113281 43.113281-19.339843 43.113281-43.113281-19.339843-43.113281-43.113281-43.113281zm0 0" fill="#88c8e9"/><path d="m256 350.4375c28.152344 0 53.464844-12.386719 70.78125-31.992188-35.964844 3.703126-63.601562-5.25-82.808594-21.050781-17.9375-5.21875-31.085937-21.792969-31.085937-41.394531 0-2.839844.28125-5.617188.808593-8.304688-6.453124-28.300781-.144531-59.632812 19.082032-83.242187-40.882813 10.375-71.214844 47.484375-71.214844 91.546875 0 52.074219 42.363281 94.4375 94.4375 94.4375zm0 0" fill="#73b6d9"/></svg>