<svg height="512pt" viewBox="-71 0 512 512.12554" width="512pt" xmlns="http://www.w3.org/2000/svg"><path d="m317.855469 196.0625-.882813 119.789062v.085938c-1.851562 14.214844-3.53125 32.929688-4.855468 45.289062-3.53125 32.484376-4.765626 69.207032-24.273438 97.101563-12.359375 17.65625-34.253906 27.1875-51.203125 39.8125-14.515625 9.972656-31.933594 14.847656-49.519531 13.859375h-3.355469c-17.585937.988281-35.003906-3.886719-49.523437-13.859375-16.949219-12.625-38.839844-22.15625-51.199219-39.8125-19.511719-27.894531-20.746094-64.617187-24.277344-97.101563-1.324219-12.359374-3-31.074218-4.855469-45.289062v-.085938l-.882812-119.789062c2.820312-.273438 5.660156.117188 8.300781 1.144531 39.550781 15.46875 81.644531 23.433594 124.113281 23.484375 42.472656-.050781 84.5625-8.015625 124.117188-23.484375 2.636718-1.027343 5.480468-1.417969 8.296875-1.144531zm0 0" fill="#fdd7ad"/><path d="m48.085938 308.964844h-3.886719c-24.375 0-44.136719-19.761719-44.136719-44.136719v-8.828125c-.0351562-21.75 15.839844-40.253906 37.339844-43.519531zm0 0" fill="#285680"/><path d="m333.480469 212.480469c21.5 3.265625 37.378906 21.769531 37.339843 43.519531v8.828125c0 24.375-19.761718 44.136719-44.136718 44.136719h-3.882813zm0 0" fill="#285680"/><path d="m97.167969 406.070312c-4.878907 0-8.828125-3.953124-8.828125-8.828124-1.285156-23.546876-7.855469-46.5-19.21875-67.160157-1.554688-2.808593-1.46875-6.234375.230468-8.957031 1.699219-2.722656 4.742188-4.308594 7.945313-4.140625 3.207031.164063 6.066406 2.058594 7.476563 4.941406 12.671874 23.179688 19.929687 48.929688 21.21875 75.316407 0 4.875-3.949219 8.828124-8.824219 8.828124zm0 0" fill="#f09372"/><path d="m273.71875 406.070312c-4.875 0-8.828125-3.953124-8.828125-8.828124 1.28125-26.386719 8.523437-52.136719 21.1875-75.316407 1.40625-2.882812 4.269531-4.777343 7.472656-4.941406 3.203125-.167969 6.246094 1.417969 7.945313 4.140625 1.699218 2.722656 1.789062 6.148438.230468 8.957031-11.351562 20.664063-17.90625 43.617188-19.179687 67.160157 0 4.875-3.953125 8.828124-8.828125 8.828124zm0 0" fill="#f09372"/><path d="m333.570312 214.863281-5.210937 77.242188c-.554687 9.097656-4.640625 17.617187-11.386719 23.746093v.085938c-4.332031 3.941406-9.582031 6.734375-15.269531 8.125l-49.257813 12.269531c-17.878906 4.480469-36.1875-5.558593-42.019531-23.039062l-1.765625-5.296875c-3.355468-9.96875-12.699218-16.683594-23.21875-16.683594-10.515625 0-19.859375 6.714844-23.214844 16.683594l-1.765624 5.296875c-5.832032 17.480469-24.144532 27.519531-42.019532 23.039062l-49.257812-12.269531c-5.691406-1.390625-10.941406-4.183594-15.273438-8.125v-.085938c-6.746094-6.128906-10.832031-14.648437-11.386718-23.746093l-5.207032-77.242188c-.597656-9.449219 6.304688-17.714843 15.710938-18.800781 2.820312-.273438 5.660156.117188 8.300781 1.144531 39.550781 15.46875 81.644531 23.433594 124.113281 23.484375 42.472656-.050781 84.5625-8.015625 124.117188-23.484375 2.636718-1.027343 5.480468-1.417969 8.296875-1.144531 9.40625 1.085938 16.3125 9.351562 15.714843 18.800781zm0 0" fill="#4482c3"/><path d="m199.441406 397.242188h-28c-4.683594.011718-9.179687-1.851563-12.480468-5.171876l-15.070313-15.070312c-3.34375-3.464844-3.296875-8.96875.109375-12.375 3.402344-3.40625 8.910156-3.453125 12.371094-.109375l15.070312 15.070313h28l15.070313-15.070313c3.464843-3.34375 8.96875-3.296875 12.375.109375s3.453125 8.910156.105469 12.375l-15.066407 15.070312c-3.304687 3.320313-7.796875 5.183594-12.484375 5.171876zm0 0" fill="#f09372"/><path d="m247.234375 459.035156c-2.339844 0-4.585937-.929687-6.238281-2.585937l-15.070313-15.070313h-80.96875l-15.066406 15.070313c-3.464844 3.34375-8.96875 3.296875-12.375-.109375s-3.453125-8.910156-.109375-12.375l15.070312-15.066406c3.300782-3.324219 7.796876-5.1875 12.480469-5.175782h80.96875c4.683594-.011718 9.179688 1.851563 12.480469 5.175782l15.070312 15.066406c2.523438 2.527344 3.277344 6.320312 1.914063 9.621094-1.367187 3.296874-4.585937 5.449218-8.15625 5.449218zm0 0" fill="#802d40"/><path d="m317.855469 132.414062v63.648438c-2.816407-.273438-5.660157.117188-8.296875 1.144531-39.554688 15.46875-81.644532 23.433594-124.117188 23.484375-42.46875-.050781-84.5625-8.015625-124.113281-23.484375-2.640625-1.027343-5.480469-1.417969-8.300781-1.144531v-63.648438c0-73.128906 59.285156-132.414062 132.414062-132.414062s132.414063 59.285156 132.414063 132.414062zm0 0" fill="#285680"/><path d="m85.0625 241.1875 56.496094 12.5625c2.53125.558594 4.6875 2.203125 5.898437 4.496094 1.210938 2.289062 1.351563 4.996094.386719 7.402344l-11.15625 27.894531c-1.539062 3.851562-5.554688 6.113281-9.648438 5.429687l-39.722656-6.621094c-3.722656-.621093-6.636718-3.535156-7.257812-7.253906l-5.640625-33.839844c-.488281-2.898437.503906-5.851562 2.640625-7.871093 2.132812-2.019531 5.136718-2.84375 8.003906-2.199219zm0 0" fill="#2c3e50"/><path d="m285.820312 241.1875-56.496093 12.5625c-2.53125.558594-4.6875 2.203125-5.894531 4.496094-1.210938 2.289062-1.355469 4.996094-.390626 7.402344l11.15625 27.894531c1.542969 3.851562 5.558594 6.113281 9.648438 5.429687l39.726562-6.621094c3.71875-.621093 6.636719-3.535156 7.253907-7.253906l5.640625-33.839844c.488281-2.898437-.5-5.851562-2.636719-7.871093s-5.140625-2.84375-8.007813-2.199219zm0 0" fill="#2c3e50"/><g fill="#90bae1"><path d="m114.820312 141.242188c-1.367187 0-2.714843-.316407-3.9375-.925782l-35.308593-17.65625c-4.359375-2.183594-6.128907-7.488281-3.945313-11.847656 2.179688-4.359375 7.484375-6.128906 11.847656-3.945312l35.308594 17.65625c3.660156 1.832031 5.578125 5.941406 4.632813 9.925781-.941407 3.984375-4.503907 6.796875-8.597657 6.792969zm0 0"/><path d="m114.820312 176.550781c-1.367187 0-2.714843-.316406-3.9375-.925781l-35.308593-17.65625c-2.820313-1.410156-4.675781-4.21875-4.863281-7.367188-.1875-3.148437 1.316406-6.160156 3.949218-7.898437 2.632813-1.738281 5.992188-1.9375 8.816406-.527344l35.308594 17.65625c3.660156 1.835938 5.578125 5.945313 4.632813 9.929688-.941407 3.980469-4.503907 6.792969-8.597657 6.789062zm0 0"/><path d="m256.0625 141.242188c-4.097656.007812-7.664062-2.808594-8.609375-6.796876-.941406-3.988281.984375-8.105468 4.65625-9.933593l35.308594-17.652344c4.363281-2.183594 9.664062-.417969 11.847656 3.945313 2.179687 4.359374.414063 9.664062-3.945313 11.847656l-35.3125 17.652344c-1.222656.613281-2.574218.933593-3.945312.9375zm0 0"/><path d="m256.0625 176.550781c-4.097656.007813-7.664062-2.804687-8.609375-6.796875-.941406-3.988281.984375-8.101562 4.65625-9.929687l35.308594-17.65625c4.363281-2.179688 9.664062-.414063 11.847656 3.945312 2.179687 4.363281.414063 9.664063-3.945313 11.847657l-35.3125 17.65625c-1.222656.613281-2.574218.933593-3.945312.933593zm0 0"/></g><path d="m283.339844 43.34375-.792969.792969-26.484375 52.964843v116.171876c-17.445312 3.6875-35.15625 5.988281-52.964844 6.886718v-149.539062l26.480469-61.792969.355469-1.148437c18.484375 6.589843 35.253906 17.238281 49.082031 31.160156 1.5 1.503906 2.910156 3.003906 4.324219 4.503906zm0 0" fill="#b0d3f0"/><path d="m167.785156 70.621094v149.539062c-17.808594-.898437-35.515625-3.199218-52.964844-6.886718v-116.171876l-26.480468-52.964843-.796875-.792969c14.578125-16.125 32.929687-28.378906 53.40625-35.664062l.355469 1.148437zm0 0" fill="#b0d3f0"/></svg>