<svg height="512pt" viewBox="-62 0 512 512.20732" width="512pt" xmlns="http://www.w3.org/2000/svg"><path d="m338.972656 203.210938c12.625-.792969 74.59375-.882813 38.222656 70.710937-8.070312 14.75-12.859374 31.070313-14.035156 47.84375-.753906 5.710937-3.953125 10.8125-8.765625 13.980469-4.808593 3.167968-10.761719 4.089844-16.304687 2.527344l-4.945313-1.148438h-277.714843l-4.941407 1.148438c-5.546875 1.5625-11.496093.640624-16.308593-2.527344-4.808594-3.167969-8.007813-8.269532-8.761719-13.980469-1.179688-16.773437-5.964844-33.09375-14.039063-47.84375-36.367187-71.683594 25.777344-71.503906 38.3125-70.800781zm0 0" fill="#f09372"/><path d="m332.441406 380.292969c-3.996094 10.628906-10.332031 20.222656-18.539062 28.070312-18.007813 19.597657-42.902344 33.457031-52.699219 58.96875-5.035156 13.066407-6.621094 25.863281-19.421875 34.339844-14.527344 7.886719-31.003906 11.46875-47.492188 10.328125-16.492187 1.140625-32.964843-2.441406-47.492187-10.328125-12.800781-8.476563-14.390625-21.273437-19.421875-34.339844-9.796875-25.511719-34.691406-39.371093-52.699219-58.96875-8.207031-7.847656-14.542969-17.441406-18.539062-28.070312-2.957031-9.652344-3.832031-19.824219-2.558594-29.835938.441406-3.710937 1.058594-8.386719 1.851563-13.332031 1.207031-7.792969 3.070312-15.46875 5.5625-22.953125l.882812-118.109375c2.816406-.273438 5.660156.117188 8.296875 1.144531 39.554687 15.46875 81.644531 23.433594 124.117187 23.484375 42.46875-.050781 84.5625-8.015625 124.113282-23.484375 2.640625-1.027343 5.480468-1.417969 8.300781-1.144531l.882813 118.109375c2.492187 7.484375 4.351562 15.160156 5.558593 22.953125.796875 4.945312 1.414063 9.621094 1.855469 13.332031 1.269531 10.011719.398438 20.183594-2.558594 29.835938zm0 0" fill="#fdd7ad"/><path d="m342.414062 214.863281-5.207031 77.242188c-.941406 15.335937-11.742187 28.277343-26.660156 31.957031l-49.257813 12.269531c-17.875 4.480469-36.1875-5.558593-42.019531-23.039062l-1.765625-5.296875c-3.355468-9.96875-12.699218-16.683594-23.214844-16.683594-10.519531 0-19.863281 6.714844-23.21875 16.683594l-1.765624 5.296875c-5.832032 17.480469-24.140626 27.519531-42.019532 23.039062l-49.257812-12.269531c-14.917969-3.679688-25.714844-16.621094-26.65625-31.957031l-5.210938-77.242188c-.597656-9.449219 6.308594-17.714843 15.714844-18.800781 2.816406-.273438 5.660156.117188 8.296875 1.144531 39.554687 15.46875 81.644531 23.433594 124.117187 23.484375 42.46875-.050781 84.5625-8.015625 124.113282-23.484375 2.640625-1.027343 5.480468-1.417969 8.300781-1.144531 9.40625 1.085938 16.308594 9.351562 15.710937 18.800781zm0 0" fill="#7ed09e"/><path d="m326.703125 132.414062v63.648438c-2.820313-.273438-5.660156.117188-8.300781 1.144531-39.550782 15.46875-81.644532 23.433594-124.113282 23.484375-42.472656-.050781-84.5625-8.015625-124.117187-23.484375-2.636719-1.027343-5.480469-1.417969-8.296875-1.144531v-63.648438c0-73.128906 59.285156-132.414062 132.414062-132.414062 73.128907 0 132.414063 59.285156 132.414063 132.414062zm0 0" fill="#4fba6f"/><path d="m194.289062 388.414062c-8 .023438-15.679687-3.152343-21.320312-8.828124l-11.421875-11.421876c-3.34375-3.464843-3.296875-8.96875.109375-12.375 3.402344-3.40625 8.910156-3.453124 12.371094-.109374l11.433594 11.433593c4.941406 4.707031 12.710937 4.707031 17.65625 0l11.421874-11.421875c3.464844-3.347656 8.96875-3.300781 12.375.105469s3.453126 8.910156.105469 12.375l-11.429687 11.414063c-5.636719 5.671874-13.308594 8.851562-21.300782 8.828124zm0 0" fill="#f09372"/><path d="m238.425781 423.722656h-88.273437c-4.878906 0-8.828125-3.949218-8.828125-8.824218 0-4.878907 3.949219-8.828126 8.828125-8.828126h88.273437c4.875 0 8.828125 3.949219 8.828125 8.828126 0 4.875-3.953125 8.824218-8.828125 8.824218zm0 0" fill="#802d40"/><path d="m203.117188 459.035156h-26.484376c-4.875 0-8.828124-3.953125-8.828124-8.828125s3.953124-8.828125 8.828124-8.828125h26.484376c4.875 0 8.828124 3.953125 8.828124 8.828125s-3.953124 8.828125-8.828124 8.828125zm0 0" fill="#f09372"/><g fill="#bbd1b5"><path d="m88.355469 256c-3.566407 0-6.785157-2.152344-8.152344-5.449219s-.609375-7.09375 1.914063-9.621093l8.828124-8.824219c3.460938-3.347657 8.96875-3.300781 12.375.105469 3.402344 3.40625 3.449219 8.910156.105469 12.375l-8.828125 8.828124c-1.65625 1.65625-3.898437 2.585938-6.242187 2.585938zm0 0"/><path d="m88.355469 300.136719c-3.566407 0-6.785157-2.148438-8.152344-5.449219-1.367187-3.296875-.609375-7.09375 1.914063-9.617188l44.136718-44.140624c3.464844-3.34375 8.96875-3.296876 12.375.109374s3.453125 8.910157.109375 12.375l-44.140625 44.136719c-1.65625 1.65625-3.898437 2.585938-6.242187 2.585938zm0 0"/><path d="m247.253906 256c-3.570312 0-6.789062-2.152344-8.152344-5.449219-1.367187-3.296875-.613281-7.09375 1.910157-9.621093l8.828125-8.824219c3.464844-3.347657 8.96875-3.300781 12.375.105469s3.453125 8.910156.109375 12.375l-8.828125 8.828124c-1.65625 1.65625-3.902344 2.585938-6.242188 2.585938zm0 0"/><path d="m247.253906 300.136719c-3.570312 0-6.789062-2.148438-8.152344-5.449219-1.367187-3.296875-.613281-7.09375 1.910157-9.617188l44.140625-44.140624c3.460937-3.34375 8.96875-3.296876 12.375.109374 3.402344 3.40625 3.449218 8.910157.105468 12.375l-44.136718 44.136719c-1.65625 1.65625-3.902344 2.585938-6.242188 2.585938zm0 0"/></g><path d="m194.289062 176.550781c-23.691406-.355469-42.875-19.351562-43.464843-43.035156-.585938-23.6875 17.632812-43.613281 41.273437-45.144531 1.675782-.179688 3.363282-.164063 5.035156.054687 14 1.496094 24.382813 13.691407 23.628907 27.757813-.757813 14.0625-12.390625 25.074218-26.472657 25.058594-4.875 0-8.828124-3.953126-8.828124-8.828126s3.953124-8.828124 8.828124-8.828124c4.671876 0 8.535157-3.640626 8.808594-8.304688.277344-4.664062-3.128906-8.738281-7.769531-9.289062l-1.15625-.0625h-.476563c-14.625.109374-26.394531 12.050781-26.285156 26.679687.105469 14.625 12.050782 26.394531 26.675782 26.289063l3.390624-.167969h.617188c20.636719-2.390625 37.121094-18.300781 40.234375-38.84375 2.1875-14.460938-1.890625-29.167969-11.210937-40.4375-9.992188-11.511719-24.65625-17.882813-39.890626-17.328125-25.890624 1.492187-54.730468 23.507812-54.730468 52.636718 0 4.875-3.953125 8.828126-8.828125 8.828126s-8.828125-3.953126-8.828125-8.828126c0-39.574218 36.898437-68.28125 71.363281-70.265624 20.773437-.914063 40.816406 7.761718 54.367187 23.53125 12.703126 15.164062 18.238282 35.066406 15.195313 54.609374-4.371094 30.683594-30.484375 53.585938-61.476563 53.917969zm0 0" fill="#d25627"/></svg>