<svg height="512pt" viewBox="-35 0 512 512.12852" width="512pt" xmlns="http://www.w3.org/2000/svg"><path d="m353.167969 150.597656-.265625 147.511719c-1.941406 17.742187-3.617188 50.492187-4.941406 63.117187-3.53125 32.484376-4.769532 69.207032-24.367188 97.101563-12.445312 17.65625-34.425781 27.1875-51.464844 39.8125-14.578125 9.988281-32.054687 14.859375-49.699218 13.859375h-3.351563c-17.589844.988281-35.003906-3.886719-49.523437-13.859375-16.949219-12.625-38.84375-22.15625-51.199219-39.8125-19.511719-27.894531-20.746094-64.617187-24.277344-97.101563-1.324219-12.535156-3-44.933593-4.945313-62.765624l-.792968-147.863282c40.050781 23.667969 85.902344 35.714844 132.414062 34.78125 46.511719.933594 92.363282-11.113281 132.414063-34.78125zm0 0" fill="#804169"/><path d="m323.417969 220.691406-7.148438 93.480469c-5.589843 17.65625-6.710937 55.90625-6.789062 80.96875-.007813 2.066406-.757813 4.0625-2.109375 5.621094l-36.089844 42.269531c-1.582031 1.859375-3.867188 2.976562-6.308594 3.089844-2.441406.109375-4.820312-.792969-6.570312-2.5l-8.421875-8.210938c-1.652344-1.609375-3.871094-2.507812-6.175781-2.503906h-45.90625c-2.308594 0-4.527344.90625-6.179688 2.523438l-8.3125 8.148437c-1.75 1.714844-4.132812 2.625-6.582031 2.515625-2.445313-.109375-4.738281-1.234375-6.324219-3.097656l-35.929688-42.222656c-1.347656-1.566407-2.089843-3.558594-2.09375-5.625-.078124-24.972657-1.109374-63.019532-6.609374-80.796876l7.589843-107.078124zm0 0" fill="#fdd7ad"/><path d="m353.167969 132.414062v18.183594c-40.050781 23.667969-85.902344 35.714844-132.414063 34.78125-46.511718.933594-92.363281-11.113281-132.414062-34.78125v-18.183594c0-73.128906 59.285156-132.414062 132.414062-132.414062s132.414063 59.285156 132.414063 132.414062zm0 0" fill="#804169"/><path d="m441.445312 61.527344c0 7.679687-.179687 15.449218-.53125 23.21875-1.128906 24.925781-4.078124 49.742187-8.828124 74.238281-5.21875 29.269531-14.707032 57.613281-28.160157 84.128906-11.871093 22.503907-29.472656 41.472657-51.023437 54.996094-13.902344 8.933594-29.398438 15.109375-45.636719 18.183594-19.070313 3.53125-41.753906 1.675781-54.910156-14.917969-8.5625-10.949219-15.269531-29.839844-30.367188-31.957031-.441406 0-.792969-.089844-1.234375-.089844s-.792968.089844-1.234375.089844c-15.097656 2.117187-21.804687 21.007812-30.367187 31.957031-13.152344 16.59375-35.839844 18.449219-54.910156 14.917969-16.011719-3.085938-31.3125-9.136719-45.109376-17.832031-21.757812-13.585938-39.542968-32.679688-51.550781-55.347657-13.453125-26.515625-22.941406-54.859375-28.160156-84.128906-4.75-24.496094-7.699219-49.3125-8.828125-74.238281-.351562-7.769532-.53125-15.539063-.53125-23.21875.425781-2.835938.457031-5.71875.089844-8.5625 18.980468 40.625 49.695312 74.632812 88.1875 97.632812 40.050781 23.667969 85.902344 35.714844 132.414062 34.78125 46.511719.933594 92.363282-11.113281 132.414063-34.78125 38.492187-23 69.207031-57.007812 88.1875-97.632812-.367188 2.84375-.335938 5.726562.089843 8.5625zm0 0" fill="#e4c05c"/><path d="m117.472656 203.300781 60.539063 15.261719c2.855469.960938 5.191406 3.050781 6.460937 5.78125 1.273438 2.730469 1.367188 5.867188.265625 8.667969l-11.953125 33.898437c-1.316406 4.46875-5.722656 7.28125-10.328125 6.59375l-42.550781-8.050781c-4.199219-.992187-7.316406-4.53125-7.765625-8.828125l-6.039063-41.117188c-.753906-3.257812.160157-6.679687 2.441407-9.125 2.277343-2.449218 5.625-3.605468 8.929687-3.082031zm0 0" fill="#2c3e50"/><path d="m324.035156 203.300781-30.269531 7.632813-30.269531 7.636718c-2.820313.777344-5.136719 2.785157-6.3125 5.464844-1.300782 2.832032-1.449219 6.058594-.414063 8.996094l11.953125 33.898438c.742188 2.199218 2.199219 4.089843 4.140625 5.367187 1.824219 1.1875 4.039063 1.632813 6.179688 1.234375l21.273437-4.023438 21.273438-4.027343c1.988281-.410157 3.78125-1.472657 5.09375-3.019531 1.425781-1.640626 2.347656-3.664063 2.648437-5.816407l6.039063-41.117187c.550781-3.449219-.488282-6.960938-2.824219-9.554688-2.125-2.398437-5.398437-3.425781-8.511719-2.671875zm0 0" fill="#2c3e50"/><path d="m229.582031 361.929688h-17.65625c-5.554687-.011719-10.78125-2.625-14.125-7.0625l-10.589843-14.121094c-2.925782-3.902344-2.136719-9.433594 1.761718-12.359375 3.902344-2.925781 9.433594-2.136719 12.359375 1.765625l10.59375 14.125h17.65625l10.59375-14.125c2.925781-3.902344 8.457031-4.691406 12.359375-1.765625 3.898438 2.925781 4.6875 8.457031 1.761719 12.359375l-10.589844 14.121094c-3.34375 4.4375-8.570312 7.054687-14.125 7.0625zm0 0" fill="#f09372"/><path d="m247.238281 406.070312h-52.96875c-4.875 0-8.824219-3.953124-8.824219-8.828124s3.949219-8.828126 8.824219-8.828126h52.96875c4.875 0 8.824219 3.953126 8.824219 8.828126s-3.949219 8.828124-8.824219 8.828124zm0 0" fill="#802d40"/><g fill="#b19046"><path d="m19.988281 178.757812c-3.757812.003907-7.496093-.542968-11.097656-1.625-4.589844-1.480468-7.140625-6.375-5.730469-10.988281 1.414063-4.609375 6.269532-7.234375 10.90625-5.886719 8.773438 2.359376 18.121094-.609374 23.921875-7.601562 3.464844-3.347656 8.96875-3.296875 12.375.105469 3.402344 3.40625 3.453125 8.914062.105469 12.375-7.867188 8.523437-18.882812 13.445312-30.480469 13.621093zm0 0"/><path d="m26.546875 220.691406c-4.875 0-8.828125-3.953125-8.828125-8.828125s3.953125-8.828125 8.828125-8.828125c14.019531-.464844 27.4375-5.792968 37.957031-15.070312 3.464844-3.34375 8.972656-3.296875 12.375.109375 3.40625 3.402343 3.453125 8.910156.109375 12.375-13.824219 12.605469-31.738281 19.792969-50.441406 20.242187zm0 0"/><path d="m45.253906 264.738281c-3.15625.105469-6.125-1.484375-7.789062-4.164062-1.667969-2.679688-1.777344-6.046875-.289063-8.828125s4.347657-4.558594 7.503907-4.660156c11-1.476563 21.128906-6.789063 28.589843-15.007813 3.464844-3.347656 8.972657-3.296875 12.375.105469 3.40625 3.40625 3.453125 8.910156.109375 12.375-10.476562 11.257812-24.628906 18.402344-39.910156 20.136718zm0 0"/><path d="m421.519531 178.757812c-11.585937-.183593-22.59375-5.105468-30.453125-13.621093-3.347656-3.460938-3.300781-8.96875.105469-12.375 3.40625-3.402344 8.910156-3.453125 12.375-.105469 5.800781 6.996094 15.148437 9.964844 23.921875 7.601562 3.050781-1.042968 6.425781-.339843 8.808594 1.835938 2.378906 2.171875 3.382812 5.472656 2.621094 8.601562-.761719 3.132813-3.167969 5.601563-6.28125 6.4375-3.601563 1.082032-7.339844 1.628907-11.097657 1.625zm0 0"/><path d="m414.960938 220.691406c-18.683594-.464844-36.570313-7.652344-50.378907-20.242187-3.34375-3.464844-3.296875-8.972657.105469-12.375 3.40625-3.40625 8.914062-3.453125 12.375-.109375 10.472656 9.316406 23.886719 14.652344 37.898438 15.070312 4.875 0 8.828124 3.953125 8.828124 8.828125s-3.953124 8.828125-8.828124 8.828125zm0 0"/><path d="m396.253906 264.738281h-.582031c-15.277344-1.734375-29.433594-8.875-39.910156-20.132812-3.34375-3.464844-3.296875-8.972657.109375-12.375 3.40625-3.40625 8.910156-3.453125 12.375-.109375 7.460937 8.21875 17.589844 13.535156 28.589844 15.007812 4.878906.15625 8.699218 4.238282 8.542968 9.113282-.160156 4.875-4.238281 8.699218-9.113281 8.542968zm0 0"/></g><path d="m353.167969 132.414062v18.183594c-29.636719 17.753906-62.761719 28.898438-97.105469 32.664063v-77.332031l62.589844-62.585938c22.257812 24.316406 34.574218 56.105469 34.515625 89.070312zm0 0" fill="#cc66a1"/><path d="m185.445312 105.929688v77.332031c-34.34375-3.765625-67.46875-14.910157-97.105468-32.664063v-18.183594c-.058594-32.964843 12.257812-64.753906 34.515625-89.070312zm0 0" fill="#cc66a1"/></svg>