<svg height="512pt" viewBox="-36 0 512 512.03962" width="512pt" xmlns="http://www.w3.org/2000/svg"><path d="m377.257812 146.714844c25.6875.175781 89.863282 7.0625 48.992188 70.886718-10.011719 14.113282-16.132812 30.613282-17.742188 47.84375-.441406 11.210938-15.890624 19.15625-31.601562 16.507813l-1.238281-.175781h-311.789063l-1.234375.175781c-15.714843 2.648437-31.164062-5.296875-31.605469-16.507813-1.609374-17.230468-7.730468-33.730468-17.742187-47.84375-40.871094-63.824218 23.304687-70.710937 48.992187-70.886718zm0 0" fill="#f09372"/><path d="m374.875 162.25c4.148438-25.246094 8.472656-58.878906 12.625-82.800781-8.828125-79.449219-167.726562-79.449219-167.726562-79.449219s-158.894532 0-167.722657 79.449219c4.148438 23.921875 8.472657 57.554687 12.621094 82.800781zm0 0" fill="#fdd7ad"/><path d="m371.078125 253.261719c.53125 1.148437.882813 2.296875 1.324219 3.445312 7.769531 21.804688 1.414062 41.046875-7.503906 61.085938-10.945313 24.539062-27.453126 46.609375-34.957032 72.652343-3.46875 14.386719-2.703125 29.46875 2.207032 43.429688 5.210937 16.773438 15.007812 37.871094 2.121093 53.496094-22.160156 26.746094-65.589843 24.628906-96.839843 24.628906h-35.3125c-31.246094 0-74.679688 2.117188-96.835938-24.628906-12.890625-15.625-3.089844-36.722656 2.117188-53.496094 4.910156-13.960938 5.679687-29.042969 2.207031-43.429688-7.503907-26.042968-24.011719-48.113281-34.957031-72.652343-8.914063-20.039063-15.273438-39.28125-7.503907-61.085938.441407-1.148437.796875-2.296875 1.324219-3.445312l151.304688-79.445313zm0 0" fill="#fdd7ad"/><path d="m255.085938 476.691406h-70.621094c-4.875 0-8.828125-3.953125-8.828125-8.828125s3.953125-8.828125 8.828125-8.828125h70.621094c4.875 0 8.824218 3.953125 8.824218 8.828125s-3.949218 8.828125-8.824218 8.828125zm0 0" fill="#f09372"/><path d="m182.433594 132.589844 2.03125-.175782v-32.574218c.011718-2.753906-1.261719-5.355469-3.445313-7.035156-2.179687-1.679688-5.019531-2.242188-7.679687-1.527344l-76.976563 21.007812c-2.335937.648438-4.304687 2.21875-5.457031 4.351563-1.148438 2.132812-1.378906 4.644531-.632812 6.949219l5.5625 16.507812zm0 0" fill="#af8066"/><path d="m343.714844 140.09375 5.558594-16.507812c.746093-2.304688.515624-4.816407-.632813-6.949219-1.148437-2.132813-3.121094-3.703125-5.457031-4.351563l-76.976563-21.007812c-2.660156-.714844-5.5-.152344-7.679687 1.527344-2.183594 1.679687-3.457032 4.28125-3.441406 7.035156v32.574218l2.027343.175782zm0 0" fill="#af8066"/><g fill="#f09372"><path d="m219.773438 326.621094c-39.617188 0-50.882813-20.234375-52.039063-22.539063-2.117187-4.316406-.386719-9.535156 3.886719-11.734375 4.277344-2.199218 9.527344-.574218 11.808594 3.660156.496093.828126 8.097656 12.957032 36.34375 12.957032 4.875 0 8.828124 3.953125 8.828124 8.828125s-3.953124 8.828125-8.828124 8.828125zm0 0"/><path d="m219.773438 326.621094c-4.875 0-8.828126-3.953125-8.828126-8.828125s3.953126-8.828125 8.828126-8.828125c28.59375 0 36.042968-12.453125 36.351562-12.984375 2.378906-4.171875 7.621094-5.726563 11.890625-3.53125 4.226563 2.1875 5.914063 7.359375 3.796875 11.617187-1.15625 2.320313-12.421875 22.554688-52.039062 22.554688zm0 0"/><path d="m228.601562 273.65625h-17.65625c-4.875 0-8.828124-3.953125-8.828124-8.828125s3.953124-8.828125 8.828124-8.828125h17.65625c4.875 0 8.828126 3.953125 8.828126 8.828125s-3.953126 8.828125-8.828126 8.828125zm0 0"/></g><path d="m272.652344 423.371094c-34.191406 12.242187-71.566406 12.242187-105.753906 0 5.144531-20.859375 1.945312-42.902344-8.917969-61.441406l.707031-1.585938c19.410156 7.703125 40.21875 11.25 61.085938 10.414062 20.867187.835938 41.675781-2.710937 61.085937-10.414062l.707031 1.585938c-10.863281 18.539062-14.0625 40.582031-8.914062 61.441406zm0 0" fill="#ff5364"/><path d="m219.773438 379.585938c-85.351563 0-96.40625-40.28125-96.839844-41.992188-.824219-3.082031.074218-6.367188 2.355468-8.597656 2.28125-2.230469 5.585938-3.058594 8.648438-2.164063s5.402344 3.371094 6.125 6.480469c.035156.070312 9.578125 28.617188 79.710938 28.617188 70.136718 0 79.679687-28.546876 79.765624-28.839844 1.398438-4.601563 6.191407-7.269532 10.839844-6.035156 4.601563 1.222656 7.375 5.90625 6.234375 10.53125-.433593 1.71875-11.484375 42-96.839843 42zm0 0" fill="#802d40"/><path d="m219.773438 441.378906c-26.453126.679688-52.582032-5.941406-75.519532-19.136718-2.683594-1.722657-4.230468-4.761719-4.046875-7.945313.1875-3.1875 2.078125-6.023437 4.945313-7.421875 2.867187-1.398438 6.269531-1.136719 8.890625.675781 20.082031 11.140625 42.773437 16.722657 65.730469 16.171875 22.964843.632813 45.671874-4.957031 65.722656-16.171875 4.050781-2.597656 9.441406-1.472656 12.113281 2.535157 2.667969 4.007812 1.636719 9.414062-2.324219 12.15625-22.933594 13.191406-49.0625 19.816406-75.511718 19.136718zm0 0" fill="#802d40"/><path d="m219.773438 156.875c5.867187-.140625 11.511718-2.265625 16.015624-6.027344 8.011719-6.375 12.164063-14.65625 22.128907-18.59375 8.890625-3.003906 18.292969-4.203125 27.65625-3.53125 20.117187.738282 39.988281 4.65625 58.878906 11.609375 15.691406 4.050781 28.507813 15.339844 34.5 30.394531 3.203125 10.867188 4.800781 22.148438 4.730469 33.480469.992187 10.527344.347656 21.144531-1.90625 31.472657-5.878906 21.484374-27.460938 29.933593-47.351563 34.523437-16.046875 4.660156-33.101562 4.539063-49.082031-.34375-18.820312-7.160156-28.46875-26.421875-35.953125-43.875-5.730469-13.363281-12.359375-32.925781-29.609375-33.816406-17.265625.882812-23.832031 20.453125-29.605469 33.816406-7.488281 17.453125-17.136719 36.722656-35.957031 43.875-15.976562 4.882813-33.035156 5.003906-49.078125.34375-19.890625-4.589844-41.492187-13.039063-47.351563-34.523437-2.257812-10.328126-2.898437-20.945313-1.90625-31.472657-.070312-11.332031 1.523438-22.613281 4.730469-33.480469 5.996094-15.039062 18.804688-26.320312 34.480469-30.367187 18.890625-6.953125 38.761719-10.871094 58.878906-11.609375 9.363282-.675781 18.765625.527344 27.65625 3.53125 9.96875 3.9375 14.125 12.226562 22.132813 18.589844 4.503906 3.753906 10.148437 5.871094 16.011719 6.003906zm0 0" fill="#c03a2b"/><path d="m104.132812 169.347656c10.539063-3.980468 21.441407-6.933594 32.546876-8.828125 12.835937-1.789062 24.941406 6.433594 28.011718 19.023438 4.855469 17.1875 1.445313 35.65625-9.234375 49.972656-17.496093 24.199219-43 11.089844-57.308593.433594-6.808594-5.097657-10.804688-13.113281-10.789063-21.617188v-14.125c-.125-10.96875 6.554687-20.871093 16.773437-24.859375zm0 0" fill="#2c3e50"/><path d="m335.414062 169.347656c-10.539062-3.980468-21.4375-6.933594-32.546874-8.828125-12.835938-1.789062-24.941407 6.433594-28.007813 19.023438-4.859375 17.1875-1.445313 35.65625 9.230469 49.972656 17.5 24.199219 43 11.089844 57.3125.433594 6.804687-5.097657 10.804687-13.113281 10.785156-21.617188v-14.125c.125-10.96875-6.554688-20.871093-16.773438-24.859375zm0 0" fill="#2c3e50"/></svg>