<svg height="512pt" viewBox="-62 0 512 512.89602" width="512pt" xmlns="http://www.w3.org/2000/svg"><path d="m339.316406 202.105469c12.625-.796875 74.59375-.882813 38.222656 70.707031-8.070312 14.753906-12.855468 31.074219-14.035156 47.847656-.753906 5.710938-3.953125 10.8125-8.761718 13.980469-4.8125 3.167969-10.761719 4.089844-16.308594 2.527344l-5.472656-1.238281h-276.65625l-5.472657 1.238281c-5.546875 1.5625-11.496093.640625-16.308593-2.527344-4.808594-3.167969-8.007813-8.269531-8.761719-13.980469-1.179688-16.773437-5.964844-33.09375-14.035157-47.847656-36.371093-71.679688 25.773438-71.503906 38.308594-70.796875zm0 0" fill="#f09372"/><path d="m332.8125 380.976562c-1.238281 3.878907-2.960938 7.585938-5.121094 11.035157-3.867187 6.128906-8.367187 11.839843-13.417968 17.039062-7.679688 8.296875-16.597657 15.625-25.070313 23.214844-11.972656 9.523437-21.480469 21.785156-27.71875 35.753906-2.292969 7.523438-5.066406 14.894531-8.296875 22.066407-2.574219 4.964843-6.375 9.1875-11.035156 12.269531-14.53125 7.878906-31.003906 11.460937-47.492188 10.332031-16.492187 1.148438-32.96875-2.433594-47.492187-10.332031-4.683594-3.050781-8.511719-7.242188-11.125-12.179688-3.167969-7.230469-5.9375-14.625-8.296875-22.15625-6.21875-13.957031-15.730469-26.195312-27.71875-35.664062-8.472656-7.679688-17.390625-15.007813-24.980469-23.304688-4.976563-5.203125-9.46875-10.84375-13.417969-16.863281-2.175781-3.515625-3.925781-7.277344-5.210937-11.210938-2.929688-9.65625-3.769531-19.828124-2.46875-29.835937.441406-4.148437 1.144531-9.535156 2.207031-15.09375 1.191406-7.660156 3.082031-15.195313 5.648438-22.511719l134.453124-35.308594 131.167969 35.308594c2.609375 7.273438 4.5 14.78125 5.648438 22.421875 1.0625 5.648438 1.765625 10.945313 2.296875 15.183594 1.226562 10.015625.355468 20.175781-2.558594 29.835937zm0 0" fill="#fdd7ad"/><path d="m344.199219 112.355469-4.414063 48.285156h-.441406c-47.714844 9.351563-96.09375 14.898437-144.683594 16.597656-48.59375-1.699219-96.972656-7.246093-144.683594-16.597656h-.441406l-4.679687-51.289063zm0 0" fill="#802d40"/><path d="m339.785156 160.640625-3.441406 38.3125-139.832031 44.136719-143.535157-44.226563-3.441406-38.222656h.441406c47.710938 9.351563 96.089844 14.898437 144.683594 16.597656 48.589844-1.699219 96.96875-7.246093 144.683594-16.597656zm0 0" fill="#d75e72"/><path d="m194.660156 290.230469c10.523438 0 19.871094 6.734375 23.199219 16.71875l1.765625 5.226562c5.839844 17.492188 24.152344 27.542969 42.042969 23.074219l49.25-12.359375c14.871093-3.714844 25.648437-16.605469 26.667969-31.902344l5.148437-77.25c.402344-6.015625-2.292969-11.820312-7.144531-15.394531-4.855469-3.578125-11.199219-4.429688-16.824219-2.257812-39.558594 15.4375-81.640625 23.414062-124.105469 23.523437-42.484375-.089844-84.582031-8.050781-124.160156-23.480469-5.625-2.167968-11.96875-1.316406-16.824219 2.257813-4.851562 3.574219-7.546875 9.382812-7.144531 15.398437l5.148438 77.25c1.039062 15.28125 11.816406 28.148438 26.675781 31.855469l49.214843 12.359375c17.902344 4.476562 36.230469-5.585938 42.0625-23.09375l1.765626-5.222656c3.335937-9.984375 12.683593-16.710938 23.207031-16.703125zm0 0" fill="#35495e"/><path d="m194.660156 387.332031c-8 .023438-15.671875-3.15625-21.3125-8.824219l-11.429687-11.476562c-2.976563-3.503906-2.765625-8.703125.484375-11.957031 3.25-3.25 8.449218-3.464844 11.953125-.492188l11.476562 11.425781c4.957031 4.675782 12.699219 4.675782 17.65625 0l11.421875-11.425781c3.511719-2.898437 8.65625-2.648437 11.871094.574219 3.214844 3.226562 3.449219 8.371094.539062 11.875l-11.386718 11.476562c-5.652344 5.628907-13.296875 8.800782-21.273438 8.824219zm0 0" fill="#f09372"/><path d="m238.796875 422.644531h-88.277344c-4.875 0-8.824219-3.953125-8.824219-8.828125s3.949219-8.828125 8.824219-8.828125h88.277344c4.875 0 8.828125 3.953125 8.828125 8.828125s-3.953125 8.828125-8.828125 8.828125zm0 0" fill="#802d40"/><path d="m203.488281 457.953125h-26.484375c-4.875 0-8.828125-3.949219-8.828125-8.828125 0-4.875 3.953125-8.824219 8.828125-8.824219h26.484375c4.875 0 8.824219 3.949219 8.824219 8.824219 0 4.878906-3.949219 8.828125-8.824219 8.828125zm0 0" fill="#f09372"/><g fill="#547580"><path d="m88.726562 254.921875c-3.566406-.003906-6.785156-2.152344-8.152343-5.453125-1.367188-3.296875-.609375-7.09375 1.914062-9.617188l8.828125-8.828124c3.507813-2.863282 8.617188-2.605469 11.820313.597656s3.460937 8.3125.597656 11.824218l-8.828125 8.828126c-1.628906 1.660156-3.851562 2.613281-6.179688 2.648437zm0 0"/><path d="m88.726562 299.058594c-3.566406 0-6.785156-2.152344-8.152343-5.449219-1.367188-3.300781-.609375-7.09375 1.914062-9.621094l44.136719-44.136719c3.511719-2.863281 8.617188-2.605468 11.824219.597657 3.203125 3.203125 3.460937 8.3125.597656 11.824219l-44.140625 44.136718c-1.628906 1.664063-3.851562 2.613282-6.179688 2.648438zm0 0"/><path d="m247.625 254.921875c-3.570312-.003906-6.789062-2.152344-8.152344-5.453125-1.367187-3.296875-.613281-7.09375 1.910156-9.617188l8.828126-8.828124c3.511718-2.863282 8.621093-2.605469 11.824218.597656s3.460938 8.3125.597656 11.824218l-8.828124 8.828126c-1.628907 1.660156-3.851563 2.613281-6.179688 2.648437zm0 0"/><path d="m247.625 299.058594c-3.570312 0-6.789062-2.152344-8.152344-5.449219-1.367187-3.300781-.613281-7.09375 1.910156-9.621094l44.140626-44.136719c3.507812-2.863281 8.617187-2.605468 11.820312.597657s3.460938 8.3125.597656 11.824219l-44.136718 44.136718c-1.628907 1.664063-3.851563 2.613282-6.179688 2.648438zm0 0"/></g><path d="m384.628906 124.273438c-13.59375-27.277344-32.484375-17.746094-40.429687-11.917969l-9.09375 1.253906c-46.578125 6.164063-93.46875 9.726563-140.445313 10.664063-48.785156-1.316407-97.433594-5.738282-145.65625-13.242188l-4.148437-1.679688c-9.269531-4.941406-24.1875-7.765624-35.574219 14.921876 0 0-17.125-77.15625 58.4375-70.886719-11.652344-28.691407-49.609375-35.046875-49.609375-35.046875s71.941406-31.953125 101.78125 10.59375c2.804687-9.152344 4.203125-18.675782 4.148437-28.246094 28.589844-4.039062 56.695313 10.015625 70.621094 35.308594 13.921875-25.292969 42.03125-39.347656 70.621094-35.308594-.074219 9.605469 1.355469 19.167969 4.234375 28.335938 30.105469-42.726563 106.285156-10.683594 106.285156-10.683594s-37.605469 6.269531-49.523437 34.691406c70.535156-2.734375 58.351562 71.242188 58.351562 71.242188zm0 0" fill="#cb8252"/><path d="m322.835938 80.132812c-4.875 0-8.828126-3.953124-8.828126-8.828124-.03125-7.378907 1.351563-14.695313 4.078126-21.554688 1.878906-4.421875 6.949218-6.527344 11.410156-4.742188 4.457031 1.789063 6.667968 6.8125 4.972656 11.308594-1.898438 4.765625-2.851562 9.859375-2.804688 14.988282 0 2.34375-.929687 4.589843-2.585937 6.242187-1.65625 1.65625-3.902344 2.585937-6.242187 2.585937zm0 0" fill="#805333"/><path d="m106.382812 62.480469c-3.570312-.003907-6.789062-2.152344-8.152343-5.453125-1.367188-3.296875-.613281-7.09375 1.910156-9.617188 5.210937-6.199218 9.074219-13.414062 11.34375-21.1875.796875-3.195312 3.304687-5.683594 6.511719-6.453125 3.203125-.769531 6.566406.3125 8.726562 2.800781 2.160156 2.492188 2.75 5.976563 1.535156 9.039063-3.046874 10.46875-8.398437 20.121094-15.667968 28.246094-1.640625 1.660156-3.871094 2.605469-6.207032 2.625zm0 0" fill="#805333"/><path d="m282.933594 62.480469c-2.320313-.007813-4.542969-.933594-6.179688-2.578125-7.253906-8.109375-12.582031-17.75-15.585937-28.207032-1.230469-4.566406 1.359375-9.289062 5.871093-10.710937 4.511719-1.421875 9.34375.96875 10.953126 5.414063 2.226562 7.734374 6.050781 14.914062 11.226562 21.074218 2.488281 2.535156 3.210938 6.3125 1.839844 9.589844-1.371094 3.273438-4.574219 5.410156-8.125 5.417969zm0 0" fill="#805333"/><path d="m100.027344 432.355469c-5.765625 5.03125-12.726563 8.496093-20.214844 10.0625-1.058594.265625-2.117188.441406-3.179688.617187-17.058593 1.589844-34.230468-1.460937-49.699218-8.828125 22.601562-7.503906 32.308594-34.339843 34.695312-42.019531 3.949219 6.019531 8.441406 11.660156 13.417969 16.863281 7.589844 8.296875 16.507813 15.625 24.980469 23.304688zm0 0" fill="#cb8252"/><path d="m136.042969 490.175781c-28.601563 12.445313-82.625-3-82.625-3 26.484375 0 26.484375-44.140625 26.484375-44.140625h-3.269532c1.0625-.175781 2.121094-.351562 3.179688-.617187 7.488281-1.566407 14.449219-5.03125 20.214844-10.0625 11.988281 9.46875 21.5 21.707031 27.71875 35.664062 2.359375 7.53125 5.128906 14.925781 8.296875 22.15625zm0 0" fill="#805333"/><path d="m362.382812 434.207031c-16.425781 7.902344-34.828124 10.757813-52.875 8.210938-7.519531-1.617188-14.503906-5.109375-20.304687-10.152344 8.472656-7.589844 17.390625-14.917969 25.070313-23.214844 5.050781-5.199219 9.550781-10.910156 13.417968-17.039062 2.207032 7.503906 11.917969 34.605469 34.691406 42.195312zm0 0" fill="#cb8252"/><path d="m335.902344 487.175781s-54.113282 15.445313-82.714844 2.910157c3.230469-7.171876 6.003906-14.542969 8.296875-22.066407 6.238281-13.96875 15.746094-26.230469 27.71875-35.753906 5.800781 5.042969 12.785156 8.535156 20.304687 10.152344l-.089843.617187s0 44.140625 26.484375 44.140625zm0 0" fill="#805333"/></svg>