<svg height="512pt" viewBox="-38 0 512 512.01615" width="512pt" xmlns="http://www.w3.org/2000/svg"><path d="m50.074219 185.378906v114.757813h-20.125c-8.738281.011719-16.167969-6.367188-17.480469-15.003907l-12.269531-79.449218c-.753907-5.089844.742187-10.25 4.097656-14.148438 3.355469-3.898437 8.238281-6.144531 13.382813-6.15625zm0 0" fill="#f09372"/><path d="m435.398438 205.683594-12.269532 79.449218c-1.308594 8.636719-8.742187 15.015626-17.476562 15.003907h-20.128906v-114.757813h32.398437c5.140625.011719 10.027344 2.257813 13.382813 6.15625 3.351562 3.898438 4.847656 9.058594 4.09375 14.148438zm0 0" fill="#f09372"/><path d="m385.523438 300.136719s0 88.277343-35.308594 114.761719c-13.109375 9.179687-25.722656 19.050781-37.785156 29.570312-10.539063 10.585938-20.054688 22.140625-28.421876 34.515625-15.316406 21.203125-40.058593 33.542969-66.207031 33.015625-26.152343.527344-50.894531-11.8125-66.207031-33.015625-8.371094-12.375-17.886719-23.929687-28.425781-34.515625-12.0625-10.519531-24.675781-20.390625-37.78125-29.570312-35.3125-26.484376-35.3125-114.761719-35.3125-114.761719s61.792969 35.3125 167.726562 35.3125c105.929688 0 167.722657-35.3125 167.722657-35.3125zm0 0" fill="#fdd7ad"/><path d="m217.800781 397.242188c-27.933593 0-35.3125-17.320313-35.3125-26.484376-.058593-4.875 3.847657-8.875 8.722657-8.933593 4.875-.058594 8.875 3.847656 8.933593 8.722656.113281 1.597656 1.535157 9.039063 17.65625 9.039063 4.875 0 8.828125 3.953124 8.828125 8.828124s-3.953125 8.828126-8.828125 8.828126zm0 0" fill="#f09372"/><path d="m217.800781 397.242188c-4.875 0-8.828125-3.953126-8.828125-8.828126s3.953125-8.828124 8.828125-8.828124c16.25 0 17.558594-7.566407 17.652344-9.082032.296875-4.679687 4.140625-8.34375 8.828125-8.414062h.273438c4.738281.078125 8.542968 3.929687 8.554687 8.667968 0 9.164063-7.378906 26.484376-35.308594 26.484376zm0 0" fill="#f09372"/><path d="m253.109375 441.378906h-70.621094c-4.875 0-8.828125-3.953125-8.828125-8.828125s3.953125-8.828125 8.828125-8.828125h70.621094c4.875 0 8.828125 3.953125 8.828125 8.828125s-3.953125 8.828125-8.828125 8.828125zm0 0" fill="#802d40"/><path d="m226.628906 467.863281h-17.65625c-4.875 0-8.828125-3.953125-8.828125-8.828125s3.953125-8.828125 8.828125-8.828125h17.65625c4.875 0 8.824219 3.953125 8.824219 8.828125s-3.949219 8.828125-8.824219 8.828125zm0 0" fill="#f09372"/><path d="m120.695312 397.242188c-4.875 0-8.828124-3.953126-8.828124-8.828126-.925782-22.171874-6.207032-43.941406-15.542969-64.070312-1.851563-4.410156.148437-9.488281 4.507812-11.457031 4.355469-1.96875 9.488281-.109375 11.574219 4.191406 10.359375 22.414063 16.175781 46.660156 17.117188 71.335937 0 4.875-3.953126 8.828126-8.828126 8.828126zm0 0" fill="#f09372"/><path d="m314.902344 397.242188c-4.875 0-8.828125-3.953126-8.828125-8.828126.9375-24.679687 6.753906-48.925781 17.109375-71.34375 2.085937-4.304687 7.21875-6.160156 11.574218-4.195312 4.359376 1.96875 6.359376 7.050781 4.507813 11.460938-9.332031 20.132812-14.613281 41.90625-15.535156 64.078124 0 4.875-3.953125 8.828126-8.828125 8.828126zm0 0" fill="#f09372"/><path d="m385.523438 185.378906v114.757813s-61.792969 35.3125-167.722657 35.3125c-105.933593 0-167.726562-35.3125-167.726562-35.3125v-114.757813c0-92.601562 75.125-185.378906 167.726562-185.378906 92.601563 0 167.722657 92.777344 167.722657 185.378906zm0 0" fill="#24ae5f"/><path d="m385.523438 185.378906v114.757813s-61.792969 35.3125-167.722657 35.3125v-335.449219c92.601563 0 167.722657 92.777344 167.722657 185.378906zm0 0" fill="#4fba6f"/><path d="m108.621094 229.570312 75.21875 5.78125c9.203125.707032 16.308594 8.382813 16.304687 17.613282v22.828125c0 5.433593-2.507812 10.566406-6.792969 13.914062-4.28125 3.34375-9.871093 4.527344-15.144531 3.210938l-73.152343-18.292969c-6.621094-1.652344-11.691407-6.972656-13.03125-13.664062l-2.066407-10.328126c-1.082031-5.417968.433594-11.03125 4.101563-15.167968 3.664062-4.136719 9.050781-6.316406 14.5625-5.894532zm0 0" fill="#2c3e50"/><path d="m326.980469 229.570312-75.222657 5.78125c-9.203124.707032-16.308593 8.382813-16.304687 17.613282v22.828125c.003906 5.433593 2.507813 10.566406 6.792969 13.914062 4.285156 3.34375 9.871094 4.527344 15.144531 3.210938l73.15625-18.292969c6.617187-1.652344 11.691406-6.972656 13.027344-13.664062l2.066406-10.328126c1.082031-5.417968-.433594-11.03125-4.097656-15.167968-3.664063-4.136719-9.054688-6.316406-14.5625-5.894532zm0 0" fill="#2c3e50"/><g fill="#4c8056"><path d="m217.800781 211.863281c-3.613281 0-6.863281-2.199219-8.203125-5.554687-8.640625-22.34375-29.660156-37.476563-53.589844-38.585938-4.875 0-8.828124-3.949218-8.828124-8.824218 0-4.878907 3.953124-8.828126 8.828124-8.828126 31.164063 1.082032 58.6875 20.617188 69.992188 49.679688 1.089844 2.722656.757812 5.804688-.882812 8.234375-1.644532 2.425781-4.386719 3.878906-7.316407 3.878906zm0 0"/><path d="m217.800781 211.863281c-2.933593 0-5.675781-1.453125-7.316406-3.878906-1.644531-2.429687-1.976563-5.511719-.886719-8.234375 11.304688-29.0625 38.832032-48.597656 69.996094-49.679688 4.875 0 8.828125 3.949219 8.828125 8.828126 0 4.875-3.953125 8.824218-8.828125 8.824218-23.949219 1.09375-44.988281 16.234375-53.628906 38.59375-1.339844 3.339844-4.566406 5.535156-8.164063 5.546875zm0 0"/><path d="m217.800781 158.898438c-3.613281 0-6.863281-2.199219-8.203125-5.554688-8.640625-22.34375-29.660156-37.480469-53.589844-38.585938-4.875 0-8.828124-3.953124-8.828124-8.828124s3.953124-8.828126 8.828124-8.828126c31.164063 1.085938 58.6875 20.621094 69.992188 49.683594 1.089844 2.722656.757812 5.804688-.882812 8.234375-1.644532 2.425781-4.386719 3.878907-7.316407 3.878907zm0 0"/><path d="m217.800781 158.898438c-2.933593 0-5.675781-1.453126-7.316406-3.878907-1.644531-2.429687-1.976563-5.511719-.886719-8.234375 11.304688-29.0625 38.832032-48.597656 69.996094-49.683594 4.875 0 8.828125 3.953126 8.828125 8.828126s-3.953125 8.828124-8.828125 8.828124c-23.949219 1.09375-44.988281 16.234376-53.628906 38.59375-1.339844 3.339844-4.566406 5.535157-8.164063 5.546876zm0 0"/><path d="m217.800781 105.929688c-3.613281.003906-6.863281-2.195313-8.203125-5.550782-8.640625-22.34375-29.660156-37.480468-53.589844-38.585937-4.875 0-8.828124-3.953125-8.828124-8.828125s3.953124-8.828125 8.828124-8.828125c31.164063 1.082031 58.6875 20.621093 69.992188 49.683593 1.089844 2.71875.757812 5.804688-.882812 8.234376-1.644532 2.425781-4.386719 3.878906-7.316407 3.875zm0 0"/><path d="m217.800781 105.929688c-2.933593.003906-5.675781-1.449219-7.316406-3.875-1.644531-2.429688-1.976563-5.515626-.886719-8.234376 11.304688-29.0625 38.832032-48.601562 69.996094-49.683593 4.875 0 8.828125 3.953125 8.828125 8.828125s-3.953125 8.828125-8.828125 8.828125c-23.949219 1.09375-44.988281 16.234375-53.628906 38.59375-1.339844 3.339843-4.566406 5.53125-8.164063 5.542969zm0 0"/></g></svg>