<svg height="512pt" viewBox="-36 0 512 512.01615" width="512pt" xmlns="http://www.w3.org/2000/svg"><path d="m388.140625 309.054688c-.175781 3-.351563 6.621093-.703125 10.769531-2.207031 27.542969-9.625 76.535156-34.339844 95.074219-13.109375 9.179687-25.71875 19.050781-37.785156 29.570312-10.539062 10.585938-20.054688 22.140625-28.421875 34.515625-15.316406 21.203125-40.058594 33.542969-66.207031 33.015625-26.152344.527344-50.894532-11.8125-66.207032-33.015625-8.367187-12.375-17.886718-23.929687-28.425781-34.515625-12.0625-10.519531-24.675781-20.390625-37.78125-29.570312-24.71875-18.539063-32.132812-67.53125-34.339843-95.074219-.351563-4.148438-.53125-7.769531-.707032-10.769531zm0 0" fill="#fdd7ad"/><path d="m59.84375 136.472656c-4.527344 15.910156-6.84375 32.367188-6.886719 48.90625v.089844c-1.144531-.089844-6.089843-.089844-7.941406-.089844-18.628906 0-66.738281 5.828125-33.722656 70.886719 8.070312 14.75 12.859375 31.070313 14.035156 47.84375.753906 5.710937 3.953125 10.8125 8.765625 13.980469 4.808594 3.167968 10.761719 4.089844 16.304688 2.527344l3.53125-.792969-.972657-10.859375s105.933594 17.65625 123.585938 35.3125c17.65625 17.652344 17.65625 26.480468 44.140625 26.480468 26.480468 0 26.480468-8.828124 44.136718-26.480468 17.65625-17.65625 123.585938-35.3125 123.585938-35.3125l-.96875 10.859375 3.53125.792969c5.542969 1.5625 11.492188.640624 16.304688-2.527344 4.8125-3.167969 8.007812-8.269532 8.765624-13.980469 1.175782-16.773437 5.964844-33.09375 14.035157-47.84375 36.367187-71.679687-29.132813-71.503906-41.667969-70.796875v-.089844c-.039062-16.539062-2.355469-32.996094-6.886719-48.90625l-63.117187-98.957031c-27.09375-23.691406-61.730469-36.988281-97.71875-37.515625-35.992188.527344-70.625 13.824219-97.722656 37.515625zm0 0" fill="#35495e"/><path d="m102.675781 238.398438 75.21875 5.78125c9.203125.707031 16.308594 8.382812 16.304688 17.609374v22.828126c0 5.4375-2.503907 10.570312-6.789063 13.914062-4.285156 3.347656-9.871094 4.53125-15.148437 3.214844l-73.152344-18.292969c-6.617187-1.652344-11.691406-6.972656-13.03125-13.664063l-2.0625-10.328124c-1.085937-5.417969.433594-11.03125 4.097656-15.167969 3.664063-4.136719 9.054688-6.316407 14.5625-5.894531zm0 0" fill="#2c2f38"/><path d="m338.691406 238.398438-75.222656 5.78125c-9.203125.707031-16.308594 8.382812-16.304688 17.609374v22.828126c.003907 5.4375 2.507813 10.570312 6.792969 13.914062 4.285157 3.347656 9.871094 4.53125 15.144531 3.214844l73.15625-18.292969c6.617188-1.652344 11.691407-6.972656 13.027344-13.664063l2.066406-10.328124c1.082032-5.417969-.433593-11.03125-4.097656-15.167969-3.664062-4.136719-9.054687-6.316407-14.5625-5.894531zm0 0" fill="#2c2f38"/><path d="m255.992188 441.378906h-70.621094c-4.875 0-8.828125-3.953125-8.828125-8.828125s3.953125-8.828125 8.828125-8.828125h70.621094c4.875 0 8.828124 3.953125 8.828124 8.828125s-3.953124 8.828125-8.828124 8.828125zm0 0" fill="#802d40"/><path d="m229.511719 467.863281h-17.65625c-4.875 0-8.828125-3.953125-8.828125-8.828125s3.953125-8.828125 8.828125-8.828125h17.65625c4.875 0 8.824219 3.953125 8.824219 8.828125s-3.949219 8.828125-8.824219 8.828125zm0 0" fill="#f09372"/><path d="m144.542969 75.28125-46.742188 39.476562c0-35.308593-52.257812-114.757812-52.257812-114.757812s72.09375 16.234375 101.050781 64.292969c2.085938 3.671875 1.21875 8.3125-2.050781 10.988281zm0 0" fill="#2c3e50"/><path d="m97.800781 114.757812-34.867187 26.484376c-26.128906-35.3125-17.390625-141.242188-17.390625-141.242188s52.257812 79.449219 52.257812 114.757812zm0 0" fill="#ff5364"/><path d="m395.820312 0s-52.257812 79.449219-52.257812 114.757812l-46.785156-39.476562c-3.269532-2.675781-4.136719-7.316406-2.050782-10.988281 29-48.058594 101.09375-64.292969 101.09375-64.292969zm0 0" fill="#2c3e50"/><path d="m378.429688 141.242188-34.867188-26.484376c0-35.308593 52.257812-114.757812 52.257812-114.757812s8.742188 105.929688-17.390624 141.242188zm0 0" fill="#ff5364"/><path d="m141.234375 423.722656c-4.875 0-8.828125-3.949218-8.828125-8.824218 0-39.621094 20.222656-50.882813 22.539062-52.039063 4.316407-2.117187 9.535157-.390625 11.734376 3.886719 2.199218 4.273437.574218 9.523437-3.660157 11.808594-.828125.492187-12.957031 8.09375-12.957031 36.34375 0 4.875-3.953125 8.824218-8.828125 8.824218zm0 0" fill="#f09372"/><path d="m300.132812 423.722656c-4.878906 0-8.828124-3.949218-8.828124-8.824218 0-28.59375-12.449219-36.042969-12.988282-36.355469-4.175781-2.371094-5.734375-7.621094-3.53125-11.890625 2.191406-4.21875 7.359375-5.90625 11.617188-3.792969 2.332031 1.15625 22.554687 12.417969 22.554687 52.039063 0 4.875-3.949219 8.824218-8.824219 8.824218zm0 0" fill="#f09372"/><g fill="#2c3e50"><path d="m194.199219 220.691406c-2.121094 0-4.175781-.765625-5.78125-2.15625-37.289063-32.324218-98.332031-24.488281-98.964844-24.40625-3.175781.527344-6.386719-.710937-8.382813-3.238281-1.996093-2.527344-2.457031-5.9375-1.203124-8.902344 1.25-2.964843 4.015624-5.015625 7.21875-5.347656 2.796874-.390625 69.640624-8.925781 112.894531 28.554687 2.78125 2.417969 3.769531 6.304688 2.484375 9.753907-1.289063 3.449219-4.582032 5.738281-8.265625 5.742187zm0 0"/><path d="m247.164062 220.691406c-3.683593 0-6.984374-2.289062-8.273437-5.746094-1.289063-3.453124-.292969-7.34375 2.492187-9.757812 43.253907-37.488281 110.105469-28.9375 112.898438-28.554688 4.789062.691407 8.128906 5.117188 7.480469 9.914063-.644531 4.796875-5.035157 8.179687-9.839844 7.582031-.625-.070312-61.792969-7.804687-98.972656 24.40625-1.605469 1.390625-3.660157 2.15625-5.785157 2.15625zm0 0"/></g></svg>