<svg height="512pt" viewBox="-44 0 512 512.01615" width="512pt" xmlns="http://www.w3.org/2000/svg"><path d="m370.765625 353.101562v-123.585937l-291.308594-26.480469-26.484375 141.242188 1.679688 29.304687c3.890625 15.96875 12.539062 30.375 24.804687 41.316407 13.105469 9.179687 25.71875 19.050781 37.78125 29.570312 10.539063 10.585938 20.058594 22.140625 28.425781 34.515625 15.3125 21.203125 40.054688 33.542969 66.207032 33.015625 26.148437.527344 50.890625-11.8125 66.207031-33.015625 8.367187-12.375 17.882813-23.929687 28.421875-34.515625 12.066406-10.519531 24.675781-20.390625 37.785156-29.570312 12.261719-10.941407 20.914063-25.347657 24.804688-41.316407zm0 0" fill="#fdd7ad"/><path d="m211.871094 397.242188c-27.929688 0-35.3125-17.320313-35.3125-26.484376-.058594-4.875 3.847656-8.875 8.722656-8.933593 4.875-.058594 8.875 3.847656 8.933594 8.722656.113281 1.597656 1.535156 9.039063 17.65625 9.039063 4.875 0 8.828125 3.953124 8.828125 8.828124s-3.953125 8.828126-8.828125 8.828126zm0 0" fill="#f09372"/><path d="m211.871094 397.242188c-4.875 0-8.828125-3.953126-8.828125-8.828126s3.953125-8.828124 8.828125-8.828124c16.25 0 17.558594-7.566407 17.652344-9.082032.296874-4.679687 4.140624-8.34375 8.828124-8.414062h.273438c4.738281.078125 8.542969 3.929687 8.554688 8.667968 0 9.164063-7.378907 26.484376-35.308594 26.484376zm0 0" fill="#f09372"/><path d="m247.179688 441.378906h-70.621094c-4.875 0-8.828125-3.953125-8.828125-8.828125s3.953125-8.828125 8.828125-8.828125h70.621094c4.875 0 8.828124 3.953125 8.828124 8.828125s-3.953124 8.828125-8.828124 8.828125zm0 0" fill="#802d40"/><g fill="#f09372"><path d="m220.699219 467.863281h-17.65625c-4.875 0-8.828125-3.953125-8.828125-8.828125s3.953125-8.828125 8.828125-8.828125h17.65625c4.875 0 8.824219 3.953125 8.824219 8.828125s-3.949219 8.828125-8.824219 8.828125zm0 0"/><path d="m114.765625 397.242188c-4.875 0-8.828125-3.953126-8.828125-8.828126-.925781-22.171874-6.207031-43.941406-15.542969-64.070312-1.847656-4.410156.148438-9.488281 4.507813-11.457031 4.355468-1.96875 9.488281-.109375 11.574218 4.191406 10.359376 22.414063 16.175782 46.660156 17.117188 71.335937 0 4.875-3.953125 8.828126-8.828125 8.828126zm0 0"/><path d="m308.972656 397.242188c-4.875 0-8.828125-3.953126-8.828125-8.828126.9375-24.679687 6.753907-48.925781 17.109375-71.34375 2.085938-4.304687 7.21875-6.160156 11.578125-4.195312 4.355469 1.96875 6.355469 7.050781 4.503907 11.460938-9.332032 20.132812-14.613282 41.90625-15.535157 64.078124 0 4.875-3.953125 8.828126-8.828125 8.828126zm0 0"/></g><path d="m379.417969 117.9375c-2.992188-65.984375-57.359375-117.9375-123.410157-117.9375h-88.277343c-66.046875 0-120.414063 51.953125-123.40625 117.9375l-18.1875 131.972656c-24.714844 70.796875 26.835937 129.675782 26.835937 129.675782s17.65625-79.449219 88.277344-79.449219c2.824219 0 5.5625.089843 8.121094.265625 62.5 3.882812 62.5 52.699218 62.5 52.699218s0-48.816406 62.5-52.699218c2.558594-.175782 5.292968-.265625 8.121094-.265625 70.621093 0 88.273437 79.449219 88.273437 79.449219s51.554687-58.878907 26.835937-129.675782zm0 0" fill="#7d6599"/><path d="m211.871094 176.550781c-4.875 0-8.828125-3.953125-8.828125-8.828125v-132.414062c0-4.875 3.953125-8.824219 8.828125-8.824219s8.828125 3.949219 8.828125 8.824219v132.414062c0 4.875-3.953125 8.828125-8.828125 8.828125zm0 0" fill="#3d324c"/><path d="m211.871094 176.550781c-4.875 0-8.828125-3.953125-8.828125-8.828125 0-63.769531-64.238281-88.59375-64.902344-88.832031-4.457031-1.777344-6.679687-6.792969-5-11.289063 1.683594-4.496093 6.648437-6.828124 11.179687-5.242187 3.109376 1.199219 76.378907 29.5 76.378907 105.363281 0 4.875-3.953125 8.828125-8.828125 8.828125zm0 0" fill="#3d324c"/><path d="m211.871094 176.550781c-4.875 0-8.828125-3.953125-8.828125-8.828125 0-75.863281 73.269531-104.164062 76.339843-105.375 4.503907-1.492187 9.386719.84375 11.050782 5.289063 1.660156 4.445312-.488282 9.410156-4.871094 11.238281-2.605469 1.015625-64.863281 25.359375-64.863281 88.847656 0 4.875-3.953125 8.828125-8.828125 8.828125zm0 0" fill="#3d324c"/><path d="m211.871094 242.617188c-.015625-21.132813-11.621094-40.550782-30.226563-50.574219l-155.570312-83.96875c-5.46875-2.960938-12.09375-2.828125-17.4375.351562-5.347657 3.179688-8.6250002 8.941407-8.6289065 15.160157v50.671874c.1093755 64.148438 49.3828125 117.5 113.3203125 122.703126l36.023437 2.992187c16.0625 1.363281 31.960938-4.058594 43.839844-14.953125s18.652344-26.265625 18.679688-42.382812zm0 0" fill="#b49aca"/><path d="m211.871094 242.617188c.011718-21.132813 11.621094-40.550782 30.226562-50.574219l155.566406-83.96875c5.46875-2.960938 12.09375-2.828125 17.441407.351562 5.34375 3.179688 8.621093 8.941407 8.625 15.160157v50.671874c-.109375 64.148438-49.378907 117.5-113.316407 122.703126l-36.027343 2.992187c-16.058594 1.363281-31.957031-4.058594-43.835938-14.953125-11.878906-10.894531-18.65625-26.265625-18.679687-42.382812zm0 0" fill="#b49aca"/><path d="m170.117188 225.296875-70.355469-30.03125c-3.1875-1.550781-6.898438-1.613281-10.132813-.167969-3.238281 1.445313-5.667968 4.246094-6.640625 7.65625l-3.082031 18.394532c-3.453125 20.621093 13.585938 39.664062 37.808594 42.242187l10.71875 1.144531c20.535156 3.179688 40.484375-8.496094 47.773437-27.957031 1.183594-4.765625-1.457031-9.652344-6.089843-11.28125zm0 0" fill="#2c3e50"/><path d="m253.625 225.296875 70.390625-30.011719c3.1875-1.550781 6.894531-1.613281 10.132813-.167968 3.234374 1.441406 5.667968 4.246093 6.640624 7.652343l3.078126 18.398438c3.453124 20.621093-13.582032 39.660156-37.808594 42.238281l-10.714844 1.148438c-20.554688 3.191406-40.523438-8.492188-47.808594-27.976563-1.183594-4.765625 1.453125-9.652344 6.089844-11.28125zm0 0" fill="#2c3e50"/></svg>