<svg height="512pt" viewBox="-36 0 512 512.17179" width="512pt" xmlns="http://www.w3.org/2000/svg"><g fill="#c03a2b"><path d="m50.320312 317.792969h-18.539062c-9.019531.207031-16.863281-6.140625-18.539062-15.007813l-13.019532-79.445312c-.648437-5.25 1.027344-10.519532 4.59375-14.421875 3.566406-3.90625 8.660156-6.054688 13.945313-5.882813h25zm0 0"/><path d="m397.675781 203.035156h24.972657c5.285156-.175781 10.382812 1.972656 13.949218 5.878906s5.242188 9.175782 4.589844 14.425782l-13.003906 79.445312c-1.667969 8.871094-9.515625 15.222656-18.535156 15.007813h-19.644532zm0 0"/><path d="m44.140625 203.035156v-61.792968c0-78.007813 63.234375-141.242188 141.242187-141.242188h70.621094c78.003906 0 141.238282 63.234375 141.238282 141.242188v61.792968h-.191407c.800781 26.65625.269531 53.335938-1.597656 79.941406-1.207031 13.222657-3.675781 26.300782-7.371094 39.054688-5.355469 12.726562-9.78125 25.824219-13.242187 39.195312-4.765625 32.484376-6.445313 69.207032-32.554688 97.101563-16.589844 17.65625-45.96875 27.1875-68.734375 39.8125-14.894531 10.15625-32.757812 15.035156-50.75 13.859375h-4.414062c-17.980469 1.160156-35.835938-3.71875-50.730469-13.859375-22.765625-12.625-52.082031-22.15625-68.644531-39.8125-26.109375-27.894531-27.789063-64.617187-32.554688-97.101563-2.164062-14.71875-10.65625-26.960937-15.007812-40.933593-4.269531-15.125-6.414063-30.765625-6.371094-46.480469-.515625-23.566406-.9375-47.332031-.9375-70.777344 0-1.679687 0-3.445312.089844-5.121094zm0 0"/></g><path d="m220.691406 512c-8.277344-.011719-16.4375-1.953125-23.832031-5.667969l-35.585937-17.9375c-17.996094-9.011719-29.328126-27.445312-29.246094-47.570312v-104.113281l-46.113282-10.328126c-18.789062-4.183593-32.699218-20.0625-34.375-39.238281l-7.214843-97.625c-1.292969-14.015625 4.164062-27.8125 14.699219-37.148437 10.535156-9.332032 24.890624-13.089844 38.648437-10.113282l98.628906 21.308594c9.101563 1.972656 17.519531 6.320313 24.390625 12.605469 6.875-6.285156 15.296875-10.640625 24.402344-12.613281l98.628906-21.3125c13.753906-2.953125 28.097656.808594 38.625 10.140625 10.53125 9.328125 15.996094 23.113281 14.71875 37.125l-7.210937 97.640625c-1.679688 19.160156-15.574219 35.027344-34.347657 39.222656l-46.140624 10.335938v104.113281c.082031 20.121093-11.246094 38.554687-29.238282 47.570312l-35.601562 17.929688c-7.394532 3.71875-15.558594 5.660156-23.835938 5.675781zm0 0" fill="#e57e25"/><path d="m90.210938 176.753906 98.640624 21.3125c8.230469 1.804688 14.085938 9.109375 14.0625 17.539063v3.433593c-.117187 5.238282 3.703126 9.738282 8.890626 10.476563h17.785156c5.1875-.738281 9.003906-5.238281 8.890625-10.476563v-3.433593c-.027344-8.429688 5.828125-15.734375 14.0625-17.539063l98.640625-21.3125c2.78125-.59375 5.679687.171875 7.800781 2.0625 2.125 1.894532 3.21875 4.683594 2.949219 7.515625l-7.210938 97.644531c-.339844 3.871094-3.140625 7.082032-6.929687 7.941407l-59.773438 13.394531c-8.164062 1.855469-13.953125 9.128906-13.929687 17.503906v118.007813c.011718 6.773437-3.789063 12.976562-9.832032 16.039062l-35.621093 17.9375c-4.996094 2.519531-10.890625 2.519531-15.890625 0l-35.574219-17.9375c-6.042969-3.0625-9.84375-9.265625-9.832031-16.039062v-118.007813c.023437-8.375-5.765625-15.648437-13.929688-17.503906l-59.773437-13.394531c-3.792969-.859375-6.59375-4.070313-6.929688-7.941407l-7.257812-97.644531c-.269531-2.832031.824219-5.625 2.953125-7.519531 2.125-1.890625 5.027344-2.65625 7.808594-2.058594zm0 0" fill="#fdd7ad"/><path d="m224.824219 46.238281 11.476562 30.351563c.648438 1.714844 2.292969 2.851562 4.128907 2.847656h37.421874c1.898438 0 3.585938 1.21875 4.1875 3.019531.601563 1.804688-.019531 3.789063-1.539062 4.925781l-30.136719 22.070313c-1.574219 1.152344-2.203125 3.195313-1.554687 5.03125l11.148437 31.472656c.636719 1.789063.054688 3.789063-1.449219 4.957031-1.5 1.167969-3.582031 1.246094-5.164062.1875l-30.160156-20.101562c-1.484375-.988281-3.417969-.988281-4.902344 0l-30.164062 20.101562c-1.582032 1.058594-3.660157.980469-5.164063-.1875-1.5-1.167968-2.082031-3.167968-1.445313-4.957031l11.148438-31.472656c.648438-1.835937.015625-3.878906-1.554688-5.03125l-30.136718-22.070313c-1.519532-1.136718-2.140625-3.121093-1.539063-4.925781.601563-1.800781 2.289063-3.019531 4.1875-3.019531h37.421875c1.835938.003906 3.480469-1.132812 4.128906-2.847656l11.476563-30.351563c.675781-1.667969 2.292969-2.757812 4.089844-2.757812 1.800781 0 3.417969 1.089843 4.09375 2.757812zm0 0" fill="#f0c419"/><path d="m112.007812 212.257812 56.0625 13.949219c2.742188.472657 5.171876 2.058594 6.710938 4.378907 1.535156 2.320312 2.050781 5.171874 1.421875 7.882812-6.722656 18.582031-25.929687 29.546875-45.347656 25.882812l-.363281-.054687c-18.105469-1.566406-32.320313-16.179687-33.386719-34.320313v-7.945312c.351562-3.441406 2.234375-6.539062 5.125-8.433594 2.890625-1.898437 6.480469-2.386718 9.777343-1.339844zm0 0" fill="#2c3e50"/><path d="m329.378906 212.257812-56.066406 13.949219c-2.742188.472657-5.167969 2.058594-6.707031 4.378907-1.539063 2.320312-2.054688 5.171874-1.421875 7.882812 6.71875 18.582031 25.929687 29.546875 45.347656 25.882812l.363281-.054687c18.101563-1.566406 32.316407-16.179687 33.382813-34.320313v-7.945312c-.347656-3.441406-2.230469-6.539062-5.121094-8.433594-2.890625-1.898437-6.484375-2.386718-9.777344-1.339844zm0 0" fill="#2c3e50"/><path d="m220.691406 353.101562c-7.085937.210938-13.941406-2.515624-18.953125-7.527343s-7.734375-11.867188-7.527343-18.953125c-.027344-4.875 3.90625-8.847656 8.78125-8.871094 4.875-.027344 8.847656 3.90625 8.871093 8.78125 0 4.875 3.953125 8.828125 8.828125 8.828125s8.828125-3.953125 8.828125-8.828125c.121094-4.796875 4.027344-8.632812 8.828125-8.660156h.113282c4.8125.035156 8.699218 3.9375 8.714843 8.75.207031 7.085937-2.515625 13.941406-7.527343 18.953125-5.015626 5.011719-11.871094 7.738281-18.957032 7.527343zm0 0" fill="#f09372"/><path d="m238.347656 397.242188h-35.308594c-4.878906 0-8.828124-3.953126-8.828124-8.828126s3.949218-8.828124 8.828124-8.828124h35.308594c4.875 0 8.828125 3.953124 8.828125 8.828124s-3.953125 8.828126-8.828125 8.828126zm0 0" fill="#802d40"/></svg>