<svg height="512pt" viewBox="-27 0 512 512.17021" width="512pt" xmlns="http://www.w3.org/2000/svg"><path d="m54.941406 291.308594h-13.59375c-18.917968.3125-34.882812-13.996094-36.636718-32.835938l-4.589844-62.410156c-.394532-7.476562 2.34375-14.777344 7.550781-20.15625 5.210937-5.375 12.421875-8.339844 19.90625-8.183594h25.421875zm0 0" fill="#802f34"/><path d="m406.101562 167.722656h25.425782c7.484375-.15625 14.695312 2.808594 19.902344 8.183594 5.210937 5.378906 7.945312 12.679688 7.550781 20.15625l-4.589844 62.410156c-1.75 18.839844-17.71875 33.148438-36.636719 32.835938h-15.269531zm0 0" fill="#802f34"/><path d="m53 191.824219v-44.140625c0-78.007813 63.230469-147.683594 141.242188-147.683594h70.621093c78.007813 0 141.238281 69.675781 141.238281 147.683594v44.140625h-.191406c.925782 27.410156.21875 54.855469-2.121094 82.183593-.210937 14.796876-2.285156 29.507813-6.179687 43.785157-6.003906 14.007812-10.667969 28.546875-13.9375 43.433593-4.765625 32.484376-6.445313 69.207032-32.554687 97.101563-16.589844 17.65625-45.964844 27.1875-68.734376 39.8125-14.886718 10.148437-32.742187 15.027344-50.722656 13.859375h-4.414062c-17.980469 1.160156-35.835938-3.71875-50.730469-13.859375-22.765625-12.625-52.082031-22.15625-68.644531-39.8125-26.109375-27.894531-27.789063-64.617187-32.554688-97.101563-2.382812-16.15625-11.820312-33.371093-16.773437-48.640624-.78125-2.585938-1.429688-5.207032-1.941407-7.859376-1.953124-14.003906-2.722656-28.148437-2.296874-42.28125-1.058594-35.578124-1.324219-34.957031-1.324219-70.621093 0-1.679688 0-3.445313.089843-5.121094zm0 0" fill="#cc4b4c"/><path d="m317.828125 420.191406c0 39.003906-39.523437 56.5-88.277344 56.5-48.753906 0-88.273437-17.496094-88.273437-56.5 0-39 39.519531-84.742187 88.273437-84.742187 48.753907 0 88.277344 45.742187 88.277344 84.742187zm0 0" fill="#fdd7ad"/><path d="m229.550781 326.621094c-27.929687 0-35.308593-17.320313-35.308593-26.484375-.058594-4.875 3.84375-8.875 8.71875-8.933594 4.878906-.058594 8.875 3.847656 8.933593 8.722656.117188 1.597657 1.539063 9.039063 17.65625 9.039063 16.121094 0 17.558594-7.566406 17.65625-9.082032.292969-4.679687 4.140625-8.34375 8.828125-8.414062h.273438c4.734375.078125 8.539062 3.933594 8.554687 8.667969 0 9.164062-7.382812 26.484375-35.3125 26.484375zm0 0" fill="#802f34"/><path d="m406.101562 141.242188s-55.171874 17.65625-176.550781 17.65625c-121.378906 0-176.550781-17.65625-176.550781-17.65625v100.042968c0 27.628906 24.71875 50.023438 55.171875 50.023438h6.117187c14.292969.25 28.175782-4.777344 38.992188-14.121094 42.953125-40.070312 109.589844-40.070312 152.539062 0 10.820313 9.34375 24.699219 14.371094 38.992188 14.121094h6.117188c30.457031 0 55.171874-22.394532 55.171874-50.023438zm0 0" fill="#35495e"/><path d="m165.039062 192.007812c-20.902343-.667968-41.734374-2.800781-62.339843-6.390624-3.671875-.90625-7.558594.046874-10.394531 2.550781-2.835938 2.5-4.265626 6.234375-3.828126 9.992187l3.53125 19c4.164063 18.070313 20.554688 30.65625 39.089844 30.011719 15.644532.359375 30.050782-8.476563 36.828125-22.582031l7.769531-17.582032c1.335938-3.453124.847657-7.347656-1.296874-10.363281-2.144532-3.019531-5.660157-4.761719-9.359376-4.636719zm0 0" fill="#2c2f38"/><path d="m294.0625 192.007812c20.90625-.667968 41.738281-2.800781 62.339844-6.390624 3.675781-.90625 7.558594.046874 10.394531 2.550781 2.839844 2.5 4.269531 6.234375 3.828125 9.992187l-3.53125 19c-4.164062 18.070313-20.554688 30.65625-39.089844 30.011719-15.644531.359375-30.050781-8.476563-36.828125-22.582031l-7.777343-17.582032c-1.335938-3.457031-.847657-7.351562 1.296874-10.367187 2.148438-3.019531 5.667969-4.761719 9.367188-4.632813zm0 0" fill="#2c2f38"/><path d="m273.6875 397.242188h-88.273438c-4.875 0-8.828124-3.953126-8.828124-8.828126s3.953124-8.828124 8.828124-8.828124h88.273438c4.878906 0 8.828125 3.953124 8.828125 8.828124s-3.949219 8.828126-8.828125 8.828126zm0 0" fill="#802d40"/><path d="m238.378906 432.550781h-17.65625c-4.875 0-8.828125-3.953125-8.828125-8.828125s3.953125-8.824218 8.828125-8.824218h17.65625c4.875 0 8.828125 3.949218 8.828125 8.824218s-3.953125 8.828125-8.828125 8.828125zm0 0" fill="#f09372"/></svg>