<svg xmlns="http://www.w3.org/2000/svg" viewBox="0 0 67.657 67.657">
  <path d="M33.838 0C24.802 0 16.306 3.52 9.917 9.909 3.527 16.299.009 24.793.009 33.829s3.519 17.53 9.908 23.92 14.884 9.908 23.92 9.908c9.035 0 17.531-3.519 23.92-9.908 13.189-13.19 13.189-34.651 0-47.842C51.369 3.518 42.873 0 33.838 0zm14.255 7.616l-7.496 7.498c-2.079-.748-4.286-1.16-6.561-1.16-2.239 0-4.411.399-6.461 1.125L19.927 7.43C24.164 5.191 28.909 4 33.839 4c5.063 0 9.93 1.257 14.254 3.616zM23.185 44.147c-5.982-5.982-5.982-15.717 0-21.699 2.899-2.898 6.753-4.494 10.851-4.494s7.952 1.596 10.85 4.494c5.982 5.982 5.982 15.718 0 21.701-2.898 2.897-6.751 4.494-10.849 4.494-4.099 0-7.953-1.597-10.852-4.496zM8.287 18.418l7.768 7.768c-1.723 4.375-1.779 9.248-.195 13.663l-8.234 8.235c-2.359-4.324-3.617-9.192-3.617-14.256 0-5.519 1.491-10.807 4.278-15.41zm10.474 41.157l8.258-8.256c2.209.859 4.576 1.324 7.018 1.324 2.478 0 4.88-.475 7.117-1.359l8.094 8.095c-4.602 2.787-9.891 4.278-15.41 4.278-5.387 0-10.552-1.423-15.077-4.082zm41.468-11.843l-7.982-7.982c1.535-4.356 1.478-9.147-.195-13.464l7.528-7.528c5.201 8.887 5.417 19.909.649 28.974z" fill="#788096"/>
</svg>
