<svg xmlns="http://www.w3.org/2000/svg" viewBox="0 0 60 60">
  <path d="M54.07 1H15.93C12.66 1 10 3.66 10 6.93V13h34.07c4.372 0 7.93 3.557 7.93 7.929V34h2.07c3.27 0 5.93-2.66 5.93-5.93V6.93C60 3.66 57.34 1 54.07 1z" fill="#788096"/>
  <path d="M44.07 15H5.93C2.66 15 0 17.66 0 20.929V42.07C0 45.34 2.66 48 5.93 48H12v10c0 .413.254.784.64.933.117.045.239.067.36.067.276 0 .547-.115.74-.327L23.442 48H44.07c3.27 0 5.93-2.66 5.93-5.93V20.929C50 17.66 47.34 15 44.07 15zM12 25.015h14c.553 0 1 .448 1 1s-.447 1-1 1H12c-.553 0-1-.448-1-1s.447-1 1-1zm27 14H12c-.553 0-1-.448-1-1s.447-1 1-1h27c.553 0 1 .448 1 1s-.447 1-1 1zm0-6H12c-.553 0-1-.448-1-1s.447-1 1-1h27c.553 0 1 .448 1 1s-.447 1-1 1z" fill="#788096"/>
</svg>
