<svg xmlns="http://www.w3.org/2000/svg" viewBox="-75 1 511 511.999">
  <path d="M340.550781 70.257812h-13.492187c.578125 2.628907.890625 5.355469.890625 8.15625v41.777344c0 23.832032-19.390625 43.222656-43.226563 43.222656H77.082031c-23.835937 0-43.226562-19.390624-43.226562-43.226562V78.410156c0-2.800781.308593-5.523437.886719-8.152344H21.25c-11.460938 0-20.75 9.289063-20.75 20.75v400.238282C.5 502.707031 9.789062 512 21.25 512h319.300781c11.460938 0 20.753907-9.292969 20.753907-20.753906V91.011719c0-11.460938-9.292969-20.753907-20.753907-20.753907zm-53.230469 352.9375H74.484375c-8.304687 0-15.035156-6.730468-15.035156-15.035156 0-8.300781 6.730469-15.03125 15.035156-15.03125h212.835937c8.304688 0 15.035157 6.730469 15.035157 15.03125 0 8.304688-6.730469 15.035156-15.035157 15.035156zm0-63.390624H74.484375c-8.304687 0-15.035156-6.730469-15.035156-15.035157 0-8.300781 6.730469-15.035156 15.035156-15.035156h212.835937c8.304688 0 15.035157 6.734375 15.035157 15.035156 0 8.304688-6.730469 15.035157-15.035157 15.035157zm0-63.394532H74.484375c-8.304687 0-15.035156-6.730468-15.035156-15.03125 0-8.304687 6.730469-15.035156 15.035156-15.035156h212.835937c8.304688 0 15.035157 6.730469 15.035157 15.035156 0 8.300782-6.730469 15.03125-15.035157 15.03125zm0-63.390625H74.484375c-8.304687 0-15.035156-6.730469-15.035156-15.035156 0-8.300781 6.730469-15.035156 15.035156-15.035156h212.835937c8.304688 0 15.035157 6.734375 15.035157 15.035156 0 8.304687-6.730469 15.035156-15.035157 15.035156zm0 0"/>
  <path d="M77.082031 133.347656h207.640625c7.269532 0 13.160156-5.890625 13.160156-13.15625V78.414062c0-4.464843-3.617187-8.082031-8.078124-8.082031l-45.542969-.703125v-6.234375c0-2.773437-.195313-5.492187-.539063-8.167969-.675781-5.242187-1.984375-10.277343-3.855468-15.035156C230.601562 16.65625 207.695312 0 180.910156 0h-.359375c-26.667969.148438-49.398437 16.773438-58.609375 40.191406-1.875 4.757813-3.183594 9.792969-3.859375 15.035156-.34375 2.675782-.539062 5.394532-.539062 8.167969v6.9375H72c-4.460938 0-8.078125 3.617188-8.078125 8.078125V120.1875c0 7.269531 5.894531 13.160156 13.160156 13.160156zm103.820313-84.898437c8.320312 0 15.0625 6.746093 15.0625 15.066406s-6.742188 15.066406-15.0625 15.066406c-8.320313 0-15.066406-6.746093-15.066406-15.066406s6.746093-15.066406 15.066406-15.066406zm0 0"/>
</svg>
