<svg xmlns="http://www.w3.org/2000/svg" viewBox="1 1 511.99999 511.99999">
  <path d="M469.332031 0H42.667969C19.113281.0273438.0273438 19.113281 0 42.667969v426.664062C.0273438 492.886719 19.113281 511.972656 42.667969 512h426.664062c23.554688-.027344 42.640625-19.113281 42.667969-42.667969V42.667969C511.972656 19.113281 492.886719.0273438 469.332031 0zM42.667969 17.066406h426.664062c14.140625 0 25.601563 11.460938 25.601563 25.601563v25.597656H17.066406V42.667969c0-14.140625 11.460938-25.601563 25.601563-25.601563zm426.664062 477.867188H42.667969c-14.140625 0-25.601563-11.460938-25.601563-25.601563v-384h477.867188v384c0 14.140625-11.460938 25.601563-25.601563 25.601563zm0 0"/>
  <path d="M42.667969 34.132812h17.066406v17.066407H42.667969zm0 0M76.800781 34.132812h17.066407v17.066407H76.800781zm0 0M110.933594 34.132812H128v17.066407h-17.066406zm0 0M360.003906 177.203125c-54.734375-50.457031-137.78125-54.371094-197.015625-9.285156-3.796875 2.910156-7.484375 5.972656-11.027343 9.285156-62.578126 57.222656-66.921876 154.34375-9.699219 216.921875 53.757812 58.789062 143.542969 66.699219 206.753906 18.222656 3.796875-2.910156 7.480469-5.972656 11.023437-9.285156 62.363282-57.316406 66.457032-154.339844 9.136719-216.703125-2.914062-3.175781-5.964843-6.222656-9.136719-9.140625zm-6.339844 207.992187c-7.5-6.222656-15.574218-11.714843-24.117187-16.402343 7.152344-22.710938 11.042969-46.320313 11.554687-70.125h50.988282c-2.0625 32.503906-15.695313 63.199219-38.425782 86.527343zm-13.902343 12.621094c-1.3125 1.03125-2.667969 1.980469-4.019531 2.960938-1.945313 1.40625-3.898438 2.789062-5.902344 4.085937-1.441406.929688-2.910156 1.800781-4.378906 2.679688-2.011719 1.195312-4.035157 2.347656-6.109376 3.414062-1.519531.800781-3.0625 1.570313-4.617187 2.3125-2.089844 1.007813-4.214844 1.945313-6.355469 2.839844-1.453125.597656-2.910156 1.195313-4.378906 1.707031 8.035156-10.003906 14.609375-21.105468 19.523438-32.964844 6.148437 3.488282 12.011718 7.453126 17.535156 11.855469-.441406.375-.851563.765625-1.296875 1.109375zm-142.503907 15.460938c-1.539062-.734375-3.058593-1.496094-4.566406-2.285156-2.089844-1.101563-4.148437-2.269532-6.179687-3.480469-1.441407-.855469-2.882813-1.707031-4.265625-2.628907-2.03125-1.316406-4.011719-2.722656-5.972656-4.148437-1.332032-.964844-2.671876-1.902344-3.96875-2.917969-.445313-.339844-.851563-.734375-1.296876-1.082031 5.503907-4.410156 11.34375-8.382813 17.46875-11.878906C193.386719 396.722656 199.960938 407.828125 208 417.84375c-1.457031-.546875-2.910156-1.132812-4.351562-1.707031-2.160157-.902344-4.300782-1.851563-6.417969-2.859375zm-38.921874-218.207032c7.5 6.222657 15.574218 11.714844 24.117187 16.402344-7.152344 22.710938-11.042969 46.324219-11.554687 70.128906h-50.988282c2.0625-32.507812 15.695313-63.203124 38.425782-86.53125zm13.902343-12.617187c1.3125-1.035156 2.667969-1.980469 4.019531-2.964844 1.945313-1.40625 3.898438-2.789062 5.910157-4.085937 1.433593-.929688 2.902343-1.800782 4.363281-2.671875 2.011719-1.191407 4.042969-2.351563 6.117188-3.410157 1.519531-.804687 3.0625-1.570312 4.617187-2.3125 2.089844-1.007812 4.214844-1.949218 6.355469-2.84375 1.453125-.597656 2.910156-1.195312 4.378906-1.707031-8.035156 10.003907-14.609375 21.101563-19.523438 32.957031-6.148437-3.484374-12.011718-7.449218-17.539062-11.851562.445312-.378906.855469-.769531 1.300781-1.109375zm142.503907-15.464844c1.539062.734375 3.058593 1.496094 4.566406 2.289063 2.089844 1.097656 4.148437 2.269531 6.179687 3.480468 1.441407.851563 2.882813 1.707032 4.265625 2.628907 2.03125 1.3125 4.011719 2.71875 5.972656 4.144531 1.332032.964844 2.671876 1.902344 3.96875 2.917969.445313.34375.851563.734375 1.296876 1.085937-5.503907 4.410156-11.34375 8.378906-17.46875 11.878906C318.613281 183.546875 312.039062 172.4375 304 162.421875c1.457031.546875 2.910156 1.136719 4.351562 1.707031 2.160157.90625 4.300782 1.851563 6.417969 2.859375zm-67.273438 45.988281c-14.964844-.925781-29.667969-4.320312-43.523438-10.046874 10.863282-25.734376 26.292969-43.5625 43.523438-48.085938zm0 17.066407v51.558593h-59.511719c.59375-21.222656 4.039063-42.269531 10.238281-62.578124C213.898438 225.390625 230.546875 229.097656 247.46875 230zm0 68.625v51.601562c-16.933594.894531-33.601562 4.605469-49.316406 10.972657-6.183594-20.308594-9.613282-41.355469-10.195313-62.574219zm0 68.625v58.128906c-17.203125-4.523437-32.632812-22.347656-43.523438-48.085937 13.855469-5.726563 28.558594-9.121094 43.523438-10.042969zm17.0625 0c14.964844.921875 29.667969 4.316406 43.523438 10.042969-10.863282 25.738281-26.292969 43.519531-43.523438 48.085937zm0-17.066407v-51.558593h59.511719c-.582031 21.21875-4.011719 42.265625-10.195313 62.574219-15.714844-6.367188-32.382812-10.078126-49.316406-10.972657zm0-68.625V230c16.933594-.898438 33.601562-4.605469 49.316406-10.976562 6.183594 20.308593 9.613282 41.355468 10.195313 62.574218H264.53125zm0-68.625v-58.128906c17.203125 4.519532 32.632812 22.347656 43.523438 48.085938-13.855469 5.722656-28.558594 9.117187-43.523438 10.042968zm-93.632812 85.691407c.511718 23.804687 4.402343 47.414062 11.554687 70.125-8.546875 4.6875-16.621094 10.179687-24.117187 16.402343-22.734376-23.324218-36.367188-54.019531-38.425782-86.527343zm170.203124-17.066407c-.511718-23.804687-4.402343-47.417968-11.554687-70.128906 8.546875-4.6875 16.621094-10.179687 24.117187-16.402344 22.734376 23.324219 36.367188 54.023438 38.425782 86.527344h-50.988282zm0 0"/>
</svg>
