<?xml version="1.0" encoding="iso-8859-1"?>
<!-- Generator: Adobe Illustrator 18.1.1, SVG Export Plug-In . SVG Version: 6.00 Build 0)  -->
<svg version="1.1" id="Capa_1" xmlns="http://www.w3.org/2000/svg" xmlns:xlink="http://www.w3.org/1999/xlink" x="0px" y="0px"
	 viewBox="0 0 96.001 96.001" style="enable-background:new 0 0 96.001 96.001;" xml:space="preserve">
<g>
	<g>
		<path style="fill:#b9ccea;" d="M47.359,0.004C20.852,0.36-0.349,22.135,0.005,48.642s22.13,47.709,48.637,47.354
			c26.507-0.354,47.709-22.129,47.354-48.638C95.642,20.852,73.865-0.35,47.359,0.004z M48.507,85.892
			C27.581,86.17,10.39,69.434,10.109,48.506C9.83,27.581,26.568,10.389,47.495,10.11c20.926-0.281,38.118,16.456,38.397,37.383
			S69.434,85.611,48.507,85.892z M25.264,70.524c0,0,22.845-3.14,32.591-12.885c9.744-9.745,12.883-32.589,12.883-32.589
			S47.894,28.189,38.15,37.933C28.404,47.679,25.264,70.524,25.264,70.524z M43.076,42.86c4.096-4.097,11.93-7.004,18.646-8.81
			c-1.809,6.706-4.729,14.597-8.796,18.663c-2.719,2.72-7.13,2.722-9.851,0C40.354,49.993,40.354,45.581,43.076,42.86z" />
	</g>
</g>
</svg>
