<?xml version="1.0" encoding="UTF-8" standalone="no"?>
<svg
   xmlns:dc="http://purl.org/dc/elements/1.1/"
   xmlns:cc="http://creativecommons.org/ns#"
   xmlns:rdf="http://www.w3.org/1999/02/22-rdf-syntax-ns#"
   xmlns:svg="http://www.w3.org/2000/svg"
   xmlns="http://www.w3.org/2000/svg"
   xmlns:sodipodi="http://sodipodi.sourceforge.net/DTD/sodipodi-0.dtd"
   xmlns:inkscape="http://www.inkscape.org/namespaces/inkscape"
   viewBox="0 0 489.4 489.4"
   version="1.1"
   id="svg4"
   sodipodi:docname="upload.svg"
   inkscape:version="0.92.2 (5c3e80d, 2017-08-06)">
  <metadata
     id="metadata10">
    <rdf:RDF>
      <cc:Work
         rdf:about="">
        <dc:format>image/svg+xml</dc:format>
        <dc:type
           rdf:resource="http://purl.org/dc/dcmitype/StillImage" />
        <dc:title></dc:title>
      </cc:Work>
    </rdf:RDF>
  </metadata>
  <defs
     id="defs8" />
  <sodipodi:namedview
     pagecolor="#ffffff"
     bordercolor="#666666"
     borderopacity="1"
     objecttolerance="10"
     gridtolerance="10"
     guidetolerance="10"
     inkscape:pageopacity="0"
     inkscape:pageshadow="2"
     inkscape:window-width="1920"
     inkscape:window-height="1027"
     id="namedview6"
     showgrid="false"
     inkscape:zoom="0.48222314"
     inkscape:cx="244.7"
     inkscape:cy="244.7"
     inkscape:window-x="-8"
     inkscape:window-y="-4"
     inkscape:window-maximized="1"
     inkscape:current-layer="svg4" />
  <path
     d="M382.4 422.75H277.4v-106.1h34.7c8.8 0 14-10 8.8-17.2l-67.5-93.4c-4.3-6-13.2-6-17.5 0l-67.5 93.4c-5.2 7.2-.1 17.2 8.8 17.2h34.7v106.1H94.3c-52.5-2.9-94.3-52-94.3-105.2 0-36.7 19.9-68.7 49.4-86-2.7-7.3-4.1-15.1-4.1-23.3 0-37.5 30.3-67.8 67.8-67.8 8.1 0 15.9 1.4 23.2 4.1 21.7-46 68.5-77.9 122.9-77.9 70.4.1 128.4 54 135 122.7 54.1 9.3 95.2 59.4 95.2 116.1 0 60.6-47.2 113.1-107 117.3z"
     id="path2"
     style="fill:#9098b8;fill-opacity:1" />
</svg>
