<?xml version="1.0" encoding="iso-8859-1"?>
<!-- Generator: Adobe Illustrator 16.0.0, SVG Export Plug-In . SVG Version: 6.00 Build 0)  -->
<!DOCTYPE svg PUBLIC "-//W3C//DTD SVG 1.1//EN" "http://www.w3.org/Graphics/SVG/1.1/DTD/svg11.dtd">
<svg xmlns="http://www.w3.org/2000/svg" xmlns:xlink="http://www.w3.org/1999/xlink" version="1.1" id="Capa_1" x="0px" y="0px" width="512px" height="512px" viewBox="0 0 572.686 572.686" style="enable-background:new 0 0 572.686 572.686;" xml:space="preserve">
<g>
	<g>
		<path d="M533.652,47.137H133.282c-21.524,0-39.034,17.509-39.034,39.034c0,21.524,17.509,39.033,39.034,39.033h400.371    c21.523,0,39.033-17.509,39.033-39.033C572.686,64.646,555.176,47.137,533.652,47.137z" fill="#FFDA44"/>
		<path d="M533.652,183.662H133.282c-21.524,0-39.034,17.509-39.034,39.034c0,21.524,17.509,39.033,39.034,39.033h400.371    c21.523,0,39.033-17.509,39.033-39.033C572.686,201.171,555.176,183.662,533.652,183.662z" fill="#FFDA44"/>
		<path d="M533.652,314.184H133.282c-21.524,0-39.034,17.508-39.034,39.033c0,21.523,17.509,39.033,39.034,39.033h400.371    c21.523,0,39.033-17.51,39.033-39.033C572.686,331.691,555.176,314.184,533.652,314.184z" fill="#FFDA44"/>
		<path d="M533.652,447.488H133.282c-21.524,0-39.034,17.51-39.034,39.033c0,21.525,17.509,39.033,39.034,39.033h400.371    c21.523,0,39.033-17.508,39.033-39.033C572.686,464.998,555.176,447.488,533.652,447.488z" fill="#FFDA44"/>
		<path d="M39.034,125.197c21.524,0,39.027-17.509,39.027-39.033s-17.51-39.033-39.027-39.033C17.516,47.131,0,64.64,0,86.164    S17.51,125.197,39.034,125.197z" fill="#FFDA44"/>
		<path d="M39.034,261.729c21.524,0,39.027-17.509,39.027-39.033s-17.51-39.034-39.027-39.034C17.516,183.662,0,201.171,0,222.695    C0,244.219,17.51,261.729,39.034,261.729z" fill="#FFDA44"/>
		<path d="M39.034,392.25c21.524,0,39.027-17.51,39.027-39.033c0-21.525-17.51-39.033-39.027-39.033    C17.516,314.184,0,331.691,0,353.217C0,374.74,17.51,392.25,39.034,392.25z" fill="#FFDA44"/>
		<path d="M39.034,525.549c21.524,0,39.027-17.508,39.027-39.033c0-21.523-17.51-39.033-39.027-39.033    C17.516,447.482,0,464.992,0,486.516C0,508.041,17.51,525.549,39.034,525.549z" fill="#FFDA44"/>
	</g>
</g>
<g>
</g>
<g>
</g>
<g>
</g>
<g>
</g>
<g>
</g>
<g>
</g>
<g>
</g>
<g>
</g>
<g>
</g>
<g>
</g>
<g>
</g>
<g>
</g>
<g>
</g>
<g>
</g>
<g>
</g>
</svg>
