<?xml version="1.0" encoding="utf-8"?>
<!-- Svg Vector Icons : http://www.onlinewebfonts.com/icon -->
<!DOCTYPE svg PUBLIC "-//W3C//DTD SVG 1.1//EN" "http://www.w3.org/Graphics/SVG/1.1/DTD/svg11.dtd">
<svg version="1.1" xmlns="http://www.w3.org/2000/svg" xmlns:xlink="http://www.w3.org/1999/xlink" x="0px" y="0px" viewBox="0 0 1000 1000" enable-background="new 0 0 1000 1000" xml:space="preserve">
<metadata> Svg Vector Icons : http://www.onlinewebfonts.com/icon </metadata>
<g><g fill="#ffffff" transform="translate(0.000000,511.000000) scale(0.100000,-0.100000)"><path d="M4489.9,4986c-856.8-91-1741.6-441.2-2448.9-971.2c-224.1-170.4-616.3-546.3-812.4-779.7c-350.2-420.2-712-1071.6-884.8-1594.5C-48.5,450,35.6-857.4,574.9-1980.3C1065.1-3000.5,1805.2-3756.9,2809-4268.2c1153.3-586,2479.3-681.7,3735.3-268.5c1459.1,480.9,2621.7,1643.5,3105,3104.9c527.6,1601.5,212.5,3317.4-849.8,4634.1C8110.8,4054.5,7062.6,4691.8,5998,4906.6C5489.1,5007,4970.8,5035,4489.9,4986z M5416.7,4075.5c1207-130.7,2273.9-786.7,2927.5-1795.3c894.1-1377.4,856.8-3137.6-93.4-4482.3c-200.8-284.8-653.7-737.7-938.5-938.5c-793.8-562.6-1781.3-821.7-2726.7-716.7C2704-3651.8,1240.2-2188.1,1034.8-306.4C871.3,1169,1574,2639.8,2830,3454.5C3600.4,3954.1,4520.2,4173.6,5416.7,4075.5z"/><path d="M4837.7,3132.3v-361.9h163.4h163.4v361.9v361.9h-163.4h-163.4V3132.3z"/><path d="M3303.9,3050.6c-67.7-39.7-123.7-81.7-123.7-95.7c0-23.3,98.1-200.8,273.1-492.6l79.4-133.1l133.1,79.4c72.4,44.4,130.7,93.4,126.1,109.7c-11.7,49-336.2,602.3-352.5,602.3C3432.3,3120.7,3369.3,3088,3303.9,3050.6z"/><path d="M6383.2,2835.9c-91.1-158.7-168.1-301.2-172.8-317.5c-4.7-16.3,51.4-65.4,121.4-109.7c119.1-74.7,130.7-77,158.7-39.7c53.7,70,331.5,562.6,331.5,586S6598,3120.7,6563,3120.7C6553.6,3120.7,6474.2,2992.3,6383.2,2835.9z"/><path d="M2059.6,1808.7c-37.4-67.7-70-130.7-70-137.7c0-16.3,553.3-340.8,602.3-352.5c16.3-4.7,65.4,53.7,109.7,126.1l79.4,133.1l-133.1,79.4c-291.8,175.1-469.2,273.1-492.6,273.1C2141.3,1930.1,2099.3,1874,2059.6,1808.7z"/><path d="M7522.5,1755c-161.1-93.4-289.5-182.1-287.1-196.1c11.7-46.7,151.7-259.1,165.7-252.1c182.1,98.1,611.6,352.5,611.6,364.2c0,39.7-144.7,259.1-170.4,259.1C7828.3,1927.7,7683.6,1850.7,7522.5,1755z"/><path d="M3693.8,1811c0-16.3,109.7-483.2,245.1-1038.9c135.4-557.9,245.1-1027.2,245.1-1043.5c0-18.7-21-79.4-44.4-137.8c-70-154.1-86.4-375.9-39.7-555.6c182.1-707.4,1043.5-947.9,1554.8-436.6c357.2,357.2,364.2,915.2,18.7,1291C5563.8,6.4,5307,146.5,5150.6,169.8l-105,14l-609.3,751.7C3712.5,1825,3693.8,1846,3693.8,1811z"/><path d="M1616.1,109.1V-54.3h361.9h361.9v163.4v163.4h-361.9h-361.9V109.1z"/><path d="M7662.5,109.1V-54.3h361.8h361.9v163.4v163.4h-361.9h-361.8V109.1z"/><path d="M1709.4-740.7c0-44.4,186.8-527.6,261.5-677c312.8-625.7,880.1-1190.6,1512.8-1508.1c224.1-112.1,583.6-238.2,840.4-294.2c284.8-63,1069.2-63,1354,0c667.7,144.7,1242,457.6,1715.9,933.8c420.2,420.2,698,884.8,859.1,1433.4l37.4,121.4h-898.8h-896.5v-123.8c0-168.1-53.7-366.5-156.4-576.6c-65.4-133.1-133.1-221.8-284.8-373.5c-310.5-308.2-628-443.6-1052.9-443.6c-420.2,0-742.4,135.4-1052.9,443.6c-156.4,154.1-219.4,238.1-284.8,373.5c-102.7,210.1-156.4,408.5-156.4,576.6v123.8h-898.8C2113.3-731.3,1709.4-736,1709.4-740.7z"/></g></g>
</svg>
