<?xml version="1.0" ?><svg height="60px" version="1.1" viewBox="0 0 54 60" width="54px" xmlns="http://www.w3.org/2000/svg" xmlns:xlink="http://www.w3.org/1999/xlink"><title/><desc/><g fill="none" fill-rule="evenodd" id="Page-1" stroke="none" stroke-width="1"><g id="020---santa,-christmas,-emoji,-cold,-freezing,"><path d="M27.789,-1.55679054e-05 C39.2032385,-0.0133619722 48.7935279,8.57625029 50.033,19.923 C50.4400031,23.5311119 50.6573022,27.1581034 50.684,30.789 L45.158,30.789 L27.789,-1.55679054e-05 Z" fill="#D94452" id="Path"/><path d="M47.58,26.9 C47.5397403,26.8983562 47.4994323,26.9017152 47.46,26.91 C47.3148216,26.9303861 47.171168,26.9604531 47.03,27 C46.8842276,27.0306801 46.740594,27.0707639 46.6,27.12 C46.4529791,27.1628438 46.3092671,27.216318 46.17,27.28 C46.14,27.29 46.12,27.3 46.09,27.31 C45.3749755,25.4374635 44.4022716,23.6738067 43.2,22.07 C44.3311572,21.8700857 45.1567152,20.8886825 45.16,19.74 L45.16,16.58 C45.1602654,15.9513556 44.9106549,15.3483826 44.4661362,14.9038638 C44.0216174,14.4593451 43.4186444,14.2097346 42.79,14.21 L41.95,14.21 C41.3721277,6.6532782 35.3754792,0.64389795 27.82,0.05 L27.79,0 L27.89,0 C28.21,0 28.53,0.01 28.86,0.02 C29.46,0.05 30.06,0.11 30.66,0.19 C37.6971104,1.30429067 43.0476549,7.10588656 43.59,14.21 L44.44,14.21 C45.0686444,14.2097346 45.6716174,14.4593451 46.1161362,14.9038638 C46.5606549,15.3483826 46.8102654,15.9513556 46.81,16.58 L46.81,19.74 C46.8096134,20.8877424 45.9815517,21.867897 44.85,22.06 C45.9636052,23.5497069 46.8811219,25.1763665 47.58,26.9 Z" fill="#C93A4C" id="Path"/><circle cx="48.316" cy="32.368" fill="#E4E8EB" id="Oval" r="5.526"/><path d="M49.689,35.282 C49.6883247,36.107464 49.6435944,36.9323038 49.555,37.753 C49.1489212,37.8483192 48.7331148,37.8959742 48.316,37.895 C48.0191672,37.8966727 47.7228434,37.8702212 47.431,37.816 C47.5265145,36.9747237 47.573925,36.1286806 47.573,35.282 C47.5787068,32.5548251 47.0754252,29.8505344 46.089,27.308 C46.7023334,27.0373864 47.3611527,26.8847248 48.031,26.858 C49.1283643,29.5308183 49.6916323,32.3926819 49.689,35.282 Z" fill="#D1D8DB" id="Path"/><path d="M47.571,35.285 C47.5794185,41.1575471 45.2486969,46.7916537 41.094,50.942 C41.094,50.9464183 41.0904183,50.95 41.086,50.95 C35.0754637,56.9575044 26.1579847,58.9970279 18.1336321,56.1994537 C10.1092795,53.4018794 4.39263125,46.2603796 3.41976351,37.8182125 C2.44689578,29.3760455 6.38931118,21.1214438 13.567,16.572 L13.575,16.564 C20.3994229,12.2472845 29.0319339,11.9852713 36.1055944,15.8801536 C43.1792548,19.7750359 47.5737137,27.2099286 47.575,35.285 L47.571,35.285 Z" fill="#5688FD" id="Path"/><path d="M41.086,50.95 C35.0754637,56.9575044 26.1579847,58.9970279 18.1336321,56.1994537 C10.1092795,53.4018794 4.39263125,46.2603796 3.41976351,37.8182125 C2.44689578,29.3760455 6.38931118,21.1214438 13.567,16.572 C5.59615455,24.5582569 4.90073471,37.2592592 11.9519999,46.0680239 C19.0032651,54.8767886 31.5483799,56.9789699 41.086,50.95 Z" fill="#4777E6" id="Path"/><path d="M25.143,-6.93753547e-16 L26.6,-6.93753547e-16 C30.6847406,-0.00132686077 34.6025618,1.62074239 37.4909097,4.50909029 C40.3792576,7.3974382 42.0013269,11.3152594 42,15.4 L42.0000008,19.742 L8.842,19.742 L8.842,16.3 C8.84199999,11.9767979 10.5594538,7.83067762 13.616513,4.7738059 C16.6735723,1.71693418 20.819798,-0.00026522712 25.143,-6.93753547e-16 Z" fill="#EB5463" id="Path"/><path d="M27.845,0.055 C19.3502213,0.698931299 12.7870759,7.78085079 12.79,16.3 L12.79,19.734 L8.842,19.734 L8.842,16.3 C8.84199993,11.9764514 10.5597282,7.8300279 13.6172201,4.77309868 C16.6747119,1.71616946 20.8214515,-0.000795745144 25.145,8.8817842e-16 L26.605,8.8817842e-16 C27.024,8.8817842e-16 27.442,0.016 27.845,0.055 Z" fill="#D94452" id="Path"/><rect fill="#E4E8EB" height="7.895" id="Rectangle" rx="2.368" width="39.474" x="5.684" y="14.211"/><path d="M10.421,22.1050034 L8.053,22.105 C7.42455007,22.1060634 6.82151927,21.8569519 6.37704362,21.4126639 C5.93256798,20.9683759 5.68320191,20.3654503 5.684,19.737 L5.684,16.579 C5.68320191,15.9505497 5.93256798,15.3476241 6.37704362,14.9033361 C6.82151927,14.4590481 7.42455007,14.2099366 8.053,14.211 L10.421,14.2109966 C9.79272322,14.2102025 9.18994969,14.4594314 8.74569056,14.9036906 C8.30143142,15.3479497 8.05220252,15.9507232 8.053,16.579 L8.053,19.737 C8.05220252,20.3652768 8.30143142,20.9680503 8.74569056,21.4123094 C9.18994969,21.8565686 9.79272322,22.1057975 10.421,22.1050034 Z" fill="#CAD0D7" id="Path"/><path d="M50.684,40.658 C50.6854524,37.6299002 48.4015834,35.0888527 45.3904868,34.7684029 C42.3793903,34.4479531 39.6118809,36.4514179 38.976,39.412 C37.3867483,40.0977756 35.944986,41.0841909 34.73,42.317 C34.2458799,42.802271 33.7967552,43.3212374 33.386,43.87 C31.602,45.654 28.442,45.789 25.421,45.789 C22.4,45.789 19.24,45.654 17.457,43.87 C17.0456002,43.321465 16.5961598,42.80252 16.112,42.317 C14.8974685,41.0836474 13.4555937,40.0971551 11.866,39.412 C11.3343896,36.9440191 9.29615981,35.0847139 6.78985263,34.7814586 C4.28354546,34.4782033 1.86068692,35.7977308 0.755799305,38.0677006 C-0.349088314,40.3376703 0.107131311,43.0585636 1.892,44.844 C1.286,47.365 2.566,50.865 5.37,53.669 C8.221,56.521 11.792,57.795 14.321,57.113 C16.462,58.833 20.63,60 25.421,60 C30.212,60 34.38,58.833 36.521,57.113 C39.05,57.795 42.621,56.521 45.472,53.669 C48.272,50.869 49.556,47.369 48.95,44.844 C50.0620935,43.7350642 50.6861675,42.228505 50.684,40.658 Z" fill="#B1CEFD" id="Path"/><path d="M47.053,50.589 C47.6385324,50.007141 48.171909,49.375053 48.647,48.7 C47.9874706,50.5804124 46.9014327,52.2825448 45.474,53.673 C42.624,56.523 39.047,57.802 36.521,57.115 C34.382,58.831 30.213,60 25.421,60 C20.629,60 16.461,58.831 14.321,57.11 C11.795,57.797 8.221,56.518 5.369,53.668 C2.569,50.868 1.287,47.368 1.895,44.842 C-0.397548265,42.5603196 -0.425648554,38.8582181 1.832,36.542 C1.76806675,36.8829373 1.73626072,37.2291208 1.737,37.576 C1.73393727,39.1466856 2.35941626,40.6533086 3.474,41.76 C2.866,44.286 4.145,47.784 6.947,50.586 C9.797,53.436 13.374,54.715 15.9,54.028 C18.04,55.75 22.208,56.918 27,56.918 C31.792,56.918 35.961,55.75 38.1,54.028 C40.626,54.718 44.2,53.439 47.053,50.589 Z" fill="#9BBCF0" id="Path"/><circle cx="18.11" cy="30" fill="#FFFFFF" id="Oval" r="5.526"/><path d="M18.917,35.469 C18.6495926,35.5061707 18.3799774,35.5252142 18.11,35.526 C15.0580745,35.526 12.584,33.0519255 12.584,30 C12.584,26.9480745 15.0580745,24.474 18.11,24.474 C18.3799774,24.4747858 18.6495926,24.4938293 18.917,24.531 C16.2068887,24.9335425 14.20033,27.2601562 14.20033,30 C14.20033,32.7398438 16.2068887,35.0664575 18.917,35.469 Z" fill="#EFF3F4" id="Path"/><circle cx="18.11" cy="30" fill="#424852" id="Oval" r="2.072"/><circle cx="33.9" cy="30" fill="#FFFFFF" id="Oval" r="5.526"/><path d="M34.707,35.469 C34.4395887,35.5061343 34.169976,35.5251776 33.9,35.526 C31.9257503,35.5260001 30.1014683,34.4727504 29.1143435,32.763 C28.1272186,31.0532497 28.1272186,28.9467503 29.1143435,27.237 C30.1014683,25.5272496 31.9257503,24.4739999 33.9,24.474 C34.169976,24.4748224 34.4395887,24.4938657 34.707,24.531 C31.9943511,24.9305294 29.9844955,27.2580868 29.9844955,30 C29.9844955,32.7419132 31.9943511,35.0694706 34.707,35.469 Z" fill="#EFF3F4" id="Path"/><circle cx="33.9" cy="30" fill="#424852" id="Oval" r="2.072"/><path d="M38.889,27 C38.8057681,26.9998344 38.7228516,26.9897636 38.642,26.97 L30.754,24.97 C30.2182838,24.8341379 29.894138,24.2897162 30.03,23.754 C30.1658621,23.2182838 30.7102838,22.894138 31.246,23.03 L39.134,25.03 C39.6241287,25.152834 39.9456173,25.621993 39.8832575,26.1234165 C39.8208977,26.6248401 39.3942855,27.0009612 38.889,27 Z" fill="#B1CEFD" id="Path"/><path d="M13,27 C12.4947145,27.0009612 12.0681023,26.6248401 12.0057425,26.1234165 C11.9433827,25.621993 12.2648713,25.152834 12.755,25.03 L20.643,23.03 C21.1787162,22.894138 21.7231379,23.2182838 21.859,23.754 C21.994862,24.2897162 21.6707162,24.8341379 21.135,24.97 L13.247,26.97 C13.1661484,26.9897636 13.0832319,26.9998344 13,27 Z" fill="#B1CEFD" id="Path"/><path d="M28,2.2 C28,2.2 34.2,5.16 35.852,8 C35.5497226,6.48773222 34.8266597,5.09152065 33.766,3.972 C31.9,1.842 28,2.2 28,2.2 Z" fill="#F77286" id="Path"/><rect fill="#424852" height="5" id="Rectangle" rx="2" width="11.25" x="19.875" y="40"/><path d="M29.825,39.169 C29.95,38.598 29.507,42.727 29.656,43.214 C29.6951418,43.8670807 29.6951418,44.5219193 29.656,45.175 C29.727,45.82 29.888,46.689 29.888,46.86 C29.888,47.031 29.903,48.56 30.188,48.506 C30.473,48.452 30.328,47.229 30.361,46.742 C30.394,46.255 30.395,45.57 30.395,45.268 C30.4769917,44.7713937 30.5314085,44.2706264 30.558,43.768 C30.5793271,43.2696549 30.6284032,42.772885 30.705,42.28 C30.705,42.245 30.717,42.18 30.724,42.126 C30.7943152,42.1680396 30.8671155,42.2057755 30.942,42.239 C30.9568199,42.3382734 30.9608434,42.43886 30.954,42.539 C31.1239505,43.0611749 31.1918513,43.6111706 31.154,44.159 C31.0103884,44.504331 31.0103884,44.892669 31.154,45.238 C31.34,45.607 31.073,46.225 31.154,46.449 C31.2634017,46.9335828 31.330322,47.4267857 31.354,47.923 C31.354,48.187 31.692,48.323 31.692,47.66 C31.6818812,47.1463836 31.7575887,46.634682 31.916,46.146 C32.0278793,45.5965118 32.0645483,45.0343659 32.025,44.475 C32.0016613,43.7150367 32.1217572,42.9574824 32.379,42.242 C32.553,42.242 32.396,43.342 32.65,43.895 C32.904,44.448 32.783,44.83 32.925,45.238 C33.0377781,46.0005192 33.0377781,46.7754808 32.925,47.538 C32.843,48.064 33.068,49.051 32.949,49.775 C32.9121789,50.5278817 33.0097008,51.2813056 33.237,52 C33.3508291,51.5160433 33.4197877,51.0226209 33.443,50.526 C33.443,50.183 33.543,49.552 33.634,48.801 C33.725,48.05 33.668,47.643 33.754,47.208 C33.84,46.773 33.745,46.076 33.841,45.563 C33.937,45.05 33.962,44.247 34.006,43.891 C34.05,43.535 34.414,42.809 34.539,42.238 C34.664,41.667 34.469,43.904 34.618,44.391 C34.6571411,45.0444144 34.6571411,45.6995856 34.618,46.353 C34.689,46.998 34.85,47.867 34.85,48.038 C34.85,48.209 34.865,49.738 35.15,49.683 C35.435,49.628 35.291,48.406 35.324,47.919 C35.357,47.432 35.357,46.748 35.357,46.445 C35.4394901,45.9484349 35.4942417,45.4476584 35.521,44.945 C35.5423042,44.446985 35.5913805,43.9505467 35.668,43.458 C35.7265743,43.0178185 35.8205455,42.5830766 35.949,42.158 C35.968,42.094 36.042,42.051 36.127,42.01 C36.1019803,42.4134412 36.1200828,42.8184004 36.181,43.218 C36.2201418,43.8710807 36.2201418,44.5259193 36.181,45.179 C36.253,45.824 36.413,46.693 36.413,46.864 C36.413,47.035 36.428,48.564 36.713,48.51 C36.998,48.456 36.854,47.233 36.887,46.746 C36.92,46.259 36.92,45.574 36.92,45.272 C37.0024901,44.7754349 37.0572417,44.2746584 37.084,43.772 C37.1053271,43.2736549 37.1544032,42.776885 37.231,42.284 C37.2895207,41.8437241 37.383833,41.4089511 37.513,40.984 C37.7597486,40.005359 37.9193717,39.0067943 37.99,38 C37.946,37.792 29.764,39.448 29.825,39.169 Z" fill="#FFFFFF" id="Path"/><path d="M27.125,41.753 L30.617,42.732 C33.7804075,43.5772676 37.1288014,42.2939856 38.917,39.551 L39.08,39.314 C40.2147458,37.6128211 40.6542277,35.5413868 40.308,33.526 C39.3898,34.4127595 38.2752456,35.0702541 37.055,35.445 C35.85234,35.8194212 34.5756764,35.8901943 33.339,35.651 L29.098,34.851 C27.2114181,34.3593578 25.2818951,35.4833865 24.779,37.367 C24.5036812,38.259727 24.5966867,39.2254731 25.0373124,40.0492515 C25.4779381,40.87303 26.2296111,41.4864655 27.125,41.753 Z" fill="#B1CEFD" id="Path"/><path d="M25.005,39.968 C25.42167,40.8418634 26.1963093,41.4925021 27.129,41.752 L30.618,42.731 C33.7818358,43.5800259 37.1325715,42.2954426 38.918,39.549 L39.084,39.312 C40.2182828,37.6114046 40.6564244,35.5402548 40.308,33.526 C39.8243326,33.9861043 39.2891159,34.3887752 38.713,34.726 C38.5228384,35.80228 38.1096581,36.8268853 37.5,37.734 L37.335,37.97 C35.5491554,40.7159283 32.1988014,42.0003652 29.035,41.152 L25.546,40.173 C25.3598176,40.1212309 25.1787365,40.0526142 25.005,39.968 Z" fill="#9BBCF0" id="Path"/><path d="M23.715,41.753 L20.223,42.732 C17.0596098,43.5769388 13.7114056,42.2937295 11.923,39.551 L11.761,39.314 C10.6259064,37.6129604 10.1860643,35.5415153 10.532,33.526 C11.4502,34.4127595 12.5647544,35.0702541 13.785,35.445 C14.9876675,35.81938 16.2643208,35.8901525 17.501,35.651 L21.742,34.851 C23.6285819,34.3593578 25.5581049,35.4833865 26.061,37.367 C26.3363188,38.259727 26.2433133,39.2254731 25.8026876,40.0492515 C25.3620619,40.87303 24.6103889,41.4864655 23.715,41.753 Z" fill="#B1CEFD" id="Path"/><path d="M25.838,39.968 C25.42133,40.8418634 24.6466907,41.4925021 23.714,41.752 L20.225,42.731 C17.0611986,43.5793652 13.7108446,42.2949283 11.925,39.549 L11.76,39.312 C10.6257172,37.6114046 10.1875756,35.5402548 10.536,33.526 C11.01947,33.9863374 11.5547149,34.3890294 12.131,34.726 C12.3196417,35.8018947 12.7311085,36.8264742 13.339,37.734 L13.504,37.97 C15.2898446,40.7159283 18.6401986,42.0003652 21.804,41.152 L25.293,40.173 C25.4805485,40.1214616 25.6629783,40.0528412 25.838,39.968 Z" fill="#9BBCF0" id="Path"/></g></g></svg>