<?xml version="1.0" ?><svg height="60px" version="1.1" viewBox="0 0 54 60" width="54px" xmlns="http://www.w3.org/2000/svg" xmlns:xlink="http://www.w3.org/1999/xlink"><title/><desc/><g fill="none" fill-rule="evenodd" id="Page-1" stroke="none" stroke-width="1"><g id="004---santa,-christmas,-emoji,-cool,-sunglasses,"><path d="M27.789,-1.55679054e-05 C39.2032385,-0.0133619722 48.7935279,8.57625029 50.033,19.923 C50.4400031,23.5311119 50.6573022,27.1581034 50.684,30.789 L45.158,30.789 L27.789,-1.55679054e-05 Z" fill="#D94452" id="Path"/><path d="M47.58,26.9 C47.5397403,26.8983562 47.4994323,26.9017152 47.46,26.91 C47.3148216,26.9303861 47.171168,26.9604531 47.03,27 C46.8842276,27.0306801 46.740594,27.0707639 46.6,27.12 C46.4529791,27.1628438 46.3092671,27.216318 46.17,27.28 C46.14,27.29 46.12,27.3 46.09,27.31 C45.3749755,25.4374635 44.4022716,23.6738067 43.2,22.07 C44.3311572,21.8700857 45.1567152,20.8886825 45.16,19.74 L45.16,16.58 C45.1602654,15.9513556 44.9106549,15.3483826 44.4661362,14.9038638 C44.0216174,14.4593451 43.4186444,14.2097346 42.79,14.21 L41.95,14.21 C41.3721277,6.6532782 35.3754792,0.64389795 27.82,0.05 L27.79,0 L27.89,0 C28.21,0 28.53,0.01 28.86,0.02 C29.46,0.05 30.06,0.11 30.66,0.19 C37.6971104,1.30429067 43.0476549,7.10588656 43.59,14.21 L44.44,14.21 C45.0686444,14.2097346 45.6716174,14.4593451 46.1161362,14.9038638 C46.5606549,15.3483826 46.8102654,15.9513556 46.81,16.58 L46.81,19.74 C46.8096134,20.8877424 45.9815517,21.867897 44.85,22.06 C45.9636052,23.5497069 46.8811219,25.1763665 47.58,26.9 Z" fill="#C93A4C" id="Path"/><circle cx="48.316" cy="32.368" fill="#E4E8EB" id="Oval" r="5.526"/><path d="M47.571,35.285 C47.5794185,41.1575471 45.2486969,46.7916537 41.094,50.942 C41.094,50.9464183 41.0904183,50.95 41.086,50.95 C35.0754637,56.9575044 26.1579847,58.9970279 18.1336321,56.1994537 C10.1092795,53.4018794 4.39263125,46.2603796 3.41976351,37.8182125 C2.44689578,29.3760455 6.38931118,21.1214438 13.567,16.572 L13.575,16.564 C20.3994229,12.2472845 29.0319339,11.9852713 36.1055944,15.8801536 C43.1792548,19.7750359 47.5737137,27.2099286 47.575,35.285 L47.571,35.285 Z" fill="#FDCD56" id="Path"/><path d="M41.086,50.95 C35.0754637,56.9575044 26.1579847,58.9970279 18.1336321,56.1994537 C10.1092795,53.4018794 4.39263125,46.2603796 3.41976351,37.8182125 C2.44689578,29.3760455 6.38931118,21.1214438 13.567,16.572 C5.59615455,24.5582569 4.90073471,37.2592592 11.9519999,46.0680239 C19.0032651,54.8767886 31.5483799,56.9789699 41.086,50.95 Z" fill="#F5B945" id="Path"/><path d="M25.143,-6.93753547e-16 L26.6,-6.93753547e-16 C30.6847406,-0.00132686077 34.6025618,1.62074239 37.4909097,4.50909029 C40.3792576,7.3974382 42.0013269,11.3152594 42,15.4 L42.0000008,19.742 L8.842,19.742 L8.842,16.3 C8.84199999,11.9767979 10.5594538,7.83067762 13.616513,4.7738059 C16.6735723,1.71693418 20.819798,-0.00026522712 25.143,-6.93753547e-16 Z" fill="#EB5463" id="Path"/><path d="M27.845,0.055 C19.3502213,0.698931299 12.7870759,7.78085079 12.79,16.3 L12.79,19.734 L8.842,19.734 L8.842,16.3 C8.84199993,11.9764514 10.5597282,7.8300279 13.6172201,4.77309868 C16.6747119,1.71616946 20.8214515,-0.000795745144 25.145,8.8817842e-16 L26.605,8.8817842e-16 C27.024,8.8817842e-16 27.442,0.016 27.845,0.055 Z" fill="#D94452" id="Path"/><rect fill="#E4E8EB" height="7.895" id="Rectangle" rx="2.368" width="39.474" x="5.684" y="14.211"/><path d="M10.421,22.1050034 L8.053,22.105 C7.42455007,22.1060634 6.82151927,21.8569519 6.37704362,21.4126639 C5.93256798,20.9683759 5.68320191,20.3654503 5.684,19.737 L5.684,16.579 C5.68320191,15.9505497 5.93256798,15.3476241 6.37704362,14.9033361 C6.82151927,14.4590481 7.42455007,14.2099366 8.053,14.211 L10.421,14.2109966 C9.79272322,14.2102025 9.18994969,14.4594314 8.74569056,14.9036906 C8.30143142,15.3479497 8.05220252,15.9507232 8.053,16.579 L8.053,19.737 C8.05220252,20.3652768 8.30143142,20.9680503 8.74569056,21.4123094 C9.18994969,21.8565686 9.79272322,22.1057975 10.421,22.1050034 Z" fill="#CAD0D7" id="Path"/><path d="M49.689,35.282 C49.6883247,36.107464 49.6435944,36.9323038 49.555,37.753 C49.1489212,37.8483192 48.7331148,37.8959742 48.316,37.895 C48.0191672,37.8966727 47.7228434,37.8702212 47.431,37.816 C47.5265145,36.9747237 47.573925,36.1286806 47.573,35.282 C47.5787068,32.5548251 47.0754252,29.8505344 46.089,27.308 C46.7023334,27.0373864 47.3611527,26.8847248 48.031,26.858 C49.1283643,29.5308183 49.6916323,32.3926819 49.689,35.282 Z" fill="#D1D8DB" id="Path"/><path d="M50.684,40.658 C50.6854524,37.6299002 48.4015834,35.0888527 45.3904868,34.7684029 C42.3793903,34.4479531 39.6118809,36.4514179 38.976,39.412 C37.3867483,40.0977756 35.944986,41.0841909 34.73,42.317 C34.2458799,42.802271 33.7967552,43.3212374 33.386,43.87 C31.602,45.654 28.442,45.789 25.421,45.789 C22.4,45.789 19.24,45.654 17.457,43.87 C17.0456002,43.321465 16.5961598,42.80252 16.112,42.317 C14.8974685,41.0836474 13.4555937,40.0971551 11.866,39.412 C11.3343896,36.9440191 9.29615981,35.0847139 6.78985263,34.7814586 C4.28354546,34.4782033 1.86068692,35.7977308 0.755799305,38.0677006 C-0.349088314,40.3376703 0.107131311,43.0585636 1.892,44.844 C1.286,47.365 2.566,50.865 5.37,53.669 C8.221,56.521 11.792,57.795 14.321,57.113 C16.462,58.833 20.63,60 25.421,60 C30.212,60 34.38,58.833 36.521,57.113 C39.05,57.795 42.621,56.521 45.472,53.669 C48.272,50.869 49.556,47.369 48.95,44.844 C50.0620935,43.7350642 50.6861675,42.228505 50.684,40.658 Z" fill="#F4F6F8" id="Path"/><path d="M47.053,50.589 C47.6385324,50.007141 48.171909,49.375053 48.647,48.7 C47.9874706,50.5804124 46.9014327,52.2825448 45.474,53.673 C42.624,56.523 39.047,57.802 36.521,57.115 C34.382,58.831 30.213,60 25.421,60 C20.629,60 16.461,58.831 14.321,57.11 C11.795,57.797 8.221,56.518 5.369,53.668 C2.569,50.868 1.287,47.368 1.895,44.842 C-0.397548265,42.5603196 -0.425648554,38.8582181 1.832,36.542 C1.76806675,36.8829373 1.73626072,37.2291208 1.737,37.576 C1.73393727,39.1466856 2.35941626,40.6533086 3.474,41.76 C2.866,44.286 4.145,47.784 6.947,50.586 C9.797,53.436 13.374,54.715 15.9,54.028 C18.04,55.75 22.208,56.918 27,56.918 C31.792,56.918 35.961,55.75 38.1,54.028 C40.626,54.718 44.2,53.439 47.053,50.589 Z" fill="#E4E8EB" id="Path"/><path d="M28,2.2 C28,2.2 34.2,5.16 35.852,8 C35.5497226,6.48773222 34.8266597,5.09152065 33.766,3.972 C31.9,1.842 28,2.2 28,2.2 Z" fill="#F77286" id="Path"/><path d="M24,45 C23.4477153,45 23,44.5522847 23,44 C23,43.4477153 23.4477153,43 24,43 C25.2324312,42.9373413 26.4402883,42.6314687 27.554,42.1 C28.048571,41.8534049 28.6494048,42.0544291 28.8959999,42.549 C29.1425951,43.043571 28.941571,43.6444048 28.447,43.891 C27.0555314,44.5593014 25.542336,44.9366645 24,45 Z" fill="#424852" id="Path"/><path d="M27.125,41.753 L30.617,42.732 C33.7804075,43.5772676 37.1288014,42.2939856 38.917,39.551 L39.08,39.314 C40.2147458,37.6128211 40.6542277,35.5413868 40.308,33.526 C39.3898,34.4127595 38.2752456,35.0702541 37.055,35.445 C35.85234,35.8194212 34.5756764,35.8901943 33.339,35.651 L29.098,34.851 C27.2114181,34.3593578 25.2818951,35.4833865 24.779,37.367 C24.5036812,38.259727 24.5966867,39.2254731 25.0373124,40.0492515 C25.4779381,40.87303 26.2296111,41.4864655 27.125,41.753 Z" fill="#F4F6F8" id="Path"/><path d="M25.005,39.968 C25.42167,40.8418634 26.1963093,41.4925021 27.129,41.752 L30.618,42.731 C33.7818358,43.5800259 37.1325715,42.2954426 38.918,39.549 L39.084,39.312 C40.2182828,37.6114046 40.6564244,35.5402548 40.308,33.526 C39.8243326,33.9861043 39.2891159,34.3887752 38.713,34.726 C38.5228384,35.80228 38.1096581,36.8268853 37.5,37.734 L37.335,37.97 C35.5491554,40.7159283 32.1988014,42.0003652 29.035,41.152 L25.546,40.173 C25.3598176,40.1212309 25.1787365,40.0526142 25.005,39.968 Z" fill="#E4E8EB" id="Path"/><path d="M23.715,41.753 L20.223,42.732 C17.0596098,43.5769388 13.7114056,42.2937295 11.923,39.551 L11.761,39.314 C10.6259064,37.6129604 10.1860643,35.5415153 10.532,33.526 C11.4502,34.4127595 12.5647544,35.0702541 13.785,35.445 C14.9876675,35.81938 16.2643208,35.8901525 17.501,35.651 L21.742,34.851 C23.6285819,34.3593578 25.5581049,35.4833865 26.061,37.367 C26.3363188,38.259727 26.2433133,39.2254731 25.8026876,40.0492515 C25.3620619,40.87303 24.6103889,41.4864655 23.715,41.753 Z" fill="#F4F6F8" id="Path"/><path d="M25.838,39.968 C25.42133,40.8418634 24.6466907,41.4925021 23.714,41.752 L20.225,42.731 C17.0611986,43.5793652 13.7108446,42.2949283 11.925,39.549 L11.76,39.312 C10.6257172,37.6114046 10.1875756,35.5402548 10.536,33.526 C11.01947,33.9863374 11.5547149,34.3890294 12.131,34.726 C12.3196417,35.8018947 12.7311085,36.8264742 13.339,37.734 L13.504,37.97 C15.2898446,40.7159283 18.6401986,42.0003652 21.804,41.152 L25.293,40.173 C25.4805485,40.1214616 25.6629783,40.0528412 25.838,39.968 Z" fill="#E4E8EB" id="Path"/><path d="M25.43,24.952 C26.4604387,24.9429385 27.4865765,24.8178161 28.489,24.579 C35.043,23.085 45,24.952 45,24.952 L45,26.381 C44.0933161,26.8728729 43.3488729,27.6173161 42.857,28.524 C42.4377594,29.7143051 42.1503735,30.9470129 42,32.2 C41.6042626,34.6152991 39.5155022,36.3872727 37.068,36.384 L33.568,36.384 C31.8630151,36.384 30.2278766,35.706629 29.022364,34.5009288 C27.8168514,33.2952287 27.1397348,31.6599849 27.14,29.955 C27.1411054,28.7718436 26.1831557,27.8116558 25,27.81 C23.8168442,27.8099999 22.8575521,28.7688443 22.857,29.952 C22.8572652,31.6569849 22.1801486,33.2922287 20.974636,34.4979288 C19.7691234,35.703629 18.1339849,36.381 16.429,36.381 L12.934,36.381 C10.4867057,36.3854942 8.39717314,34.6148547 8,32.2 C7.84876265,30.9479526 7.56070833,29.7162605 7.141,28.527 C6.65012811,27.6194876 5.90636494,26.8739874 5,26.381 L5,24.952 C5,24.952 14.957,23.085 21.511,24.579 C22.5134235,24.8178161 23.5395613,24.9429385 24.57,24.952 L25.43,24.952 Z" fill="#3C4347" id="Path"/><path d="M35.714,36.381 L33.571,36.381 C30.0207519,36.3804478 27.143,33.5022482 27.143,29.952 C27.1428449,29.3838011 26.9165186,28.8390346 26.514,28.438 C26.3805776,28.3063666 26.2318488,28.1912109 26.071,28.095 L27.143,27.81 C28.3254714,27.811651 29.2837971,28.7695295 29.286,29.952 C29.286,33.5022482 32.1637519,36.3804478 35.714,36.381 Z" fill="#333A3D" id="Path"/><path d="M15.079,36.381 L12.936,36.381 C10.4893204,36.3827283 8.4007656,34.6136344 8,32.2 C7.85013574,30.9485526 7.56273228,29.7174463 7.143,28.529 C6.65190084,27.6204688 5.90738422,26.8742151 5,26.381 L5,24.952 C8.74709869,24.2963795 12.5461258,23.98342 16.35,24.017 C13.2627842,24.111056 10.1860969,24.4235033 7.143,24.952 L7.143,26.381 C8.04944125,26.8731978 8.79380217,27.6175587 9.286,28.524 C9.70573228,29.7124463 9.99313574,30.9435526 10.143,32.195 C10.5415803,34.6106217 12.6307164,36.3823242 15.079,36.381 Z" fill="#333A3D" id="Path"/><path d="M37.065,37.381 L33.571,37.381 C29.4700667,37.3765898 26.1468581,34.0529339 26.143,29.952 C26.143,29.3207385 25.6312615,28.809 25,28.809 C24.3687385,28.809 23.857,29.3207385 23.857,29.952 C23.8531419,34.0529339 20.5299333,37.3765898 16.429,37.381 L12.935,37.381 C9.99264353,37.3956399 7.47913654,35.2625556 7.015,32.357 C6.89437183,31.2019341 6.63689964,30.0652968 6.248,28.971 C5.85163667,28.2563737 5.26262633,27.6673633 4.548,27.271 C4.21378271,27.0996023 4.0025828,26.7565951 4,26.381 L4,24.952 C3.99987422,24.4709592 4.34226261,24.0579925 4.815,23.969 C5.23,23.891 15.054,22.08 21.733,23.604 C22.6622331,23.8263107 23.6135859,23.9430494 24.569,23.952 L25.431,23.952 C26.3867388,23.9429714 27.338414,23.8262344 28.268,23.604 C34.947,22.081 44.768,23.892 45.185,23.969 C45.6577374,24.0579925 46.0001258,24.4709592 46,24.952 L46,26.381 C45.9997978,26.7596657 45.7857294,27.1057365 45.447,27.275 C44.7323737,27.6713633 44.1433633,28.2603737 43.747,28.975 C43.3581683,30.0689728 43.1006969,31.2052711 42.98,32.36 C42.5148277,35.2624827 40.0044961,37.3933998 37.065,37.381 Z M25,26.81 C26.7347555,26.8116528 28.1407951,28.2172451 28.143,29.952 C28.1463056,32.9485933 30.5744074,35.3771424 33.571,35.381 L37.065,35.381 C39.0246831,35.3920489 40.6998636,33.9728576 41.011,32.038 C41.1433288,30.6799441 41.463726,29.3468631 41.963,28.077 C42.443457,27.1670464 43.1436623,26.3915614 44,25.821 L44,25.8 C41.519,25.405 33.923,24.371 28.712,25.558 C27.6368218,25.814105 26.5362165,25.9482842 25.431,25.958 L24.569,25.958 C23.4641082,25.9483619 22.3638256,25.8141811 21.289,25.558 C16.078,24.367 8.481,25.4 6,25.8 L6,25.824 C6.85633767,26.3945614 7.55654295,27.1700464 8.037,28.08 C8.53627404,29.3498631 8.85667118,30.6829441 8.989,32.041 C9.30013637,33.9758576 10.9753169,35.3950489 12.935,35.384 L16.429,35.384 C19.4255926,35.3801424 21.8536944,32.9515933 21.857,29.955 C21.857551,28.2190735 23.2640742,26.8116553 25,26.81 Z" fill="#2A2F33" fill-rule="nonzero" id="Shape"/><path d="M16.429,34.523 C15.8767153,34.523 15.429,34.0752847 15.429,33.523 C15.429,32.9707153 15.8767153,32.523 16.429,32.523 C17.848467,32.5218971 18.9988971,31.371467 19,29.952 C19,29.3997153 19.4477153,28.952 20,28.952 C20.5522847,28.952 21,29.3997153 21,29.952 C20.9972443,32.4753513 18.9523513,34.5202443 16.429,34.523 Z" fill="#464E51" id="Path"/><path d="M36.429,34.523 C35.8767153,34.523 35.429,34.0752847 35.429,33.523 C35.429,32.9707153 35.8767153,32.523 36.429,32.523 C37.848467,32.5218971 38.9988971,31.371467 39,29.952 C39,29.3997153 39.4477153,28.952 40,28.952 C40.5522847,28.952 41,29.3997153 41,29.952 C40.9972443,32.4753513 38.9523513,34.5202443 36.429,34.523 Z" fill="#464E51" id="Path"/></g></g></svg>