<?xml version="1.0" ?><svg height="60px" version="1.1" viewBox="0 0 54 60" width="54px" xmlns="http://www.w3.org/2000/svg" xmlns:xlink="http://www.w3.org/1999/xlink"><title/><desc/><g fill="none" fill-rule="evenodd" id="Page-1" stroke="none" stroke-width="1"><g id="010---santa,-christmas,-emoji,-nerd,-smart,"><path d="M27.789,-1.55679054e-05 C39.2032385,-0.0133619722 48.7935279,8.57625029 50.033,19.923 C50.4400031,23.5311119 50.6573022,27.1581034 50.684,30.789 L45.158,30.789 L27.789,-1.55679054e-05 Z" fill="#D94452" id="Path"/><path d="M47.58,26.9 C47.5397403,26.8983562 47.4994323,26.9017152 47.46,26.91 C47.3148216,26.9303861 47.171168,26.9604531 47.03,27 C46.8842276,27.0306801 46.740594,27.0707639 46.6,27.12 C46.4529791,27.1628438 46.3092671,27.216318 46.17,27.28 C46.14,27.29 46.12,27.3 46.09,27.31 C45.3749755,25.4374635 44.4022716,23.6738067 43.2,22.07 C44.3311572,21.8700857 45.1567152,20.8886825 45.16,19.74 L45.16,16.58 C45.1602654,15.9513556 44.9106549,15.3483826 44.4661362,14.9038638 C44.0216174,14.4593451 43.4186444,14.2097346 42.79,14.21 L41.95,14.21 C41.3721277,6.6532782 35.3754792,0.64389795 27.82,0.05 L27.79,0 L27.89,0 C28.21,0 28.53,0.01 28.86,0.02 C29.46,0.05 30.06,0.11 30.66,0.19 C37.6971104,1.30429067 43.0476549,7.10588656 43.59,14.21 L44.44,14.21 C45.0686444,14.2097346 45.6716174,14.4593451 46.1161362,14.9038638 C46.5606549,15.3483826 46.8102654,15.9513556 46.81,16.58 L46.81,19.74 C46.8096134,20.8877424 45.9815517,21.867897 44.85,22.06 C45.9636052,23.5497069 46.8811219,25.1763665 47.58,26.9 Z" fill="#C93A4C" id="Path"/><circle cx="48.316" cy="32.368" fill="#E4E8EB" id="Oval" r="5.526"/><path d="M47.571,35.285 C47.5794185,41.1575471 45.2486969,46.7916537 41.094,50.942 C41.094,50.9464183 41.0904183,50.95 41.086,50.95 C35.0754637,56.9575044 26.1579847,58.9970279 18.1336321,56.1994537 C10.1092795,53.4018794 4.39263125,46.2603796 3.41976351,37.8182125 C2.44689578,29.3760455 6.38931118,21.1214438 13.567,16.572 L13.575,16.564 C20.3994229,12.2472845 29.0319339,11.9852713 36.1055944,15.8801536 C43.1792548,19.7750359 47.5737137,27.2099286 47.575,35.285 L47.571,35.285 Z" fill="#FDCD56" id="Path"/><path d="M49.689,35.282 C49.6883247,36.107464 49.6435944,36.9323038 49.555,37.753 C49.1489212,37.8483192 48.7331148,37.8959742 48.316,37.895 C48.0191672,37.8966727 47.7228434,37.8702212 47.431,37.816 C47.5265145,36.9747237 47.573925,36.1286806 47.573,35.282 C47.5787068,32.5548251 47.0754252,29.8505344 46.089,27.308 C46.7023334,27.0373864 47.3611527,26.8847248 48.031,26.858 C49.1283643,29.5308183 49.6916323,32.3926819 49.689,35.282 Z" fill="#D1D8DB" id="Path"/><path d="M41.086,50.95 C35.0754637,56.9575044 26.1579847,58.9970279 18.1336321,56.1994537 C10.1092795,53.4018794 4.39263125,46.2603796 3.41976351,37.8182125 C2.44689578,29.3760455 6.38931118,21.1214438 13.567,16.572 C5.59615455,24.5582569 4.90073471,37.2592592 11.9519999,46.0680239 C19.0032651,54.8767886 31.5483799,56.9789699 41.086,50.95 Z" fill="#F5B945" id="Path"/><circle cx="18.11" cy="30" fill="#FFFFFF" id="Oval" r="5.526"/><path d="M18.917,35.469 C18.6495926,35.5061707 18.3799774,35.5252142 18.11,35.526 C15.0580745,35.526 12.584,33.0519255 12.584,30 C12.584,26.9480745 15.0580745,24.474 18.11,24.474 C18.3799774,24.4747858 18.6495926,24.4938293 18.917,24.531 C16.2068887,24.9335425 14.20033,27.2601562 14.20033,30 C14.20033,32.7398438 16.2068887,35.0664575 18.917,35.469 Z" fill="#EFF3F4" id="Path"/><circle cx="18.11" cy="30" fill="#424852" id="Oval" r="2.072"/><circle cx="33.9" cy="30" fill="#FFFFFF" id="Oval" r="5.526"/><path d="M34.707,35.469 C34.4395887,35.5061343 34.169976,35.5251776 33.9,35.526 C31.9257503,35.5260001 30.1014683,34.4727504 29.1143435,32.763 C28.1272186,31.0532497 28.1272186,28.9467503 29.1143435,27.237 C30.1014683,25.5272496 31.9257503,24.4739999 33.9,24.474 C34.169976,24.4748224 34.4395887,24.4938657 34.707,24.531 C31.9943511,24.9305294 29.9844955,27.2580868 29.9844955,30 C29.9844955,32.7419132 31.9943511,35.0694706 34.707,35.469 Z" fill="#EFF3F4" id="Path"/><circle cx="33.9" cy="30" fill="#424852" id="Oval" r="2.072"/><path d="M25.143,-6.93753547e-16 L26.6,-6.93753547e-16 C30.6847406,-0.00132686077 34.6025618,1.62074239 37.4909097,4.50909029 C40.3792576,7.3974382 42.0013269,11.3152594 42,15.4 L42.0000008,19.742 L8.842,19.742 L8.842,16.3 C8.84199999,11.9767979 10.5594538,7.83067762 13.616513,4.7738059 C16.6735723,1.71693418 20.819798,-0.00026522712 25.143,-6.93753547e-16 Z" fill="#EB5463" id="Path"/><path d="M27.845,0.055 C19.3502213,0.698931299 12.7870759,7.78085079 12.79,16.3 L12.79,19.734 L8.842,19.734 L8.842,16.3 C8.84199993,11.9764514 10.5597282,7.8300279 13.6172201,4.77309868 C16.6747119,1.71616946 20.8214515,-0.000795745144 25.145,8.8817842e-16 L26.605,8.8817842e-16 C27.024,8.8817842e-16 27.442,0.016 27.845,0.055 Z" fill="#D94452" id="Path"/><rect fill="#E4E8EB" height="7.895" id="Rectangle" rx="2.368" width="39.474" x="5.684" y="14.211"/><path d="M10.421,22.1050034 L8.053,22.105 C7.42455007,22.1060634 6.82151927,21.8569519 6.37704362,21.4126639 C5.93256798,20.9683759 5.68320191,20.3654503 5.684,19.737 L5.684,16.579 C5.68320191,15.9505497 5.93256798,15.3476241 6.37704362,14.9033361 C6.82151927,14.4590481 7.42455007,14.2099366 8.053,14.211 L10.421,14.2109966 C9.79272322,14.2102025 9.18994969,14.4594314 8.74569056,14.9036906 C8.30143142,15.3479497 8.05220252,15.9507232 8.053,16.579 L8.053,19.737 C8.05220252,20.3652768 8.30143142,20.9680503 8.74569056,21.4123094 C9.18994969,21.8565686 9.79272322,22.1057975 10.421,22.1050034 Z" fill="#CAD0D7" id="Path"/><path d="M50.684,40.658 C50.6854524,37.6299002 48.4015834,35.0888527 45.3904868,34.7684029 C42.3793903,34.4479531 39.6118809,36.4514179 38.976,39.412 C37.3867483,40.0977756 35.944986,41.0841909 34.73,42.317 C34.2458799,42.802271 33.7967552,43.3212374 33.386,43.87 C31.602,45.654 28.442,45.789 25.421,45.789 C22.4,45.789 19.24,45.654 17.457,43.87 C17.0456002,43.321465 16.5961598,42.80252 16.112,42.317 C14.8974685,41.0836474 13.4555937,40.0971551 11.866,39.412 C11.3343896,36.9440191 9.29615981,35.0847139 6.78985263,34.7814586 C4.28354546,34.4782033 1.86068692,35.7977308 0.755799305,38.0677006 C-0.349088314,40.3376703 0.107131311,43.0585636 1.892,44.844 C1.286,47.365 2.566,50.865 5.37,53.669 C8.221,56.521 11.792,57.795 14.321,57.113 C16.462,58.833 20.63,60 25.421,60 C30.212,60 34.38,58.833 36.521,57.113 C39.05,57.795 42.621,56.521 45.472,53.669 C48.272,50.869 49.556,47.369 48.95,44.844 C50.0620935,43.7350642 50.6861675,42.228505 50.684,40.658 Z" fill="#F4F6F8" id="Path"/><path d="M47.053,50.589 C47.6385324,50.007141 48.171909,49.375053 48.647,48.7 C47.9874706,50.5804124 46.9014327,52.2825448 45.474,53.673 C42.624,56.523 39.047,57.802 36.521,57.115 C34.382,58.831 30.213,60 25.421,60 C20.629,60 16.461,58.831 14.321,57.11 C11.795,57.797 8.221,56.518 5.369,53.668 C2.569,50.868 1.287,47.368 1.895,44.842 C-0.397548265,42.5603196 -0.425648554,38.8582181 1.832,36.542 C1.76806675,36.8829373 1.73626072,37.2291208 1.737,37.576 C1.73393727,39.1466856 2.35941626,40.6533086 3.474,41.76 C2.866,44.286 4.145,47.784 6.947,50.586 C9.797,53.436 13.374,54.715 15.9,54.028 C18.04,55.75 22.208,56.918 27,56.918 C31.792,56.918 35.961,55.75 38.1,54.028 C40.626,54.718 44.2,53.439 47.053,50.589 Z" fill="#E4E8EB" id="Path"/><path d="M39.08,39.31 L38.91,39.55 C37.127213,42.2937956 33.7804289,43.5776042 30.62,42.73 L30.2,42.61 L27.15,41.76 L27.12,41.75 C26.4498879,41.5642126 25.8551689,41.1723977 25.42,40.63 C24.6880346,39.7126169 24.4491945,38.4960252 24.78,37.37 C25.2984841,35.5031326 27.2104193,34.3896855 29.09,34.86 L33.34,35.65 C34.5747387,35.8918003 35.8504344,35.8195911 37.05,35.44 C38.2703862,35.0721645 39.384844,34.4172062 40.3,33.53 C40.6481041,35.5418009 40.2114594,37.6104945 39.08,39.31 Z" fill="#F4F6F8" id="Path"/><path d="M25.005,39.968 C25.42167,40.8418634 26.1963093,41.4925021 27.129,41.752 L30.618,42.731 C33.7818358,43.5800259 37.1325715,42.2954426 38.918,39.549 L39.084,39.312 C40.2182828,37.6114046 40.6564244,35.5402548 40.308,33.526 C39.8243326,33.9861043 39.2891159,34.3887752 38.713,34.726 C38.5228384,35.80228 38.1096581,36.8268853 37.5,37.734 L37.335,37.97 C35.5491554,40.7159283 32.1988014,42.0003652 29.035,41.152 L25.546,40.173 C25.3598176,40.1212309 25.1787365,40.0526142 25.005,39.968 Z" fill="#E4E8EB" id="Path"/><path d="M25.42,40.63 C24.9848311,41.1723977 24.3901121,41.5642126 23.72,41.75 L23.69,41.76 L20.64,42.61 L20.22,42.73 C17.0595711,43.5776042 13.712787,42.2937956 11.93,39.55 L11.76,39.31 C10.6285406,37.6104945 10.1918959,35.5418009 10.54,33.53 C11.455156,34.4172062 12.5696138,35.0721645 13.79,35.44 C14.9895656,35.8195911 16.2652613,35.8918003 17.5,35.65 L21.75,34.86 C23.6295807,34.3896855 25.5415159,35.5031326 26.06,37.37 C26.3908055,38.4960252 26.1519654,39.7126169 25.42,40.63 Z" fill="#F4F6F8" id="Path"/><path d="M25.838,39.968 C25.42133,40.8418634 24.6466907,41.4925021 23.714,41.752 L20.225,42.731 C17.0611986,43.5793652 13.7108446,42.2949283 11.925,39.549 L11.76,39.312 C10.6257172,37.6114046 10.1875756,35.5402548 10.536,33.526 C11.01947,33.9863374 11.5547149,34.3890294 12.131,34.726 C12.3196417,35.8018947 12.7311085,36.8264742 13.339,37.734 L13.504,37.97 C15.2898446,40.7159283 18.6401986,42.0003652 21.804,41.152 L25.293,40.173 C25.4805485,40.1214616 25.6629783,40.0528412 25.838,39.968 Z" fill="#E4E8EB" id="Path"/><path d="M28,2.2 C28,2.2 34.2,5.16 35.852,8 C35.5497226,6.48773222 34.8266597,5.09152065 33.766,3.972 C31.9,1.842 28,2.2 28,2.2 Z" fill="#F77286" id="Path"/><path d="M18,38 C13.581722,38 10,34.418278 10,30 C10,25.581722 13.581722,22 18,22 C22.418278,22 26,25.581722 26,30 C25.9950401,34.4162219 22.4162219,37.9950401 18,38 Z M18,24 C14.6862915,24 12,26.6862915 12,30 C12,33.3137085 14.6862915,36 18,36 C21.3137085,36 24,33.3137085 24,30 C23.9966926,26.6876624 21.3123376,24.0033074 18,24 Z" fill="#424852" fill-rule="nonzero" id="Shape"/><path d="M34,38 C29.581722,38 26,34.418278 26,30 C26,25.581722 29.581722,22 34,22 C38.418278,22 42,25.581722 42,30 C41.9950401,34.4162219 38.4162219,37.9950401 34,38 Z M34,24 C30.6862915,24 28,26.6862915 28,30 C28,33.3137085 30.6862915,36 34,36 C37.3137085,36 40,33.3137085 40,30 C39.9966926,26.6876624 37.3123376,24.0033074 34,24 Z" fill="#424852" fill-rule="nonzero" id="Shape"/><path d="M11,31 L4,31 C3.44771525,31 3,30.5522847 3,30 C3,29.4477153 3.44771525,29 4,29 L11,29 C11.5522847,29 12,29.4477153 12,30 C12,30.5522847 11.5522847,31 11,31 Z" fill="#424852" id="Path"/><path d="M48,31 L41,31 C40.4477153,31 40,30.5522847 40,30 C40,29.4477153 40.4477153,29 41,29 L48,29 C48.5522847,29 49,29.4477153 49,30 C49,30.5522847 48.5522847,31 48,31 Z" fill="#424852" id="Path"/><path d="M27,31 L25,31 C24.4477153,31 24,30.5522847 24,30 C24,29.4477153 24.4477153,29 25,29 L27,29 C27.5522847,29 28,29.4477153 28,30 C28,30.5522847 27.5522847,31 27,31 Z" fill="#424852" id="Path"/><path d="M19.876,43 L31.126,43 C31.126,43 31.651,46 25.401,46 C19.151,46 19.876,43 19.876,43 Z" fill="#424852" id="Path"/><path d="M25.4,43 L25.4,46.125 C25.3991256,46.3209164 25.3653212,46.5152918 25.3,46.7 C25.3,46.712 25.3,46.712 25.287,46.712 C25.0500556,47.4839755 24.3334798,48.008081 23.526,48 L23,48 C22.5025563,48.0005315 22.0253339,47.8031581 21.6735879,47.4514121 C21.3218419,47.0996661 21.1244685,46.6224437 21.125,46.125 L21.1249989,43 L25.4,43 Z" fill="#FFFFFF" id="Path"/><path d="M25.4,43 L29.874,43 L29.874,46.5 C29.874,47.3284271 29.2024271,48 28.374,48 L26.9,48 C26.0715729,48 25.4,47.3284271 25.4,46.5 L25.4,43 Z" fill="#FFFFFF" id="Path"/><path d="M29.851,46.438 C29.6962507,47.3396903 28.9148726,47.9990704 28,48 L27.275,48 C26.7775563,48.0005315 26.3003339,47.8031581 25.9485879,47.4514121 C25.5968419,47.0996661 25.3994685,46.6224437 25.4,46.125 L25.3999989,43 L25.825,43 L25.825,45.225 C25.8244685,45.7224437 26.0218419,46.1996661 26.3735879,46.5514121 C26.7253339,46.9031581 27.2025563,47.1005315 27.7,47.1 L28.426,47.1 C28.9765704,47.105722 29.5002637,46.8624343 29.851,46.438 Z" fill="#E4E8EB" id="Path"/><path d="M25.289,46.712 C25.051846,47.4846917 24.3342165,48.0089723 23.526,48 L23,48 C22.5025563,48.0005315 22.0253339,47.8031581 21.6735879,47.4514121 C21.3218419,47.0996661 21.1244685,46.6224437 21.125,46.125 L21.1249989,43 L21.551,43 L21.551,45.225 C21.5502013,45.7226987 21.7476262,46.2002283 22.0996466,46.552061 C22.451667,46.9038938 22.9293018,47.1010641 23.427,47.1 L24.151,47.1 C24.5633983,47.1037144 24.9647654,46.9668687 25.289,46.712 Z" fill="#E4E8EB" id="Path"/></g></g></svg>