<svg xmlns="http://www.w3.org/2000/svg" viewBox="0 0 512 512"><path d="M454.531 52.245L256 0 57.469 52.245S7.836 423.184 256 512C504.163 423.184 454.531 52.245 454.531 52.245z" fill="#518ef8"/><path d="M256 0v512C7.837 423.184 57.469 52.245 57.469 52.245L256 0z" fill="#73aaf9"/><circle cx="256" cy="242.939" r="141.061" fill="#3a5bbc"/><path d="M256 126.485c30.354 0 54.962 24.607 54.962 54.962S286.354 236.408 256 236.408s-54.975-24.607-54.975-54.962 24.621-54.961 54.975-54.961zm109.192 205.753C339.331 363.833 300.016 384 256 384c-44.029 0-83.331-20.167-109.192-51.762 16.875-43.833 59.402-74.932 109.192-74.932s92.317 31.099 109.192 74.932z" fill="#f2f2f2"/></svg>