<svg xmlns="http://www.w3.org/2000/svg" width="1200" height="1200"><path fill="#fff" d="M529.01 931.787c0 39.217 31.783 70.987 70.988 70.987s70.99-31.771 70.99-70.987c0-2.835-.186-5.625-.508-8.374h289.537V822.001c0-42.254-57.469-37.186-104.797-111.553-47.322-74.368-75.211-234.944-75.211-297.485 0-55.432-19.471-98.848-132.164-108.013 16.242-11.196 26.602-27.967 26.602-46.693 0-33.673-33.393-61.03-74.449-61.03-41.051 0-74.449 27.357-74.449 61.03 0 18.727 10.359 35.497 26.602 46.693-112.689 9.165-132.16 52.581-132.16 108.013 0 62.541-27.889 223.117-75.215 297.485C297.447 784.815 239.982 779.747 239.982 822v101.412H529.52a71.252 71.252 0 0 0-.51 8.375zm20.361-673.531c0-20.521 22.713-37.21 50.627-37.21 27.916 0 50.629 16.688 50.629 37.21 0 20.522-22.713 37.211-50.629 37.211-27.914 0-50.627-16.688-50.627-37.211z"/></svg>