<svg xmlns="http://www.w3.org/2000/svg" viewBox="0 0 512 512"><path d="M397.504 425.529v51.919H0V34.552l36.571 28.207L73.13 34.552l36.571 28.207 36.571-28.207 36.571 28.207 36.558-28.207 36.584 28.207 36.558-28.207 36.571 28.207 36.584-28.207 36.571 28.207 36.571-28.207 36.584 28.207L512 34.552v328.387H397.504v62.59z" fill="#e6e6e6"/><path fill="#3a5bbc" d="M35.699 219.324H255.74v220.041H35.699z"/><path fill="#518ef8" d="M35.699 123.668h440.59v57.118H35.699z"/><path d="M290.461 226.738H486.06v19.543H290.461zm0 47.255H486.06v19.543H290.461zm0 47.254H486.06v19.543H290.461zm0 47.255h116.815v19.543H290.461zm0 47.255h116.815V435.3H290.461z" fill="#ccc"/><path d="M145.725 393.074c-35.137 0-63.723-28.586-63.723-63.723s28.586-63.723 63.723-63.723c17.019 0 33.021 6.629 45.058 18.666l-13.818 13.818c-8.346-8.346-19.44-12.941-31.239-12.941-24.361 0-44.18 19.819-44.18 44.18s19.819 44.18 44.18 44.18c21.003 0 38.631-14.734 43.091-34.409h-43.092V319.58h63.723v9.772c.001 35.136-28.586 63.722-63.723 63.722z" fill="#fff"/><path fill="#999" d="M512 362.939L397.504 477.448V362.939z"/></svg>