<svg xmlns="http://www.w3.org/2000/svg" viewBox="0 0 512 512"><path d="M512 150.582v210.836c0 37.639-30.515 68.154-68.154 68.154H68.154C30.515 429.572 0 399.057 0 361.418V150.582c0-37.639 30.515-68.154 68.154-68.154h375.693c37.638 0 68.153 30.515 68.153 68.154z" fill="#d32e2a"/><path d="M68.154 403.712c-23.32 0-42.294-18.973-42.294-42.294V150.582c0-23.32 18.973-42.294 42.294-42.294h375.693c23.32 0 42.294 18.973 42.294 42.294v210.836c0 23.32-18.973 42.294-42.294 42.294H68.154z" fill="#f14336"/><path fill="#f2f2f2" d="M331.989 256.97l-131.006 75.64V181.33z"/></svg>