<?xml version="1.0" encoding="iso-8859-1"?>
<!-- Generator: Adobe Illustrator 18.1.1, SVG Export Plug-In . SVG Version: 6.00 Build 0)  -->
<svg version="1.1" id="Capa_1" xmlns="http://www.w3.org/2000/svg" xmlns:xlink="http://www.w3.org/1999/xlink" x="0px" y="0px"
	 viewBox="0 0 474.172 474.172" style="enable-background:new 0 0 474.172 474.172;" xml:space="preserve">
<g>
	<g>
		<g>
			<path style="fill:#d7dae0;" d="M0,91.963V382.21h474.172V91.963H0z M122.701,285.496l-10.909-78.189l26.475,16.631
				l-44.561-35.262h42.829l4.333,45.991c0.545,5.462,0.984,10.827,1.398,16.347c2.227-5.284,4.82-11.063,7.82-17.436l21.216-44.902
				h28.166l-49.95,96.819C149.517,285.496,122.701,285.496,122.701,285.496z M193.484,285.496l18.395-96.819h25.207l-18.371,96.819
				H193.484z M261.309,286.87c-11.502,0-21.898-2.642-27.8-7.072l-1.731-1.317l8.519-21.012l2.853,1.707
				c5.723,3.422,13.03,5.422,20.053,5.422c5.365,0,11.665-2.081,11.665-7.885c0-3.032-1.764-5.698-10.779-10.356
				c-9.559-5.162-20.476-12.851-20.476-26.71c0-19.094,15.965-32.441,38.814-32.441c9.348,0,16.834,1.634,22.849,4.95l2.13,1.171
				l-8.055,21.581l-2.878-1.577c-1.122-0.626-7.21-3.707-15.103-3.707c-8.112,0-11.559,3.528-11.559,6.787
				c0,3.495,4.463,6.267,11.843,10.388c13.128,6.893,19.533,15.591,19.533,26.556C301.188,273.401,285.175,286.87,261.309,286.87z
				 M360.072,285.496l-1.886-23.646h-21.841l-10.835,23.646h-27.019l47.129-96.819h29.295l11.347,96.819H360.072z"/>
		</g>
		<g>
			<path style="fill:#d7dae0;" d="M354.885,218.451c-1.008,2.593-2.04,5.056-3.056,7.234l-7.202,15.647h12.258l-1.512-16.558
				C355.251,222.906,355.072,220.752,354.885,218.451z"/>
		</g>
	</g>
</g>
<g>
</g>
<g>
</g>
<g>
</g>
<g>
</g>
<g>
</g>
<g>
</g>
<g>
</g>
<g>
</g>
<g>
</g>
<g>
</g>
<g>
</g>
<g>
</g>
<g>
</g>
<g>
</g>
<g>
</g>
</svg>
