<svg xmlns="http://www.w3.org/2000/svg" viewBox="0 0 512 512"><path d="M256 0C114.615 0 0 114.615 0 256s114.615 256 256 256 256-114.615 256-256S397.385 0 256 0z" fill="#ce4234"/><path d="M256 485.984c-126.814 0-229.984-103.17-229.984-229.984S129.186 26.016 256 26.016c126.812 0 229.984 103.17 229.984 229.984S382.812 485.984 256 485.984z" fill="#e3513d"/><path d="M472.207 237.787v36.426h-40.71v40.71h-36.426v-40.71h-40.696v-36.426h40.696v-40.71h36.426v40.71zm-160.241-6.341a131.3 131.3 0 0 1 2.3 24.554c0 9.413-.986 18.583-2.871 27.441-12.613 59.408-65.379 103.975-128.544 103.975-50.051 0-93.562-27.969-115.759-69.136-9.986-18.542-15.657-39.74-15.657-62.28 0-72.579 58.837-131.415 131.415-131.415 31.883 0 61.123 11.356 83.876 30.254l-42.566 34.854c-11.984-7.485-26.14-11.813-41.31-11.813-34.253 0-63.365 22.055-73.907 52.738a78.134 78.134 0 0 0-4.213 25.383c0 9.642 1.743 18.884 4.956 27.412 11.099 29.626 39.667 50.71 73.164 50.71 14.399 0 27.883-3.886 39.454-10.685 15.37-9.013 27.383-23.112 33.711-39.996h-70.279v-51.995h126.231v-.001z" fill="#f2f2f2"/></svg>