<svg height="512pt" viewBox="0 0 512 512.00063" width="512pt" xmlns="http://www.w3.org/2000/svg"><path d="m401.566406 114.757812h13.332032c25.757812-.011718 50.464843 10.214844 68.675781 28.425782 18.214843 18.214844 28.441406 42.921875 28.425781 68.679687v176.550781c.015625 25.757813-10.210938 50.464844-28.425781 68.679688-18.210938 18.210938-42.917969 28.4375-68.675781 28.425781h-317.792969c-25.757813.011719-50.464844-10.214843-68.679688-28.425781-18.214843-18.214844-28.441406-42.921875-28.425781-68.679688v-176.550781c-.015625-25.757812 10.210938-50.464843 28.425781-68.679687 18.214844-18.210938 42.921875-28.4375 68.679688-28.425782zm0 0" fill="#e57e25"/><path d="m282.128906 94.101562-26.128906 55.96875-23.039062-53.585937c6.621093-26.921875 25.070312-76.09375 73.710937-95.601563 1.484375-.597656 3.074219-.898437 4.675781-.882812 3.179688-.0078125 6.230469 1.253906 8.46875 3.511719 2.242188 2.257812 3.484375 5.316406 3.449219 8.496093.003906 3.128907-1.269531 6.128907-3.53125 8.296876-20.757813 19.460937-34.058594 45.566406-37.605469 73.796874zm0 0" fill="#4c8056"/><g fill="#f29c1f"><path d="m88.277344 176.550781c-.023438-25.757812 10.203125-50.46875 28.417968-68.683593 18.214844-18.214844 42.925782-28.441407 68.683594-28.417969 15.597656-.132813 30.832032 4.722656 43.476563 13.859375 16.3125 10.605468 26.4375 28.488281 27.144531 47.933594.703125-19.441407 10.828125-37.324219 27.136719-47.933594 12.644531-9.136719 27.882812-13.996094 43.484375-13.859375 25.761718-.023438 50.472656 10.203125 68.6875 28.417969 18.214844 18.214843 28.4375 42.925781 28.414062 68.683593l-7.722656 262.179688c-.316406 12.902343-4.71875 25.367187-12.578125 35.601562-3.085937 3.988281-6.480469 7.730469-10.152344 11.1875-18.003906 17.035157-41.859375 26.515625-66.648437 26.480469h-141.242188c-30.03125-.070312-58.359375-13.964844-76.800781-37.667969-7.855469-10.234375-12.261719-22.699219-12.578125-35.601562zm0 0"/><path d="m44.324219 167.355469c11.070312 0 20.046875 8.972656 20.046875 20.046875v91.214844c0 11.070312-8.976563 20.046874-20.046875 20.046874-11.074219 0-20.046875-8.976562-20.046875-20.046874v-91.214844c0-11.074219 8.972656-20.046875 20.046875-20.046875zm0 0"/><path d="m469.371094 167.355469c11.074218 0 20.046875 8.972656 20.046875 20.046875v91.214844c0 11.070312-8.972657 20.046874-20.046875 20.046874-11.070313 0-20.046875-8.976562-20.046875-20.046874v-91.214844c0-11.074219 8.976562-20.046875 20.046875-20.046875zm0 0"/></g><path d="m220.691406 277.441406c0 29.246094-23.710937 37.828125-52.96875 37.828125-29.253906 0-52.964844-8.582031-52.964844-37.828125s23.710938-83.234375 52.964844-83.234375c29.257813 0 52.96875 53.980469 52.96875 83.234375zm0 0" fill="#2c3e50"/><path d="m397.242188 277.441406c0 29.246094-23.710938 37.828125-52.964844 37.828125s-52.964844-8.582031-52.964844-37.828125 23.710938-83.234375 52.964844-83.234375 52.964844 53.980469 52.964844 83.234375zm0 0" fill="#2c3e50"/><path d="m405.363281 344.277344c-7.101562 67.328125-59.105469 121.191406-126.144531 130.648437l-4.328125-26.128906c-.695313-4.285156-4.398437-7.429687-8.738281-7.417969h-20.304688c-4.339844-.011718-8.042968 3.132813-8.738281 7.417969l-4.324219 26.128906c-67.042968-9.457031-119.046875-63.320312-126.148437-130.648437 17.328125 8.085937 35.390625 14.5 53.9375 19.15625h.089843l5.824219 35.222656c.695313 4.28125 4.398438 7.425781 8.738281 7.414062h20.304688c4.339844.011719 8.046875-3.132812 8.738281-7.414062l4.328125-26.21875c15.730469 1.890625 31.558594 2.832031 47.402344 2.824219 15.84375.007812 31.675781-.933594 47.40625-2.824219l4.324219 26.21875c.695312 4.28125 4.398437 7.425781 8.738281 7.414062h20.304688c4.339843.011719 8.042968-3.132812 8.738281-7.414062l5.828125-35.222656h.085937c18.546875-4.65625 36.609375-11.070313 53.9375-19.15625zm0 0" fill="#2c3e50"/></svg>