<svg xmlns="http://www.w3.org/2000/svg" viewBox="0 0 60 60">
  <path d="M38.914 0H6.5v60h47V14.586L38.914 0zM17.5 14h10c.552 0 1 .447 1 1s-.448 1-1 1h-10c-.552 0-1-.447-1-1s.448-1 1-1zm25 34h-25c-.552 0-1-.447-1-1s.448-1 1-1h25c.552 0 1 .447 1 1s-.448 1-1 1zm0-8h-25c-.552 0-1-.447-1-1s.448-1 1-1h25c.552 0 1 .447 1 1s-.448 1-1 1zm0-8h-25c-.552 0-1-.447-1-1s.448-1 1-1h25c.552 0 1 .447 1 1s-.448 1-1 1zm0-8h-25c-.552 0-1-.447-1-1s.448-1 1-1h25c.552 0 1 .447 1 1s-.448 1-1 1zm-5-8V2l14 14h-14z"/>
</svg>
