<?xml version="1.0" encoding="utf-8"?>
<svg id="master-artboard" viewBox="0 0 1400 980" version="1.1" xmlns="http://www.w3.org/2000/svg" x="0px" y="0px" style="enable-background:new 0 0 336 235.2;" width="1400px" height="980px"><g transform="matrix(40.833333333333336, 0, 0, 40.833333333333336, 209.9999480418055, -0.0000030256539957917994)"><path class="heroicon-ui" d="M12.76 3.76a6 6 0 0 1 8.48 8.48l-8.53 8.54a1 1 0 0 1-1.42 0l-8.53-8.54a6 6 0 0 1 8.48-8.48l.76.75.76-.75zm7.07 7.07a4 4 0 1 0-5.66-5.66l-1.46 1.47a1 1 0 0 1-1.42 0L9.83 5.17a4 4 0 1 0-5.66 5.66L12 18.66l7.83-7.83z" style="fill: rgb(198, 204, 234);"/></g></svg>