<?xml version="1.0" encoding="UTF-8" standalone="no"?>
<svg
   xmlns:dc="http://purl.org/dc/elements/1.1/"
   xmlns:cc="http://creativecommons.org/ns#"
   xmlns:rdf="http://www.w3.org/1999/02/22-rdf-syntax-ns#"
   xmlns:svg="http://www.w3.org/2000/svg"
   xmlns="http://www.w3.org/2000/svg"
   xmlns:sodipodi="http://sodipodi.sourceforge.net/DTD/sodipodi-0.dtd"
   xmlns:inkscape="http://www.inkscape.org/namespaces/inkscape"
   id="master-artboard"
   viewBox="0 0 1400 980"
   version="1.1"
   x="0px"
   y="0px"
   style="enable-background:new 0 0 336 235.2;"
   width="1400px"
   height="980px"
   inkscape:version="0.48.4 r9939"
   sodipodi:docname="linkedin.svg">
  <metadata
     id="metadata20">
    <rdf:RDF>
      <cc:Work
         rdf:about="">
        <dc:format>image/svg+xml</dc:format>
        <dc:type
           rdf:resource="http://purl.org/dc/dcmitype/StillImage" />
      </cc:Work>
    </rdf:RDF>
  </metadata>
  <defs
     id="defs18" />
  <sodipodi:namedview
     pagecolor="#ffffff"
     bordercolor="#666666"
     borderopacity="1"
     objecttolerance="10"
     gridtolerance="10"
     guidetolerance="10"
     inkscape:pageopacity="0"
     inkscape:pageshadow="2"
     inkscape:window-width="1600"
     inkscape:window-height="838"
     id="namedview16"
     showgrid="false"
     inkscape:snap-to-guides="true"
     inkscape:zoom="0.34056571"
     inkscape:cx="833.76156"
     inkscape:cy="517.69307"
     inkscape:window-x="-8"
     inkscape:window-y="-8"
     inkscape:window-maximized="1"
     inkscape:current-layer="master-artboard" />
  <rect
     id="ee-background"
     x="0"
     y="0"
     width="1400"
     height="980"
     style="fill: white; fill-opacity: 0; pointer-events: none;" />
  <g
     transform="matrix(19.6, 0, 0, 19.6, 209.99994804180545, -0.0000030256540526352182)"
     id="g4">
    <g
       id="g6">
      <path
         d="M24.969,46.433c-5.914,0-11.28-2.378-15.121-6.28c-3.902-3.902-6.28-9.269-6.28-15.183s2.378-11.28,6.28-15.183   c3.841-3.842,9.207-6.22,15.121-6.22c5.916,0,11.281,2.378,15.183,6.22c3.902,3.902,6.279,9.269,6.279,15.183   s-2.377,11.28-6.279,15.183S30.885,46.433,24.969,46.433z M18.933,12.836c-1.28,0-2.317,1.098-2.317,2.378s1.037,2.317,2.317,2.317   s2.316-1.037,2.316-2.317S20.213,12.836,18.933,12.836z M20.823,18.934h-3.78v13.109h3.78V18.934z M26.434,18.934h-3.782v13.109   h3.782v-8.415c0.549-0.549,1.219-0.854,1.951-0.914c0.365-0.062,0.73,0.061,1.098,0.244c0.305,0.183,0.67,0.67,0.67,1.097v7.988   h3.719v-7.988c0-1.707-1.035-3.475-2.561-4.39c-1.402-0.731-3.414-0.854-4.877-0.122V18.934z"
         style="fill: rgb(68, 74, 98);"
         id="path8" />
    </g>
  </g>
  <path
     style="fill:#c6ccea;fill-opacity:1;stroke:#c6ccea;stroke-width:1.57825649;stroke-miterlimit:4;stroke-opacity:0;stroke-dasharray:none"
     d="M 671.10076,908.57255 C 545.17809,897.71786 439.44316,840.10465 365.06574,741.81912 308.13703,666.59105 277.6426,569.91354 281.09475,475.60306 c 3.96117,-108.21659 46.78826,-206.91161 122.68142,-282.71932 32.78074,-32.74383 67.67686,-57.85772 108.03081,-77.74711 44.67985,-22.021512 83.61037,-33.944725 135.06938,-41.367577 20.58421,-2.969227 88.04919,-2.485477 110.11091,0.789538 52.14508,7.740825 106.33328,25.873699 148.10088,49.558649 121.09715,68.67001 198.55105,187.46112 212.28515,325.58179 3.0797,30.97226 1.5244,76.54458 -3.69,108.12018 -24.2793,147.02169 -125.6698,271.01812 -264.93694,324.00718 -29.30552,11.1503 -62.23703,19.45855 -95.21657,24.02207 -15.15424,2.09696 -69.04405,3.87789 -82.42903,2.72409 z m -52.85323,-408.74509 0,-129.1968 -37.43771,0 -37.43771,0 0,129.1968 0,129.1968 37.43771,0 37.43771,0 0,-129.1968 z m 110.11095,46.61362 4e-5,-82.58318 5.16607,-4.12202 c 8.27375,-6.60164 18.35286,-11.19533 28.46056,-12.97129 11.73935,-2.06264 22.55746,0.83015 29.65791,7.9306 8.8404,8.84041 8.6545,6.81554 8.6545,94.26799 l 0,80.06108 37.53317,0 37.53317,0 -0.54793,-85.51947 c -0.61194,-95.50961 -0.31976,-92.55007 -11.34125,-114.88238 -18.16272,-36.8023 -48.11716,-55.19307 -89.97736,-55.24232 -17.01306,-0.02 -28.67105,1.83243 -38.76713,6.16012 l -6.3718,2.73128 0,-5.82042 0,-5.82041 -37.4377,0 -37.43771,0 0,129.1968 0,129.1968 37.43771,0 37.4377,0 5e-5,-82.58318 z M 597.27138,341.06095 c 18.43414,-6.81896 30.76151,-25.81443 29.41712,-45.32936 -2.36039,-34.26267 -36.46065,-54.42781 -66.59238,-39.3793 -18.95197,9.46508 -29.50149,35.67573 -22.65479,56.28663 8.22693,24.76583 35.14512,37.55323 59.83005,28.42203 z"
     id="path3762"
     inkscape:connector-curvature="0" />
  <path
     style="fill:#444a62;fill-opacity:1;stroke:#c6ccea;stroke-width:1.57825649;stroke-miterlimit:4;stroke-opacity:0;stroke-dasharray:none"
     d="m 544.84025,499.82746 0,-127.72865 35.96957,0 35.96956,0 0,127.72865 0,127.72866 -35.96956,0 -35.96957,0 0,-127.72866 z"
     id="path3764"
     inkscape:connector-curvature="0" />
  <path
     style="fill:#444a62;fill-opacity:1;stroke:#c6ccea;stroke-width:1.57825649;stroke-miterlimit:4;stroke-opacity:0;stroke-dasharray:none"
     d="m 654.95116,499.82746 0,-127.72865 35.96957,0 35.96956,0 0,6.02966 c 0,5.14192 0.37827,5.88351 2.56925,5.037 19.35616,-7.47841 37.4882,-10.04715 56.16813,-7.95725 24.42443,2.7326 42.55265,11.57637 58.50654,28.54217 17.33889,18.43862 25.78495,36.66929 28.12424,60.70562 0.75385,7.74584 1.38767,47.61212 1.40851,88.59173 l 0.0379,74.50838 -35.96956,0 -35.96956,0 -0.0323,-79.64689 c -0.0301,-74.39213 -0.21158,-80.03434 -2.7511,-85.51948 -3.76921,-8.14109 -9.77387,-13.25096 -19.13101,-16.28019 -6.71758,-2.17472 -9.40977,-2.33207 -17.16666,-1.00337 -11.51456,1.97236 -24.79029,7.95516 -31.02288,13.98069 l -4.77147,4.61295 0,81.92815 0,81.92814 -35.96956,0 -35.96957,0 0,-127.72866 z"
     id="path3766"
     inkscape:connector-curvature="0" />
  <path
     style="fill:#444a62;fill-opacity:1;stroke:#c6ccea;stroke-width:1.57825649;stroke-miterlimit:4;stroke-opacity:0;stroke-dasharray:none"
     d="m 564.79207,339.17682 c -24.94327,-10.47813 -35.12766,-38.37738 -22.84193,-62.57346 3.5316,-6.95528 14.78,-17.13145 22.91345,-20.72926 20.11272,-8.89681 45.49898,1.49071 56.31074,23.04118 5.1043,10.17413 5.23619,27.62766 0.28473,37.6801 -10.69299,21.70889 -35.35207,31.53538 -56.66699,22.58144 z"
     id="path3768"
     inkscape:connector-curvature="0" />
</svg>
