<?xml version="1.0" ?><!DOCTYPE svg  PUBLIC '-//W3C//DTD SVG 1.0//EN'  'http://www.w3.org/TR/2001/REC-SVG-20010904/DTD/svg10.dtd'><svg height="110px" style="enable-background:new 0 0 110 110;" version="1.0" viewBox="0 0 110 110" width="110px" xml:space="preserve" xmlns="http://www.w3.org/2000/svg" xmlns:xlink="http://www.w3.org/1999/xlink"><g id="Artboard"/><g id="Multicolor"><circle cx="55" cy="55" r="55" style="fill:#FABC3D;"/><g><path d="M73.5,60c-4.447,0-8.379,2.159-10.839,5.476l-11.9-5.95c-0.372,2.036-1.182,3.916-2.332,5.542    l11.815,5.908C60.089,71.795,60,72.636,60,73.5C60,80.956,66.044,87,73.5,87S87,80.956,87,73.5S80.956,60,73.5,60z" style="fill:#FFFFFF;"/><path d="M73,23c-7.732,0-14,6.268-14,14c0,0.864,0.089,1.706,0.239,2.526l-13.337,6.669    c1.583,1.305,2.86,2.96,3.747,4.835l11.922-5.961C64.106,48.653,68.275,51,73,51c7.732,0,14-6.268,14-14S80.732,23,73,23z" style="fill:#FFFFFF;"/><circle cx="37" cy="57" r="14" style="fill:#059BBF;"/><path d="M81,43.667C81,44.403,80.403,45,79.667,45H66.333C65.597,45,65,44.403,65,43.667V30.333    C65,29.597,65.597,29,66.333,29h13.333C80.403,29,81,29.597,81,30.333V43.667z" style="fill:#F8E1C2;"/><g><path d="M70.709,72.271h-1.991c-0.912,0-1.641-0.703-1.641-1.615c0-0.911,0.729-1.64,1.641-1.64h1.991     v-0.885c0-1.536,0.391-2.656,1.12-3.385c0.729-0.729,1.797-1.095,3.203-1.095c0.625,0,1.172,0.027,1.615,0.105     C77.323,63.861,78,64.459,78,65.345s-0.729,1.64-1.614,1.64h-0.339c-0.912,0-1.433,0.469-1.433,1.511v0.547h1.719     c0.912,0,1.641,0.704,1.641,1.615c0,0.912-0.729,1.615-1.641,1.615h-1.667v8.75c0,1.093-0.885,1.979-1.979,1.979     c-1.094,0-1.979-0.885-1.979-1.979V72.271z" style="fill:#0484AB;"/></g><path d="M79.667,29H66.333C65.597,29,65,29.597,65,30.333v13.333c0,0.334,0.135,0.63,0.338,0.864    l15.193-15.193C80.297,29.135,80.001,29,79.667,29z" style="fill:#FCF1E2;"/><path d="M37,43c-7.732,0-14,6.268-14,14c0,3.833,1.543,7.302,4.038,9.831l19.792-19.792    C44.303,44.543,40.833,43,37,43z" style="fill:#21B2D1;"/><path d="M41.507,50.259c3.35,0,3.35,3.35,3.35,3.35l2.234,1.117c0,0,0,1.117-3.35,2.234    c1.117,3.35-2.792,7.818-7.259,7.818s-7.818-3.35-7.818-7.818c0,0,2.792,2.234,6.142,1.117c0.106,0.072-3.311-2.16-2.234-7.818    c0,0,2.234,3.35,5.584,3.35C38.157,53.61,38.157,50.259,41.507,50.259z" style="fill:#FFFFFF;"/><path d="M79.667,29H66.333C65.597,29,65,29.597,65,30.333v5.333h16v-5.333C81,29.597,80.403,29,79.667,29z" style="fill:#9C6144;"/><path d="M66.333,29C65.597,29,65,29.597,65,30.333v5.333h9.202l6.329-6.329    C80.297,29.135,80.001,29,79.667,29H66.333z" style="fill:#AF7653;"/><circle cx="73" cy="37" r="4.667" style="fill:#3E3E3F;"/><path d="M73,32.333c-2.577,0-4.667,2.089-4.667,4.667c0,1.255,0.501,2.389,1.307,3.228l6.587-6.587    C75.389,32.835,74.255,32.333,73,32.333z" style="fill:#5B5C5F;"/></g></g></svg>