<?xml version="1.0" ?><!DOCTYPE svg  PUBLIC '-//W3C//DTD SVG 1.1//EN'  'http://www.w3.org/Graphics/SVG/1.1/DTD/svg11.dtd'><svg height="50px" id="Livello_1" style="enable-background:new 0 0 50 50;" version="1.1" viewBox="0 0 50 50" width="50px" xml:space="preserve" xmlns="http://www.w3.org/2000/svg" xmlns:xlink="http://www.w3.org/1999/xlink"><g><path d="M25.031,3.598c5.915,0,11.28,2.378,15.182,6.219c3.842,3.902,6.219,9.269,6.219,15.183c0,5.915-2.377,11.28-6.219,15.122   c-3.902,3.902-9.268,6.281-15.182,6.281c-5.915,0-11.28-2.379-15.183-6.281C5.946,36.279,3.568,30.914,3.568,25   c0-5.914,2.378-11.28,6.28-15.183C13.75,5.976,19.116,3.598,25.031,3.598z M16.311,22.927c0,2.134,1.463,3.84,3.414,4.268   c-0.305,0.061-0.67,0.121-1.158,0.121c-0.183,0-0.427-0.061-0.731-0.121c0.487,1.707,2.073,2.988,4.024,3.049   c-1.524,1.219-3.354,1.828-5.366,1.828h-1.036c1.89,1.221,4.207,1.951,6.646,1.951c3.962,0,7.134-1.646,9.207-4.023   c2.072-2.379,3.109-5.427,3.109-8.354v-0.549c0.914-0.67,1.646-1.463,2.195-2.256c-0.793,0.305-1.586,0.488-2.5,0.671   c0.914-0.549,1.525-1.402,1.951-2.378c-0.914,0.427-1.828,0.854-2.865,1.036c-0.732-0.914-1.83-1.402-3.109-1.402   c-2.379,0-4.33,1.951-4.33,4.391c0,0.244,0.061,0.549,0.122,0.976c-3.659-0.183-6.769-1.891-8.964-4.573   c-0.365,0.671-0.549,1.402-0.549,2.195c0,1.646,0.61,2.805,1.891,3.598c-0.731,0-1.402-0.184-1.951-0.488V22.927z"/></g></svg>