<?xml version="1.0" encoding="iso-8859-1"?>
<!-- Generator: Adobe Illustrator 19.0.0, SVG Export Plug-In . SVG Version: 6.00 Build 0)  -->
<svg version="1.1" id="Layer_1" xmlns="http://www.w3.org/2000/svg" xmlns:xlink="http://www.w3.org/1999/xlink" x="0px" y="0px"
	 viewBox="0 0 512 512" style="enable-background:new 0 0 512 512;" xml:space="preserve">
<path style="fill:#518EF8;" d="M454.531,52.245L256,0L57.469,52.245c0,0-49.633,370.939,198.531,459.755
	C504.163,423.184,454.531,52.245,454.531,52.245z"/>
<path style="fill:#73AAF9;" d="M256,0v512C7.837,423.184,57.469,52.245,57.469,52.245L256,0z"/>
<circle style="fill:#3A5BBC;" cx="256" cy="242.939" r="141.061"/>
<g>
	<path style="fill:#F2F2F2;" d="M256,126.485c30.354,0,54.962,24.607,54.962,54.962S286.354,236.408,256,236.408
		s-54.975-24.607-54.975-54.962S225.646,126.485,256,126.485z"/>
	<path style="fill:#F2F2F2;" d="M365.192,332.238C339.331,363.833,300.016,384,256,384c-44.029,0-83.331-20.167-109.192-51.762
		c16.875-43.833,59.402-74.932,109.192-74.932S348.317,288.405,365.192,332.238z"/>
</g>
<g>
</g>
<g>
</g>
<g>
</g>
<g>
</g>
<g>
</g>
<g>
</g>
<g>
</g>
<g>
</g>
<g>
</g>
<g>
</g>
<g>
</g>
<g>
</g>
<g>
</g>
<g>
</g>
<g>
</g>
</svg>
