<?xml version="1.0" encoding="iso-8859-1"?>
<!-- Generator: Adobe Illustrator 19.0.0, SVG Export Plug-In . SVG Version: 6.00 Build 0)  -->
<svg version="1.1" id="Layer_1" xmlns="http://www.w3.org/2000/svg" xmlns:xlink="http://www.w3.org/1999/xlink" x="0px" y="0px"
	 viewBox="0 0 512 512" style="enable-background:new 0 0 512 512;" xml:space="preserve">
<path style="fill:#CE4234;" d="M256,0C114.615,0,0,114.615,0,256s114.615,256,256,256s256-114.615,256-256S397.385,0,256,0z"/>
<path style="fill:#E3513D;" d="M256,485.984c-126.814,0-229.984-103.17-229.984-229.984S129.186,26.016,256,26.016
	c126.812,0,229.984,103.17,229.984,229.984S382.812,485.984,256,485.984z"/>
<g>
	<polygon style="fill:#F2F2F2;" points="472.207,237.787 472.207,274.213 431.497,274.213 431.497,314.923 395.071,314.923 
		395.071,274.213 354.375,274.213 354.375,237.787 395.071,237.787 395.071,197.077 431.497,197.077 431.497,237.787 	"/>
	<path style="fill:#F2F2F2;" d="M311.966,231.446c1.514,7.956,2.3,16.17,2.3,24.554c0,9.413-0.986,18.583-2.871,27.441
		c-12.613,59.408-65.379,103.975-128.544,103.975c-50.051,0-93.562-27.969-115.759-69.136c-9.986-18.542-15.657-39.74-15.657-62.28
		c0-72.579,58.837-131.415,131.415-131.415c31.883,0,61.123,11.356,83.876,30.254l-42.566,34.854
		c-11.984-7.485-26.14-11.813-41.31-11.813c-34.253,0-63.365,22.055-73.907,52.738c-2.728,7.956-4.213,16.498-4.213,25.383
		c0,9.642,1.743,18.884,4.956,27.412c11.099,29.626,39.667,50.71,73.164,50.71c14.399,0,27.883-3.886,39.454-10.685
		c15.37-9.013,27.383-23.112,33.711-39.996h-70.279v-51.995h71.292h54.939V231.446z"/>
</g>
<g>
</g>
<g>
</g>
<g>
</g>
<g>
</g>
<g>
</g>
<g>
</g>
<g>
</g>
<g>
</g>
<g>
</g>
<g>
</g>
<g>
</g>
<g>
</g>
<g>
</g>
<g>
</g>
<g>
</g>
</svg>
