<svg xmlns="http://www.w3.org/2000/svg" viewBox="0 0 452.54 452.54"><path d="M116.066 270.268c0 7.751-6.284 14.035-14.035 14.035H14.035C6.284 284.303 0 278.019 0 270.268v-87.996c0-7.751 6.284-14.035 14.035-14.035h87.996c7.752 0 14.035 6.284 14.035 14.035v87.996zm336.474 0c0 7.751-6.284 14.035-14.035 14.035h-87.997c-7.751 0-14.035-6.284-14.035-14.035v-87.997c0-7.751 6.284-14.035 14.035-14.035h87.997c7.751 0 14.035 6.284 14.035 14.035v87.997zM270.272 2.305h-88.004c-7.749 0-14.032 6.283-14.032 14.04v87.989c0 7.755 6.283 14.038 14.032 14.038h88.004c7.749 0 14.032-6.283 14.032-14.038V16.345c0-7.757-6.283-14.04-14.032-14.04zm-168.244 0H14.04C6.283 2.305 0 8.588 0 16.345v87.989c0 7.755 6.283 14.038 14.04 14.038h87.989c7.755 0 14.038-6.283 14.038-14.038V16.345c-.001-7.757-6.284-14.04-14.039-14.04zm336.472 0h-87.988c-7.755 0-14.038 6.283-14.038 14.04v87.989c0 7.755 6.283 14.038 14.038 14.038H438.5c7.757 0 14.04-6.283 14.04-14.038V16.345c0-7.757-6.283-14.04-14.04-14.04zM270.272 168.236h-88.004c-7.749 0-14.032 6.283-14.032 14.04v87.989c0 7.755 6.283 14.038 14.032 14.038h88.004c7.749 0 14.032-6.283 14.032-14.038v-87.989c0-7.757-6.283-14.04-14.032-14.04zm0 165.931h-88.004c-7.749 0-14.032 6.283-14.032 14.04v87.989c0 7.755 6.283 14.038 14.032 14.038h88.004c7.749 0 14.032-6.283 14.032-14.038v-87.989c0-7.757-6.283-14.04-14.032-14.04zM116.066 436.2c0 7.751-6.284 14.035-14.035 14.035H14.035C6.284 450.235 0 443.951 0 436.2v-87.996c0-7.751 6.284-14.035 14.035-14.035h87.996c7.752 0 14.035 6.284 14.035 14.035V436.2zm336.474 0c0 7.751-6.284 14.035-14.035 14.035h-87.997c-7.751 0-14.035-6.284-14.035-14.035v-87.997c0-7.751 6.284-14.035 14.035-14.035h87.997c7.751 0 14.035 6.284 14.035 14.035V436.2z" fill="#020202"/></svg>