<?xml version="1.0" encoding="iso-8859-1"?>
<!-- Generator: Adobe Illustrator 19.0.0, SVG Export Plug-In . SVG Version: 6.00 Build 0)  -->
<svg version="1.1" id="Layer_1" xmlns="http://www.w3.org/2000/svg" xmlns:xlink="http://www.w3.org/1999/xlink" x="0px" y="0px"
	 viewBox="0 0 512 512" style="enable-background:new 0 0 512 512;" xml:space="preserve">
<g>
	<g>
		<path d="M456.348,66.782c-78.943,0-133.483-25.577-191.087-63.978c-5.609-3.739-12.915-3.739-18.522,0
			C189.136,41.205,134.596,66.782,55.652,66.782c-9.22,0-16.696,7.475-16.696,16.696v175.324c0,60.634,21.584,119.505,60.777,165.77
			c39.193,46.265,93.714,77.233,153.523,87.201c0.908,0.151,1.827,0.227,2.745,0.227c0.918,0,1.835-0.076,2.745-0.227
			c59.808-9.968,114.331-40.937,153.523-87.201c39.192-46.265,60.774-105.137,60.774-165.77V83.477
			C473.044,74.257,465.568,66.782,456.348,66.782z M439.652,258.802c0,108.566-77.065,200.461-183.652,219.559
			C149.413,459.263,72.348,367.368,72.348,258.802V99.825c74.27-3.151,128.363-27.413,183.651-63.154
			c48.755,31.531,105.193,59.615,183.653,63.132V258.802z"/>
	</g>
</g>
<g>
	<g>
		<path d="M256,100.173c-82.854,0-150.261,67.407-150.261,150.261c0,40.967,16.485,78.149,43.163,105.282
			c0.332,0.398,0.679,0.786,1.048,1.154c28.39,28.287,66.086,43.825,106.05,43.825c38.747,0,76.814-14.697,106.05-43.825
			c0.371-0.368,0.718-0.756,1.048-1.154c26.677-27.133,43.163-64.315,43.163-105.282C406.261,167.58,338.854,100.173,256,100.173z
			 M256,367.303c-24.237,0-48.21-7.485-68.582-22.301c19.824-14.43,43.611-22.221,68.582-22.221s48.758,7.791,68.582,22.221
			C304.687,359.471,280.848,367.303,256,367.303z M348.76,321.437c-26.362-20.772-58.704-32.047-92.76-32.047
			s-66.397,11.275-92.76,32.047c-15.112-19.695-24.11-44.317-24.11-71.003c0-64.442,52.428-116.87,116.87-116.87
			s116.87,52.428,116.87,116.87C372.87,277.12,363.872,301.742,348.76,321.437z"/>
	</g>
</g>
<g>
	<g>
		<path d="M256,166.956c-33.755,0-61.217,27.462-61.217,61.217c0,33.755,27.462,61.217,61.217,61.217s61.217-27.462,61.217-61.217
			C317.218,194.418,289.755,166.956,256,166.956z M256,255.999c-15.343,0-27.826-12.483-27.826-27.826
			c0-15.343,12.483-27.826,27.826-27.826s27.826,12.483,27.826,27.826C283.826,243.516,271.344,255.999,256,255.999z"/>
	</g>
</g>
<g>
</g>
<g>
</g>
<g>
</g>
<g>
</g>
<g>
</g>
<g>
</g>
<g>
</g>
<g>
</g>
<g>
</g>
<g>
</g>
<g>
</g>
<g>
</g>
<g>
</g>
<g>
</g>
<g>
</g>
</svg>
