<?xml version="1.0" encoding="iso-8859-1"?>
<!-- Generator: Adobe Illustrator 19.0.0, SVG Export Plug-In . SVG Version: 6.00 Build 0)  -->
<svg version="1.1" id="Layer_1" xmlns="http://www.w3.org/2000/svg" xmlns:xlink="http://www.w3.org/1999/xlink" x="0px" y="0px"
	 viewBox="0 0 512 512" style="enable-background:new 0 0 512 512;" xml:space="preserve">
<g>
	<g>
		<path d="M496.116,324.206l-52.634-43.33c1.153-8.457,1.735-16.788,1.735-24.877c0-8.089-0.582-16.421-1.734-24.877l52.634-43.329
			c6.301-5.187,7.928-14.169,3.848-21.238l-44.522-77.114c-4.08-7.069-12.673-10.151-20.315-7.286l-63.952,23.958
			c-13.156-10.126-27.543-18.434-42.958-24.805l-11.226-67.358C315.648,5.9,308.684,0,300.522,0h-89.043
			c-8.162,0-15.126,5.9-16.469,13.951l-11.226,67.358c-15.415,6.372-29.802,14.679-42.958,24.805L76.873,82.157
			c-7.641-2.864-16.235,0.219-20.315,7.286l-44.522,77.114c-4.082,7.068-2.454,16.05,3.848,21.238l52.634,43.33
			c-1.153,8.457-1.735,16.788-1.735,24.875c0,8.086,0.582,16.419,1.735,24.875l-52.634,43.33c-6.302,5.188-7.929,14.17-3.848,21.238
			l44.522,77.114c4.08,7.068,12.671,10.15,20.315,7.286l63.952-23.958c13.156,10.126,27.543,18.434,42.958,24.805l11.226,67.358
			C196.352,506.1,203.316,512,211.478,512c18.571,0,70.204,0,89.043,0c8.162,0,15.126-5.9,16.469-13.951l11.226-67.358
			c15.414-6.372,29.802-14.679,42.958-24.805l63.952,23.958c7.644,2.865,16.235-0.218,20.315-7.286l44.522-77.114
			C504.045,338.376,502.418,329.394,496.116,324.206z M278.261,478.609h-44.522V376.4c7.221,1.332,14.66,2.035,22.261,2.035
			c7.601,0,15.039-0.702,22.261-2.035V478.609z M256,345.043c-48.831,0-89.044-39.741-89.044-89.043
			c0-27.621,12.558-52.873,33.391-69.457v63.892c0,5.991,3.21,11.523,8.412,14.495l38.957,22.261c5.132,2.934,11.433,2.934,16.567,0
			l38.957-22.261c5.202-2.972,8.412-8.505,8.412-14.495v-63.892c20.833,16.584,33.391,41.836,33.391,69.457
			C345.043,305.286,304.849,345.043,256,345.043z M433.596,393.612l-59.662-22.351c-5.7-2.136-12.107-1.001-16.725,2.961
			c-13.53,11.601-28.84,20.71-45.557,27.12v-36.303c39.611-20.299,66.783-61.556,66.783-109.039c0-24.963-7.51-48.992-21.718-69.487
			c-13.845-19.972-33.066-35.268-55.585-44.233c-10.943-4.356-22.871,3.713-22.871,15.511v82.955L256,253.466l-22.261-12.72v-82.955
			c0-11.802-11.933-19.868-22.871-15.511c-22.519,8.966-41.74,24.261-55.585,44.234c-14.208,20.496-21.718,44.524-21.718,69.487
			c0,47.484,27.172,88.741,66.783,109.039v36.303c-16.717-6.41-32.027-15.519-45.557-27.12c-4.618-3.961-11.026-5.098-16.725-2.961
			l-59.662,22.351l-30.378-52.617l49.109-40.428c4.694-3.865,6.916-9.974,5.801-15.952c-1.858-9.96-2.761-19.32-2.761-28.615
			c0-9.296,0.904-18.656,2.761-28.617c1.115-5.977-1.107-12.087-5.801-15.951l-49.109-40.427l30.378-52.617l59.662,22.351
			c5.697,2.135,12.105,1,16.725-2.961c14.576-12.5,31.216-22.111,49.46-28.565c5.727-2.027,9.901-7.003,10.899-12.995l10.471-62.827
			h60.757l10.471,62.827c0.998,5.992,5.172,10.968,10.899,12.995c18.243,6.455,34.883,16.066,49.46,28.565
			c4.618,3.961,11.026,5.097,16.725,2.961l59.662-22.351l30.378,52.617l-49.109,40.427c-4.694,3.865-6.916,9.975-5.801,15.952
			c1.858,9.958,2.762,19.318,2.762,28.616c0,9.298-0.904,18.658-2.761,28.615c-1.115,5.977,1.107,12.088,5.801,15.952l49.109,40.428
			L433.596,393.612z"/>
	</g>
</g>
<g>
</g>
<g>
</g>
<g>
</g>
<g>
</g>
<g>
</g>
<g>
</g>
<g>
</g>
<g>
</g>
<g>
</g>
<g>
</g>
<g>
</g>
<g>
</g>
<g>
</g>
<g>
</g>
<g>
</g>
</svg>
