<?xml version="1.0" encoding="iso-8859-1"?>
<!-- Generator: Adobe Illustrator 19.0.0, SVG Export Plug-In . SVG Version: 6.00 Build 0)  -->
<svg version="1.1" id="Layer_1" xmlns="http://www.w3.org/2000/svg" xmlns:xlink="http://www.w3.org/1999/xlink" x="0px" y="0px"
	 viewBox="0 0 512 512" style="enable-background:new 0 0 512 512;" xml:space="preserve">
<g>
	<g>
		<path d="M461.913,0H50.087C22.469,0,0,22.469,0,50.087v411.826C0,489.531,22.469,512,50.087,512h411.826
			C489.531,512,512,489.531,512,461.913V50.087C512,22.469,489.531,0,461.913,0z M233.739,478.609H50.087
			c-9.206,0-16.696-7.49-16.696-16.696V311.652h200.348V478.609z M233.739,278.261H33.391V166.957h200.348V278.261z
			 M478.609,461.913c0,9.206-7.49,16.696-16.696,16.696H267.13V166.957h211.478V461.913z M478.609,133.565H33.391V50.087
			c0-9.206,7.49-16.696,16.696-16.696h411.826c9.206,0,16.696,7.49,16.696,16.696V133.565z"/>
	</g>
</g>
<g>
	<g>
		<circle cx="83.478" cy="83.478" r="16.696"/>
	</g>
</g>
<g>
	<g>
		<circle cx="150.261" cy="83.478" r="16.696"/>
	</g>
</g>
<g>
	<g>
		<path d="M183.652,411.826H83.478c-9.22,0-16.696,7.475-16.696,16.696s7.475,16.696,16.696,16.696h100.174
			c9.22,0,16.696-7.475,16.696-16.696S192.873,411.826,183.652,411.826z"/>
	</g>
</g>
<g>
	<g>
		<path d="M183.652,345.043H83.478c-9.22,0-16.696,7.475-16.696,16.696s7.475,16.696,16.696,16.696h100.174
			c9.22,0,16.696-7.475,16.696-16.696S192.873,345.043,183.652,345.043z"/>
	</g>
</g>
<g>
</g>
<g>
</g>
<g>
</g>
<g>
</g>
<g>
</g>
<g>
</g>
<g>
</g>
<g>
</g>
<g>
</g>
<g>
</g>
<g>
</g>
<g>
</g>
<g>
</g>
<g>
</g>
<g>
</g>
</svg>
