<?xml version="1.0" encoding="iso-8859-1"?>
<!-- Generator: Adobe Illustrator 19.0.0, SVG Export Plug-In . SVG Version: 6.00 Build 0)  -->
<svg version="1.1" id="Layer_1" xmlns="http://www.w3.org/2000/svg" xmlns:xlink="http://www.w3.org/1999/xlink" x="0px" y="0px"
	 viewBox="0 0 512 512" style="enable-background:new 0 0 512 512;" xml:space="preserve">
<g>
	<g>
		<path d="M448.115,30.117C444.675,19.248,428.358,0,402.331,0H109.691c-19.094,0-36.26,10.61-44.8,27.687
			c-0.392,0.784-0.72,1.596-0.985,2.431C1.65,226.871,5.58,213.28,5.58,217.04l-0.003,0.003c0,0.001,0,0.09,0,0.09l0.002,0.002
			c0.032,25.518,13.352,47.966,33.389,60.824v183.953c0,27.618,22.469,50.087,50.087,50.087h333.913
			c27.618,0,50.087-22.469,50.087-50.087V277.959c21.63-13.881,33.391-38.164,33.391-60.916l-0.028-0.028
			C506.412,213.167,510.463,227.161,448.115,30.117z M402.331,33.391c5.998,0,11.424,3.14,14.413,8.267l50.212,158.69h-74.367
			L364.762,33.391H402.331z M272.707,33.391h58.204l27.826,166.957h-86.03V33.391z M357.445,233.739
			C350.286,246.889,334.952,256,317.227,256s-33.059-9.111-40.218-22.261H357.445z M181.111,33.391h58.204v166.957h-86.03
			L181.111,33.391z M235.01,233.739C227.851,246.889,212.518,256,194.793,256c-17.725,0-33.059-9.111-40.218-22.261H235.01z
			 M95.279,41.658c2.989-5.127,8.415-8.267,14.413-8.267h37.567l-27.826,166.957H45.066L95.279,41.658z M42.734,233.739h70.38
			C106.85,246.889,93.433,256,77.924,256C62.752,256,49.129,247.162,42.734,233.739z M439.663,461.913
			c0,9.206-7.49,16.696-16.696,16.696H89.054c-9.206,0-16.696-7.49-16.696-16.696V289.156c1.839,0.14,3.691,0.235,5.565,0.235
			c22.709,0,42.997-10.526,56.271-26.945c14.294,16.419,36.143,26.945,60.599,26.945c24.814,0,46.939-10.841,61.217-27.675
			c14.278,16.835,36.403,27.675,61.217,27.675c24.456,0,46.304-10.526,60.599-26.945c13.274,16.419,33.562,26.945,56.271,26.945
			c1.874,0,3.726-0.095,5.565-0.235V461.913z M434.098,256c-15.508,0-28.926-9.111-35.19-22.261h70.38
			C462.902,247.142,449.292,256,434.098,256z"/>
	</g>
</g>
<g>
	<g>
		<path d="M389.576,361.739h-33.391c-9.22,0-16.696,7.475-16.696,16.696c0,9.22,7.475,16.696,16.696,16.696h12.215
			c-5.782,9.974-16.575,16.696-28.91,16.696c-18.412,0-33.391-14.979-33.391-33.391c0-18.412,14.979-33.391,33.391-33.391
			c4.5,0,8.863,0.882,12.966,2.62c8.489,3.596,18.288-0.371,21.886-8.861c3.596-8.49-0.371-18.288-8.861-21.886
			c-8.245-3.493-16.991-5.264-25.991-5.264c-36.824,0-66.783,29.959-66.783,66.783c0,36.824,29.959,66.783,66.783,66.783
			c36.824,0,66.783-29.959,66.783-66.783C406.272,369.214,398.797,361.739,389.576,361.739z"/>
	</g>
</g>
<g>
</g>
<g>
</g>
<g>
</g>
<g>
</g>
<g>
</g>
<g>
</g>
<g>
</g>
<g>
</g>
<g>
</g>
<g>
</g>
<g>
</g>
<g>
</g>
<g>
</g>
<g>
</g>
<g>
</g>
</svg>
