<?xml version="1.0" encoding="iso-8859-1"?>
<!-- Generator: Adobe Illustrator 19.0.0, SVG Export Plug-In . SVG Version: 6.00 Build 0)  -->
<svg version="1.1" id="Layer_1" xmlns="http://www.w3.org/2000/svg" xmlns:xlink="http://www.w3.org/1999/xlink" x="0px" y="0px"
	 viewBox="0 0 512 512" style="enable-background:new 0 0 512 512;" xml:space="preserve">
<g>
	<g>
		<path d="M511.326,448.105l-25.307-158.397l24.806-124.025c2.953-14.767-0.829-29.915-10.376-41.56
			c-6.119-7.464-14.12-12.876-23.038-15.808V55.73c0-27.607-22.46-50.068-50.067-50.068H84.659
			c-27.607,0-50.068,22.46-50.068,50.068v52.584c-8.919,2.933-16.918,8.344-23.039,15.808c-9.547,11.646-13.329,26.795-10.376,41.56
			l24.805,124.025L0.675,448.103c-2.402,14.525,1.677,29.295,11.195,40.53c9.532,11.252,23.456,17.705,38.201,17.705h411.857
			c14.747,0,28.672-6.453,38.203-17.706C509.648,477.398,513.727,462.63,511.326,448.105z M67.97,55.73
			c0-9.202,7.487-16.689,16.689-16.689h48.955V55.73c0,9.217,7.472,16.689,16.689,16.689s16.689-7.472,16.689-16.689V39.04H345.01
			V55.73c0,9.217,7.472,16.689,16.689,16.689s16.689-7.472,16.689-16.689V39.04h48.955c9.202,0,16.689,7.487,16.689,16.689v50.068
			H67.97V55.73z M474.663,467.057c-3.223,3.806-7.746,5.902-12.734,5.902H50.071c-4.988,0-9.509-2.096-12.734-5.901
			c-3.224-3.806-4.548-8.612-3.728-13.532c0.006-0.037,0.012-0.073,0.018-0.11l25.788-161.404c0.314-1.96,0.275-3.96-0.116-5.907
			L33.907,159.138c-0.985-4.922,0.277-9.971,3.459-13.853s7.886-6.108,12.906-6.108h1.008h409.441h1.008
			c5.02,0,9.723,2.226,12.906,6.108c3.182,3.882,4.443,8.931,3.458,13.853L452.7,286.106c-0.389,1.947-0.428,3.946-0.116,5.907
			l25.788,161.404c0.007,0.037,0.012,0.073,0.019,0.111C479.212,458.446,477.887,463.251,474.663,467.057z"/>
	</g>
</g>
<g>
	<g>
		<path d="M244.455,302.729c13.886-12.242,22.672-30.143,22.672-50.067c0-36.81-29.947-66.757-66.757-66.757
			c-36.81,0-66.757,29.947-66.757,66.757c0,9.217,7.472,16.689,16.689,16.689s16.689-7.472,16.689-16.689
			c0-18.405,14.974-33.378,33.378-33.378c18.405,0,33.378,14.974,33.378,33.378c0,18.405-14.974,33.378-33.378,33.378
			c-9.217,0-16.689,7.472-16.689,16.689s7.472,16.689,16.689,16.689c18.405,0,33.378,14.974,33.378,33.378
			s-14.974,33.378-33.378,33.378c-18.405,0-33.378-14.974-33.378-33.378c0-9.217-7.472-16.689-16.689-16.689
			s-16.689,7.472-16.689,16.689c0,36.81,29.947,66.757,66.757,66.757c36.81,0,66.757-29.947,66.757-66.757
			C267.127,332.872,258.342,314.971,244.455,302.729z"/>
	</g>
</g>
<g>
	<g>
		<path d="M368.085,187.176c-6.234-2.581-13.415-1.155-18.188,3.618l-50.068,50.067c-6.518,6.518-6.518,17.084,0,23.602
			c6.517,6.518,17.084,6.518,23.602,0l21.578-21.577v159.979c0,9.217,7.472,16.689,16.689,16.689s16.689-7.472,16.689-16.689
			v-200.27C378.388,195.845,374.321,189.759,368.085,187.176z"/>
	</g>
</g>
<g>
</g>
<g>
</g>
<g>
</g>
<g>
</g>
<g>
</g>
<g>
</g>
<g>
</g>
<g>
</g>
<g>
</g>
<g>
</g>
<g>
</g>
<g>
</g>
<g>
</g>
<g>
</g>
<g>
</g>
</svg>
