<?xml version="1.0" encoding="iso-8859-1"?>
<!-- Generator: Adobe Illustrator 19.0.0, SVG Export Plug-In . SVG Version: 6.00 Build 0)  -->
<svg version="1.1" id="Layer_1" xmlns="http://www.w3.org/2000/svg" xmlns:xlink="http://www.w3.org/1999/xlink" x="0px" y="0px"
	 viewBox="0 0 512 512" style="enable-background:new 0 0 512 512;" xml:space="preserve">
<g>
	<g>
		<path d="M509.747,320.071L347.736,41.319c-2.994-5.151-8.502-8.32-14.461-8.32H178.759h-0.023c-5.932,0-11.478,3.191-14.461,8.32
			L2.265,320.071c-2.974,5.117-3.022,11.424-0.127,16.586l74.912,133.572c2.835,5.246,8.422,8.773,14.716,8.773h328.481
			c6.05,0,11.628-3.267,14.588-8.544l75.04-133.801C512.682,331.654,512.777,325.287,509.747,320.071z M323.652,66.449
			L466.221,311.75H352.446c-100.707-167.845-67.7-111.903-144.737-245.301H323.652z M313.436,311.75H198.575l57.431-95.719
			L313.436,311.75z M35.985,328.624L178.69,83.087l57.909,100.275C130.677,359.9,173.901,286.606,91.979,428.464L35.985,328.624z
			 M410.45,445.551H120.737l57.953-100.351c13.808,0,283.009,0,288.04,0L410.45,445.551z"/>
	</g>
</g>
<g>
</g>
<g>
</g>
<g>
</g>
<g>
</g>
<g>
</g>
<g>
</g>
<g>
</g>
<g>
</g>
<g>
</g>
<g>
</g>
<g>
</g>
<g>
</g>
<g>
</g>
<g>
</g>
<g>
</g>
</svg>
