<?xml version="1.0" encoding="iso-8859-1"?>
<!-- Generator: Adobe Illustrator 19.0.0, SVG Export Plug-In . SVG Version: 6.00 Build 0)  -->
<svg version="1.1" id="Layer_1" xmlns="http://www.w3.org/2000/svg" xmlns:xlink="http://www.w3.org/1999/xlink" x="0px" y="0px"
	 viewBox="0 0 512 512" style="enable-background:new 0 0 512 512;" xml:space="preserve">
<g>
	<g>
		<path d="M462.266,55.661c-0.079-0.001-0.158-0.007-0.238-0.006c-0.039,0-0.077-0.003-0.116-0.003H50.087
			c-0.036,0-0.071,0.002-0.107,0.002c-0.072,0-0.145,0.004-0.217,0.006C22.295,55.836,0,78.229,0,105.739v300.522
			c0,27.618,22.469,50.087,50.087,50.087h411.826c27.618,0,50.087-22.469,50.087-50.087V105.739
			C512,78.239,489.721,55.853,462.266,55.661z M421.776,89.043L256,254.808L90.236,89.043H421.776z M66.783,422.957H50.087
			c-9.206,0-16.696-7.49-16.696-16.696V173.872l33.391,33.391V422.957z M411.826,422.957H100.174V240.654l120.409,120.409
			c9.764,9.765,22.59,14.646,35.417,14.646c12.827,0,25.652-4.882,35.417-14.646l120.409-120.409V422.957z M478.609,406.261
			c0,9.206-7.49,16.696-16.696,16.696h-16.696V207.263l33.391-33.391V406.261z M478.609,126.65l-61.89,61.89
			c-0.002,0.002-0.003,0.003-0.006,0.006L267.806,337.452c-3.153,3.153-7.346,4.891-11.806,4.891c-4.46,0-8.652-1.737-11.806-4.891
			L95.287,188.545c-0.002-0.002-0.003-0.003-0.006-0.006l-61.89-61.89v-20.911c0-7.106,4.47-13.173,10.74-15.578l200.063,200.063
			c3.26,3.26,7.532,4.891,11.805,4.891c4.272,0,8.546-1.631,11.805-4.89L467.879,90.164c6.264,2.409,10.73,8.473,10.73,15.575
			V126.65z"/>
	</g>
</g>
<g>
</g>
<g>
</g>
<g>
</g>
<g>
</g>
<g>
</g>
<g>
</g>
<g>
</g>
<g>
</g>
<g>
</g>
<g>
</g>
<g>
</g>
<g>
</g>
<g>
</g>
<g>
</g>
<g>
</g>
</svg>
