<?xml version="1.0" encoding="iso-8859-1"?>
<!-- Generator: Adobe Illustrator 19.0.0, SVG Export Plug-In . SVG Version: 6.00 Build 0)  -->
<svg version="1.1" id="Layer_1" xmlns="http://www.w3.org/2000/svg" xmlns:xlink="http://www.w3.org/1999/xlink" x="0px" y="0px"
	 viewBox="0 0 512 512" style="enable-background:new 0 0 512 512;" xml:space="preserve">
<g>
	<g>
		<path d="M495.304,55.652h-38.956V16.696c0-9.22-7.475-16.696-16.696-16.696H372.87c-9.22,0-16.696,7.475-16.696,16.696v38.956
			h-38.956c-9.22,0-16.696,7.475-16.696,16.696v66.783c0,9.22,7.475,16.696,16.696,16.696h38.956v38.956
			c0,9.22,7.475,16.696,16.696,16.696h66.783c9.22,0,16.696-7.475,16.696-16.696v-38.956h38.956c9.22,0,16.696-7.475,16.696-16.696
			V72.348C512,63.127,504.525,55.652,495.304,55.652z M478.609,122.435h-38.957c-9.22,0-16.696,7.475-16.696,16.696v38.957h-33.391
			V139.13c0-9.22-7.475-16.696-16.696-16.696h-38.957V89.044h38.957c9.22,0,16.696-7.475,16.696-16.696V33.391h33.391v38.957
			c0,9.22,7.475,16.696,16.696,16.696h38.957V122.435z"/>
	</g>
</g>
<g>
	<g>
		<path d="M350.609,278.261H183.652c-9.22,0-16.696,7.475-16.696,16.696v66.783c0,9.22,7.475,16.696,16.696,16.696h66.308
			c-15.482,20.615-39.899,33.391-66.308,33.391c-46.03,0-83.478-37.448-83.478-83.478s37.448-83.478,83.478-83.478
			c22.256,0,43.208,8.695,58.996,24.481c6.519,6.519,17.091,6.519,23.611,0l47.198-47.196c3.131-3.131,4.891-7.377,4.891-11.805
			c0-4.428-1.76-8.675-4.891-11.805c-34.726-34.725-80.824-53.849-129.804-53.849C82.386,144.696,0,227.082,0,328.348
			S82.386,512,183.652,512s183.652-82.386,183.652-183.652v-33.391C367.304,285.736,359.829,278.261,350.609,278.261z
			 M333.913,328.348c0,82.854-67.407,150.261-150.261,150.261S33.391,411.202,33.391,328.348s67.407-150.261,150.261-150.261
			c34.459,0,67.182,11.579,93.746,32.904l-23.774,23.773c-20.106-15.113-44.422-23.286-69.973-23.286
			c-64.442,0-116.87,52.428-116.87,116.87s52.428,116.87,116.87,116.87c49.036,0,93.141-31.294,109.747-77.871
			c1.823-5.113,1.046-10.792-2.081-15.229c-3.128-4.435-8.216-7.075-13.645-7.075h-77.325v-33.391h133.565V328.348z"/>
	</g>
</g>
<g>
</g>
<g>
</g>
<g>
</g>
<g>
</g>
<g>
</g>
<g>
</g>
<g>
</g>
<g>
</g>
<g>
</g>
<g>
</g>
<g>
</g>
<g>
</g>
<g>
</g>
<g>
</g>
<g>
</g>
</svg>
