<?xml version="1.0" encoding="iso-8859-1"?>
<!-- Generator: Adobe Illustrator 19.0.0, SVG Export Plug-In . SVG Version: 6.00 Build 0)  -->
<svg version="1.1" id="Layer_1" xmlns="http://www.w3.org/2000/svg" xmlns:xlink="http://www.w3.org/1999/xlink" x="0px" y="0px"
	 viewBox="0 0 512 512" style="enable-background:new 0 0 512 512;" xml:space="preserve">
<g>
	<g>
		<path d="M256,0C136.322,0,38.956,97.366,38.956,217.043c0,114.061,88.44,207.854,200.348,216.408v61.853
			c0,5.367,2.58,10.407,6.933,13.545c4.359,3.141,9.953,3.988,15.043,2.295c65.663-21.892,120.457-63.42,158.456-120.092
			c34.376-51.267,53.307-113.063,53.307-174.009C473.043,97.366,375.678,0,256,0z M272.696,471.149v-53.758
			c0-9.22-7.475-16.696-16.696-16.696c-101.267,0-183.652-82.386-183.652-183.652S154.734,33.391,256,33.391
			s183.652,82.386,183.652,183.652C439.652,310.556,387.809,422.147,272.696,471.149z"/>
	</g>
</g>
<g>
	<g>
		<path d="M222.609,155.826h-66.783c-9.22,0-16.696,7.475-16.696,16.696v66.783c0,9.22,7.475,16.696,16.696,16.696h49.892
			c-1.337,15.055-10.25,28.296-23.967,35.154c-8.248,4.124-11.59,14.152-7.466,22.4c4.127,8.254,14.162,11.586,22.4,7.465
			c26.289-13.145,42.62-39.57,42.62-68.961c0-18.013,0-61.769,0-79.537C239.304,163.301,231.829,155.826,222.609,155.826z
			 M205.913,222.609h-33.391v-33.391h33.391V222.609z"/>
	</g>
</g>
<g>
	<g>
		<path d="M356.174,155.826h-66.783c-9.22,0-16.696,7.475-16.696,16.696v66.783c0,9.22,7.475,16.696,16.696,16.696h49.892
			c-1.337,15.055-10.25,28.296-23.967,35.154c-8.248,4.124-11.59,14.152-7.466,22.4c4.127,8.254,14.162,11.586,22.4,7.465
			c26.289-13.145,42.62-39.57,42.62-68.961c0-18.013,0-61.769,0-79.537C372.869,163.301,365.394,155.826,356.174,155.826z
			 M339.478,222.609h-33.391v-33.391h33.391V222.609z"/>
	</g>
</g>
<g>
</g>
<g>
</g>
<g>
</g>
<g>
</g>
<g>
</g>
<g>
</g>
<g>
</g>
<g>
</g>
<g>
</g>
<g>
</g>
<g>
</g>
<g>
</g>
<g>
</g>
<g>
</g>
<g>
</g>
</svg>
