<?xml version="1.0" encoding="iso-8859-1"?>
<!-- Generator: Adobe Illustrator 19.0.0, SVG Export Plug-In . SVG Version: 6.00 Build 0)  -->
<svg version="1.1" id="Layer_1" xmlns="http://www.w3.org/2000/svg" xmlns:xlink="http://www.w3.org/1999/xlink" x="0px" y="0px"
	 viewBox="0 0 512 512" style="enable-background:new 0 0 512 512;" xml:space="preserve">
<g>
	<g>
		<path d="M395.13,66.783c-27.618,0-50.087,22.469-50.087,50.087c0,27.618,22.469,50.087,50.087,50.087s50.087-22.469,50.087-50.087
			C445.217,89.252,422.748,66.783,395.13,66.783z M395.13,133.565c-9.206,0-16.696-7.49-16.696-16.696s7.49-16.696,16.696-16.696
			s16.696,7.49,16.696,16.696S404.336,133.565,395.13,133.565z"/>
	</g>
</g>
<g>
	<g>
		<path d="M395.13,0c-31.77,0-60.614,12.749-81.702,33.391H16.696C7.475,33.391,0,40.867,0,50.087v445.217
			C0,504.525,7.475,512,16.696,512h456.348c9.22,0,16.696-7.475,16.696-16.696V186.773l6.659-11.531
			C506.605,157.569,512,137.385,512,116.87C512,52.428,459.572,0,395.13,0z M33.391,66.783h256.161
			c-7.235,15.19-11.292,32.173-11.292,50.087c0,13.43,2.327,26.715,6.79,39.251L33.391,407.78V66.783z M33.391,478.609v-23.607
			l267.534-267.534l17.283,29.93L56.998,478.609H33.391z M104.22,478.609l140.65-140.65l140.65,140.65H104.22z M456.348,478.609
			h-23.607L268.481,314.348l23.607-23.607l164.261,164.261V478.609z M456.348,407.78l-140.65-140.65l19.798-19.798l45.177,78.234
			c2.983,5.166,8.494,8.347,14.458,8.347s11.475-3.181,14.458-8.347l46.758-80.971V407.78z M467.483,158.542l-72.352,125.29
			l-72.35-125.29c-7.28-12.605-11.128-27.015-11.128-41.672c0-46.03,37.448-83.478,83.478-83.478s83.478,37.448,83.478,83.478
			C478.609,131.529,474.761,145.939,467.483,158.542z"/>
	</g>
</g>
<g>
	<g>
		<path d="M183.652,150.261h-33.391c-9.22,0-16.696,7.475-16.696,16.696s7.475,16.696,16.696,16.696h12.215
			c-5.782,9.974-16.575,16.696-28.91,16.696c-18.412,0-33.391-14.979-33.391-33.391c0-18.412,14.979-33.391,33.391-33.391
			c4.5,0,8.863,0.882,12.966,2.62c8.489,3.595,18.288-0.372,21.886-8.861c3.596-8.49-0.371-18.288-8.861-21.886
			c-8.247-3.494-16.991-5.265-25.991-5.265c-36.824,0-66.783,29.959-66.783,66.783s29.959,66.783,66.783,66.783
			c36.824,0,66.783-29.959,66.783-66.783C200.348,157.736,192.873,150.261,183.652,150.261z"/>
	</g>
</g>
<g>
</g>
<g>
</g>
<g>
</g>
<g>
</g>
<g>
</g>
<g>
</g>
<g>
</g>
<g>
</g>
<g>
</g>
<g>
</g>
<g>
</g>
<g>
</g>
<g>
</g>
<g>
</g>
<g>
</g>
</svg>
