<?xml version="1.0" encoding="iso-8859-1"?>
<!-- Generator: Adobe Illustrator 19.0.0, SVG Export Plug-In . SVG Version: 6.00 Build 0)  -->
<svg version="1.1" id="Layer_1" xmlns="http://www.w3.org/2000/svg" xmlns:xlink="http://www.w3.org/1999/xlink" x="0px" y="0px"
	 viewBox="0 0 512 512" style="enable-background:new 0 0 512 512;" xml:space="preserve">
<g>
	<g>
		<path d="M496.129,1.272c-6.241-2.584-13.421-1.155-18.195,3.62l-21.586,21.585L434.762,4.892c-6.519-6.52-17.091-6.52-23.611,0
			l-21.586,21.585L367.98,4.892c-6.519-6.52-17.091-6.52-23.611,0l-21.586,21.585L301.197,4.892c-6.519-6.52-17.091-6.52-23.611,0
			L256,26.477L234.415,4.892c-6.519-6.52-17.091-6.52-23.611,0l-22.629,22.629L166.588,5.935c-6.519-6.52-17.091-6.52-23.611,0
			l-20.542,20.542L100.85,4.892c-6.519-6.52-17.091-6.52-23.611,0L55.654,26.477L34.067,4.892
			c-4.775-4.776-11.956-6.205-18.195-3.62C9.634,3.857,5.566,9.945,5.566,16.697v478.608c0,9.22,7.475,16.696,16.696,16.696h333.912
			c4.429,0,8.674-1.76,11.805-4.891l133.565-133.565c3.131-3.131,4.891-7.377,4.891-11.805V16.697
			C506.435,9.944,502.367,3.856,496.129,1.272z M372.869,454.998v-76.563h76.563L372.869,454.998z M473.051,345.043H356.182
			c-9.22,0-16.696,7.475-16.696,16.696v116.869H38.965V57.01l4.884,4.883c6.519,6.52,17.091,6.52,23.611,0l21.586-21.585
			l21.586,21.585c6.519,6.52,17.091,6.52,23.611,0l20.542-20.542l21.586,21.585c6.519,6.52,17.091,6.52,23.611,0l22.629-22.629
			l21.586,21.585c6.519,6.52,17.091,6.52,23.611,0l21.586-21.585l21.586,21.585c6.519,6.52,17.091,6.52,23.611,0l21.586-21.585
			l21.586,21.585c6.519,6.52,17.091,6.52,23.611,0l21.586-21.585l21.586,21.585c6.519,6.52,17.091,6.52,23.611,0l4.891-4.89V345.043
			z"/>
	</g>
</g>
<g>
	<g>
		<path d="M422.957,111.305H89.045c-9.22,0-16.696,7.475-16.696,16.696v66.782c0,9.22,7.474,16.696,16.696,16.696h333.912
			c9.22,0,16.696-7.475,16.696-16.696v-66.782C439.653,118.78,432.178,111.305,422.957,111.305z M406.262,178.088H105.741v-33.391
			h300.521V178.088z"/>
	</g>
</g>
<g>
	<g>
		<path d="M256.001,244.87H89.045c-9.22,0-16.696,7.475-16.696,16.696v166.956c0,9.22,7.475,16.696,16.696,16.696h166.956
			c9.22,0,16.696-7.475,16.696-16.696V261.566C272.697,252.345,265.222,244.87,256.001,244.87z M239.305,411.826H105.741V278.261
			h133.565V411.826z"/>
	</g>
</g>
<g>
	<g>
		<path d="M422.957,244.87H322.784c-9.22,0-16.696,7.475-16.696,16.696c0,9.22,7.475,16.696,16.696,16.696h100.174
			c9.22,0,16.696-7.475,16.696-16.696C439.653,252.345,432.178,244.87,422.957,244.87z"/>
	</g>
</g>
<g>
</g>
<g>
</g>
<g>
</g>
<g>
</g>
<g>
</g>
<g>
</g>
<g>
</g>
<g>
</g>
<g>
</g>
<g>
</g>
<g>
</g>
<g>
</g>
<g>
</g>
<g>
</g>
<g>
</g>
</svg>
