<?xml version="1.0" encoding="iso-8859-1"?>
<!-- Generator: Adobe Illustrator 19.0.0, SVG Export Plug-In . SVG Version: 6.00 Build 0)  -->
<svg version="1.1" id="Layer_1" xmlns="http://www.w3.org/2000/svg" xmlns:xlink="http://www.w3.org/1999/xlink" x="0px" y="0px"
	 viewBox="0 0 512 512" style="enable-background:new 0 0 512 512;" xml:space="preserve">
<g>
	<g>
		<path d="M495.288,239.311h-100.17c0-11.485,0-94.504,0-105.735c0-4.563-1.87-8.926-5.164-12.076
			C372.581,104.913,283.889,20.255,267.523,4.634c-10.596-10.109-28.226-2.593-28.226,12.076v100.17c-11.485,0-94.504,0-105.735,0
			c-4.563,0-8.926,1.87-12.076,5.164C104.9,139.418,20.242,228.109,4.621,244.475c-4.619,4.842-5.899,11.954-3.272,18.097
			c2.627,6.144,8.67,10.128,15.348,10.128h100.17c0,11.485,0,94.504,0,105.735c0,4.563,1.87,8.926,5.164,12.076
			c17.373,16.586,106.065,101.244,122.43,116.865c10.546,10.065,28.226,2.632,28.226-12.076v-100.17c11.485,0,94.504,0,105.735,0
			c4.563,0,8.926-1.87,12.076-5.164c16.586-17.373,101.244-106.065,116.865-122.43C517.473,256.941,509.957,239.311,495.288,239.311
			z M55.708,239.311l78.133-81.85l81.839,81.85C212.571,239.311,83.312,239.311,55.708,239.311z M150.258,272.701h65.422
			l-65.422,65.422V272.701z M239.298,456.29l-81.85-78.133l81.85-81.839C239.298,299.428,239.298,428.688,239.298,456.29z
			 M239.298,215.693l-65.433-65.422h65.433V215.693z M255.993,265.778c-3.364-3.356-1.268-1.261-9.772-9.764v-0.008l9.772-9.772
			l9.772,9.772C262.268,259.512,261.35,260.433,255.993,265.778z M272.688,55.721l81.85,78.133l-81.85,81.839
			C272.688,212.584,272.688,83.324,272.688,55.721z M361.728,173.888v65.422h-65.422L361.728,173.888z M272.688,361.741v-65.422
			l65.422,65.422H272.688z M378.145,354.551l-81.839-81.85c3.109,0,132.368,0,159.972,0L378.145,354.551z"/>
	</g>
</g>
<g>
</g>
<g>
</g>
<g>
</g>
<g>
</g>
<g>
</g>
<g>
</g>
<g>
</g>
<g>
</g>
<g>
</g>
<g>
</g>
<g>
</g>
<g>
</g>
<g>
</g>
<g>
</g>
<g>
</g>
</svg>
