<?xml version="1.0" encoding="iso-8859-1"?>
<!-- Generator: Adobe Illustrator 19.0.0, SVG Export Plug-In . SVG Version: 6.00 Build 0)  -->
<svg version="1.1" id="Layer_1" xmlns="http://www.w3.org/2000/svg" xmlns:xlink="http://www.w3.org/1999/xlink" x="0px" y="0px"
	 viewBox="0 0 512 512" style="enable-background:new 0 0 512 512;" xml:space="preserve">
<g>
	<g>
		<path d="M461.914,133.565H334.558c-4.911-25.385-10.387-53.723-23.209-120.038C309.831,5.673,302.957,0,294.957,0H50.088
			C22.47,0,0.001,22.469,0.001,50.087v278.261c0,27.618,22.469,50.087,50.087,50.087h126.556l24.028,120.144
			c1.67,8.352,8.901,13.378,16.371,13.417V512h244.87c27.618,0,50.087-22.469,50.087-50.087V183.652
			C512.001,156.034,489.531,133.565,461.914,133.565z M50.088,345.043c-9.206,0-16.696-7.49-16.696-16.696V50.087
			c0-9.206,7.49-16.696,16.696-16.696H281.18c29.33,151.698,15.945,82.537,60.32,311.652H50.088z M210.696,378.435h108.343
			l-91.458,84.422L210.696,378.435z M478.609,461.913c0,9.206-7.49,16.696-16.696,16.696H259.746l113.318-104.602l-0.013-0.014
			c4.061-3.76,6.236-9.466,5.081-15.428c-21.583-111.436-30.791-158.967-37.111-191.608h120.893c9.206,0,16.696,7.49,16.696,16.696
			V461.913z"/>
	</g>
</g>
<g>
	<g>
		<path d="M233.74,172.522h-33.391c-9.22,0-16.696,7.475-16.696,16.696s7.475,16.696,16.696,16.696h12.215
			c-5.782,9.974-16.575,16.696-28.91,16.696c-18.412,0-33.391-14.979-33.391-33.391c0-18.412,14.979-33.391,33.391-33.391
			c4.5,0,8.863,0.882,12.966,2.62c8.489,3.596,18.288-0.371,21.886-8.861c3.596-8.49-0.371-18.288-8.861-21.886
			c-8.247-3.494-16.991-5.265-25.991-5.265c-36.824,0-66.783,29.959-66.783,66.783S146.829,256,183.653,256
			c36.824,0,66.783-29.959,66.783-66.783C250.435,179.997,242.96,172.522,233.74,172.522z"/>
	</g>
</g>
<g>
</g>
<g>
</g>
<g>
</g>
<g>
</g>
<g>
</g>
<g>
</g>
<g>
</g>
<g>
</g>
<g>
</g>
<g>
</g>
<g>
</g>
<g>
</g>
<g>
</g>
<g>
</g>
<g>
</g>
</svg>
