<?xml version="1.0" encoding="iso-8859-1"?>
<!-- Generator: Adobe Illustrator 19.0.0, SVG Export Plug-In . SVG Version: 6.00 Build 0)  -->
<svg version="1.1" id="Layer_1" xmlns="http://www.w3.org/2000/svg" xmlns:xlink="http://www.w3.org/1999/xlink" x="0px" y="0px"
	 viewBox="0 0 512 512" style="enable-background:new 0 0 512 512;" xml:space="preserve">
<g>
	<g>
		<path d="M428.522,72.348H83.478C37.448,72.348,0,109.796,0,155.826v200.348c0,46.03,37.448,83.478,83.478,83.478h345.043
			c46.03,0,83.478-37.448,83.478-83.478V155.826C512,109.796,474.552,72.348,428.522,72.348z M478.609,356.174
			c0,27.618-22.469,50.087-50.087,50.087H83.478c-27.618,0-50.087-22.469-50.087-50.087V155.826
			c0-27.618,22.469-50.087,50.087-50.087h345.043c27.618,0,50.087,22.469,50.087,50.087V356.174z"/>
	</g>
</g>
<g>
	<g>
		<path d="M348.981,242.273L204.286,142.099c-5.106-3.535-11.752-3.946-17.252-1.062c-5.5,2.883-8.947,8.579-8.947,14.789v200.348
			c0,6.21,3.447,11.906,8.948,14.789c5.49,2.876,12.138,2.479,17.252-1.062l144.696-100.174c4.503-3.119,7.191-8.249,7.191-13.727
			S353.486,245.392,348.981,242.273z M211.478,324.309V187.691L310.146,256L211.478,324.309z"/>
	</g>
</g>
<g>
</g>
<g>
</g>
<g>
</g>
<g>
</g>
<g>
</g>
<g>
</g>
<g>
</g>
<g>
</g>
<g>
</g>
<g>
</g>
<g>
</g>
<g>
</g>
<g>
</g>
<g>
</g>
<g>
</g>
</svg>
