<svg viewBox="0 0 512 512" xmlns="http://www.w3.org/2000/svg"><path d="m482 256c0-124.070312-101.929688-226-226-226-4.835938 0-10.625.160156-15.386719.453125-25.96875-19.6875-57.917969-30.453125-90.613281-30.453125-82.703125 0-150 68.296875-150 151 0 32.695312 10.765625 64.644531 30.453125 90.613281-.292969 4.761719-.453125 9.550781-.453125 14.386719 0 124.070312 101.929688 226 226 226 4.835938 0 9.625-.160156 14.386719-.453125 25.96875 19.6875 57.917969 30.453125 90.613281 30.453125 82.703125 0 151-67.296875 151-150 0-32.695312-10.765625-65.644531-30.453125-91.613281.292969-4.761719.453125-9.550781.453125-14.386719zm-226 151c-29.925781 0-59.445312-8.042969-81.289062-22.617188-19.132813-12.765624-35.980469-30.214843-26.015626-50.945312 10.320313-21.140625 39.109376-20.300781 50.230469-6.609375 7.96875 9.800781 31.410157 19.734375 58.902344 19.734375 22.28125 0 58.171875-11.71875 58.171875-29.5625 0-18.007812-35.777344-31-60-31-74.214844 0-121-44.964844-121-90 0-43.734375 42.386719-88.207031 120.925781-88.234375 29.75-.011719 59.515625 6.933594 80.347657 20.851563 19.144531 12.75 35.996093 30.214843 26.03125 50.945312-9.683594 19.839844-37.722657 22.039062-50.246094 6.578125-7.953125-9.769531-30.394532-19.703125-57.890625-19.703125-22.277344 0-59.167969 11.71875-59.167969 29.5625 0 18.007812 36.777344 30 61 30 74.214844 0 120 45.964844 120 91 0 45.246094-45.992188 90-120 90zm0 0"/></svg>